<svg xmlns="http://www.w3.org/2000/svg" width="99.562" height="83.053" viewBox="0 0 99.562 83.053">
  <g id="Group_11433" data-name="Group 11433" transform="translate(-650 -797.586)">
    <g id="Group_11430" data-name="Group 11430" transform="translate(650 797.586)">
      <path id="Path_38662" data-name="Path 38662" d="M354.473-371.221q0,.311,0,.621v.191a47.51,47.51,0,0,1-.293,5.154c-1.216,10.864-5.924,26.172-16.8,30.607-8.565,3.492-17.542-1.044-26.105-2.15-11.221-1.449-21.9,4.468-33.238,3.634-21.354-1.573-30.391-38.528-16.442-53.272,5.856-6.19,11.434-10.567,15.284-18.387,3.512-7.135,11.94-11.176,19.652-11.3q.954-.015,1.919-.016h.138c7.89.005,16.193.906,22.283,6.514,7.158,6.591,12.21,10.182,21.2,14.207C351.121-391.367,354.326-380.93,354.473-371.221Z" transform="translate(-254.916 416.137)" fill="#07006e" fill-rule="evenodd"/>
    </g>
    <g id="message" transform="translate(670 780.645)">
      <path id="Path_38550" data-name="Path 38550" d="M53.473,65.664a3,3,0,0,1,.031,4.2l-6.73,6.941h17V48.76a3,3,0,0,0-3-3.005h-41a3,3,0,0,0-3,3.005V76.81a3,3,0,0,0,3,3.005h16L49.2,65.715a2.985,2.985,0,0,1,4.277-.051" transform="translate(-14.774 -7.399)" fill="#ffe100"/>
      <path id="Path_38551" data-name="Path 38551" d="M363.6,76.826V48.776a3,3,0,0,0-3-3.005h3a3,3,0,0,1,3,3.005V76.826a3,3,0,0,1-3,3.005h-3a3,3,0,0,0,3-3.005" transform="translate(-317.602 -7.413)" fill="#ffa800"/>
      <path id="Path_38552" data-name="Path 38552" d="M33.678,63.663a7.725,7.725,0,0,0,10.7,0L62.13,46.623a2.983,2.983,0,0,0-2.1-.863h-42a2.984,2.984,0,0,0-2.1.863Z" transform="translate(-14.03 -7.404)" fill="#fdcc00"/>
      <path id="Path_38553" data-name="Path 38553" d="M176.108,220.388l13.422,14.1a2.985,2.985,0,0,0,4.277.051h0a3,3,0,0,0,.031-4.2l-6.73-6.942h24.011a2.991,2.991,0,0,0,2.989-2.994v-.022a2.991,2.991,0,0,0-2.989-2.994H187.108l6.73-6.942a2.992,2.992,0,1,0-4.308-4.152Z" transform="translate(-155.108 -147.972)" fill="#f47d31"/>
      <path id="Path_38554" data-name="Path 38554" d="M11.386,76.826V48.776a3,3,0,0,1,3-3.005h-3a3,3,0,0,0-3,3.005V76.826a3,3,0,0,0,3,3.005h3a3,3,0,0,1-3-3.005" transform="translate(-7.386 -7.413)" fill="#fff"/>
      <g id="Group_10545" data-name="Group 10545" transform="translate(0 37.354)">
        <path id="Path_38555" data-name="Path 38555" d="M10.184,39.417l16.8,16.125a6.71,6.71,0,0,0,9.32,0L53.1,39.417a1.977,1.977,0,0,0-.456-.052h-42a1.979,1.979,0,0,0-.456.052M31.64,59.429a8.7,8.7,0,0,1-6.043-2.44L7.848,39.949a1,1,0,0,1-.01-1.438,3.971,3.971,0,0,1,2.8-1.15h42a3.97,3.97,0,0,1,2.8,1.15,1,1,0,0,1-.009,1.438L37.684,56.988a8.7,8.7,0,0,1-6.044,2.44" transform="translate(-6.64 -37.36)"/>
        <path id="Path_38556" data-name="Path 38556" d="M8.542,198.344a1,1,0,0,1-.692-1.725l16.84-16.166a1,1,0,0,1,1.384,1.447L9.234,198.065a1,1,0,0,1-.692.279" transform="translate(-6.643 -163.143)"/>
        <path id="Path_38557" data-name="Path 38557" d="M170.1,212.985l12.764,13.409a1.971,1.971,0,0,0,1.416.617,1.993,1.993,0,0,0,1.451-3.381l-6.73-6.941a1,1,0,0,1,.717-1.7h24.011a2,2,0,0,0,0-4.007H179.722a1,1,0,0,1-.717-1.7l6.73-6.941a2,2,0,0,0-.021-2.8,2.108,2.108,0,0,0-1.43-.584,1.975,1.975,0,0,0-1.416.617Zm14.205,16.029h-.049a3.961,3.961,0,0,1-2.84-1.237L168,213.677a1,1,0,0,1,0-1.382l13.421-14.1a3.954,3.954,0,0,1,2.84-1.237,3.874,3.874,0,0,1,2.868,1.17,4.017,4.017,0,0,1,.041,5.61l-5.082,5.242h21.646a4.007,4.007,0,0,1,0,8.014H182.087l5.082,5.241a4.018,4.018,0,0,1-.041,5.611,3.95,3.95,0,0,1-2.819,1.17Z" transform="translate(-147.722 -177.923)"/>
        <path id="Path_38558" data-name="Path 38558" d="M2,181.187a1,1,0,1,1-1-1,1,1,0,0,1,1,1" transform="translate(0 -163.153)"/>
        <path id="Path_38559" data-name="Path 38559" d="M21,73.417H4A4.008,4.008,0,0,1,0,69.41V59.395a1,1,0,1,1,2,0V69.41a2,2,0,0,0,2,2H20.572L33.7,57.625a3.958,3.958,0,0,1,2.84-1.238,3.879,3.879,0,0,1,2.868,1.17,4.018,4.018,0,0,1,.041,5.611l-5.082,5.241H48V41.361a2,2,0,0,0-2-2H4a2,2,0,0,0-2,2v10.02a1,1,0,1,1-2,0V41.361a4.008,4.008,0,0,1,4-4.007H46a4.007,4.007,0,0,1,4,4.007V69.41a1,1,0,0,1-1,1H32a1,1,0,0,1-.717-1.7l6.73-6.941a2,2,0,0,0-.021-2.8,2.109,2.109,0,0,0-1.43-.583,1.971,1.971,0,0,0-1.416.617l-13.422,14.1a1,1,0,0,1-.724.311" transform="translate(0 -37.354)"/>
      </g>
    </g>
  </g>
</svg>
