<svg xmlns="http://www.w3.org/2000/svg" width="99.562" height="83.053" viewBox="0 0 99.562 83.053">
  <g id="Group_11434" data-name="Group 11434" transform="translate(-1043 -797.586)">
    <g id="Group_11431" data-name="Group 11431" transform="translate(1043 797.586)">
      <path id="Path_38662" data-name="Path 38662" d="M354.473-371.221q0,.311,0,.621v.191a47.51,47.51,0,0,1-.293,5.154c-1.216,10.864-5.924,26.172-16.8,30.607-8.565,3.492-17.542-1.044-26.105-2.15-11.221-1.449-21.9,4.468-33.238,3.634-21.354-1.573-30.391-38.528-16.442-53.272,5.856-6.19,11.434-10.567,15.284-18.387,3.512-7.135,11.94-11.176,19.652-11.3q.954-.015,1.919-.016h.138c7.89.005,16.193.906,22.283,6.514,7.158,6.591,12.21,10.182,21.2,14.207C351.121-391.367,354.326-380.93,354.473-371.221Z" transform="translate(-254.916 416.137)" fill="#07006e" fill-rule="evenodd"/>
    </g>
    <g id="address" transform="translate(1062 808)">
      <path id="Path_38560" data-name="Path 38560" d="M122.211,376h-14.3L96,391.012h38.125Zm0,0" transform="translate(-84.562 -331.203)" fill="#ffa368"/>
      <path id="Path_38561" data-name="Path 38561" d="M326.246,376H316l11.914,15.012H338.16Zm0,0" transform="translate(-278.351 -331.203)" fill="#f47d31"/>
      <path id="Path_38562" data-name="Path 38562" d="M123.871,61.111,109,37.789a17.871,17.871,0,1,1,29.74,0l-14.87,23.323Zm8.926-27.3a10.725,10.725,0,1,0-8.926,4.78A10.646,10.646,0,0,0,132.8,33.814Zm0,0" transform="translate(-93.37 -8.809)" fill="#ffe100"/>
      <path id="Path_38563" data-name="Path 38563" d="M21.914,376,10,391.012H20.246L32.16,376Zm0,0" transform="translate(-8.808 -331.203)" fill="#f47d31"/>
      <path id="Path_38564" data-name="Path 38564" d="M307.191,260a1.191,1.191,0,1,0,1.191,1.191A1.192,1.192,0,0,0,307.191,260Zm0,0" transform="translate(-269.542 -229.024)"/>
      <path id="Path_38565" data-name="Path 38565" d="M12.173,44.056.259,59.068A1.191,1.191,0,0,0,1.192,61H59.809a1.191,1.191,0,0,0,.933-1.932L48.828,44.056a1.191,1.191,0,0,0-.933-.451H37.459l8.91-13.975a19.063,19.063,0,1,0-31.736,0l8.91,13.975H13.106a1.192,1.192,0,0,0-.933.451ZM7.725,53.494h7.2l-4.066,5.123h-7.2Zm17.337-7.506,3.266,5.123H19.862l4.066-5.123Zm10.878,0h1.134l4.066,5.123H32.674Zm7.091,7.506L47.1,58.617H13.9l4.066-5.123Zm7.108,5.123-4.066-5.123h7.2l4.066,5.123Zm1.247-7.506h-7.2l-4.066-5.123h7.2ZM16.622,28.318a16.68,16.68,0,1,1,27.758,0l-.014.021L30.5,50.086,16.635,28.339l-.013-.021Zm4.264,17.67L16.82,51.111h-7.2l4.066-5.123Zm0,0" transform="translate(0)"/>
      <path id="Path_38566" data-name="Path 38566" d="M167.914,83.828A11.914,11.914,0,1,0,156,71.914,11.915,11.915,0,0,0,167.914,83.828Zm0-21.445a9.531,9.531,0,1,1-9.531,9.531A9.542,9.542,0,0,1,167.914,62.383Zm0,0" transform="translate(-137.413 -52.852)"/>
      <path id="Path_38567" data-name="Path 38567" d="M252.206,292.859a1.191,1.191,0,0,0-1.635.405l-4.4,7.306a1.191,1.191,0,0,0,2.041,1.23l4.4-7.306A1.191,1.191,0,0,0,252.206,292.859Zm0,0" transform="translate(-216.687 -257.817)"/>
    </g>
  </g>
</svg>
