<svg xmlns="http://www.w3.org/2000/svg" width="98.433" height="82.111" viewBox="0 0 98.433 82.111">
  <g id="Group_11432" data-name="Group 11432" transform="translate(-259 -797.527)">
    <g id="Group_11428" data-name="Group 11428" transform="translate(259 797.527)">
      <path id="Path_38662" data-name="Path 38662" d="M353.344-371.731q0,.308,0,.614v.189a46.966,46.966,0,0,1-.289,5.1c-1.2,10.741-5.857,25.875-16.61,30.26-8.468,3.453-17.343-1.033-25.809-2.126-11.094-1.432-21.653,4.417-32.861,3.593-21.112-1.555-30.047-38.091-16.255-52.668,5.79-6.12,11.3-10.447,15.11-18.179,3.472-7.054,11.8-11.049,19.429-11.168q.943-.015,1.9-.016h.136c7.8.005,16.009.9,22.03,6.441,7.077,6.516,12.072,10.067,20.962,14.046C350.03-391.648,353.2-381.329,353.344-371.731Z" transform="translate(-254.916 416.137)" fill="#07006e" fill-rule="evenodd"/>
    </g>
    <g id="call" transform="translate(282.749 816.866)">
      <g id="Group_9255" data-name="Group 9255" transform="translate(0.843 0.84)">
        <path id="Path_38208" data-name="Path 38208" d="M55.8,49.013l-2.551,4.249a5.269,5.269,0,0,1-1.74,1.773,4.864,4.864,0,0,1-1.313.577c-4.232,1.162-13.574,1.405-28.544-13.574S6.92,17.726,8.082,13.494a4.864,4.864,0,0,1,.577-1.313,5.268,5.268,0,0,1,1.773-1.74l4.249-2.551a2.118,2.118,0,0,1,2.852.644l3.688,5.52,3.086,4.633a2.136,2.136,0,0,1-.46,2.852l-1.02.795-2.785,2.158a2.128,2.128,0,0,0-.56,2.693c1.121,2.007,2.175,4.374,7.41,9.618s7.611,6.289,9.618,7.41a2.128,2.128,0,0,0,2.693-.56l2.158-2.785.795-1.02a2.136,2.136,0,0,1,2.852-.46l4.775,3.186,5.378,3.588A2.118,2.118,0,0,1,55.8,49.013Z" transform="translate(-7.601 -7.589)" fill="#ffa368"/>
        <path id="Path_38209" data-name="Path 38209" d="M54.131,66.079,51.58,70.328c-.025.033-.042.067-.067.1a4.864,4.864,0,0,1-1.313.577c-4.232,1.162-13.574,1.405-28.544-13.574S6.92,33.119,8.082,28.887a4.864,4.864,0,0,1,.577-1.313c.033-.025.067-.042.1-.067l4.249-2.551a2.118,2.118,0,0,1,2.852.644l3.688,5.52,3.086,4.633a2.151,2.151,0,0,1-.46,2.852l-2.8,2.175-1,.778a2.123,2.123,0,0,0-.56,2.693c1.121,2.007,2.175,4.374,7.41,9.618s7.611,6.289,9.618,7.41a2.123,2.123,0,0,0,2.693-.56l.778-1,2.175-2.8a2.151,2.151,0,0,1,2.852-.46L48.11,59.64l5.378,3.588A2.118,2.118,0,0,1,54.131,66.079Z" transform="translate(-7.601 -22.983)" fill="#f47d31"/>
      </g>
      <g id="Group_9256" data-name="Group 9256" transform="translate(0 0)">
        <path id="Path_38210" data-name="Path 38210" d="M40.734,51.2a14.817,14.817,0,0,0,3.931-.513,5.986,5.986,0,0,0,3.546-2.732l2.554-4.245a2.95,2.95,0,0,0-.894-3.978L39.713,32.959a2.965,2.965,0,0,0-3.97.645l-2.959,3.8a1.265,1.265,0,0,1-1.622.341l-.563-.31c-1.866-1.017-4.188-2.283-8.865-6.963s-5.946-7-6.963-8.865l-.309-.563a1.266,1.266,0,0,1,.335-1.628l3.8-2.958a2.967,2.967,0,0,0,.646-3.97L12.47,2.335A2.95,2.95,0,0,0,8.494,1.44L4.246,3.992A5.992,5.992,0,0,0,1.514,7.538C-.016,13.111,1.135,22.73,15.3,36.9,26.576,48.171,34.967,51.2,40.734,51.2ZM3.127,7.98a4.329,4.329,0,0,1,1.98-2.554L9.355,2.878a1.28,1.28,0,0,1,1.725.388L14.76,8.79l3.089,4.632a1.287,1.287,0,0,1-.279,1.723l-3.8,2.958a2.927,2.927,0,0,0-.775,3.757l.3.549c1.069,1.96,2.4,4.4,7.249,9.25s7.29,6.18,9.249,7.249l.549.3a2.927,2.927,0,0,0,3.757-.775l2.958-3.8a1.288,1.288,0,0,1,1.723-.279l10.157,6.774a1.279,1.279,0,0,1,.388,1.725L46.776,47.1a4.323,4.323,0,0,1-2.551,1.977c-5.145,1.413-14.134.243-27.737-13.361S1.715,13.126,3.127,7.98Z" transform="translate(-1 -1.018)"/>
        <path id="Path_38211" data-name="Path 38211" d="M283.464,71a14.234,14.234,0,0,1,14.218,14.218.836.836,0,1,0,1.673,0,15.908,15.908,0,0,0-15.89-15.89.836.836,0,1,0,0,1.673Z" transform="translate(-255.026 -62.629)" fill="#ffa368"/>
        <path id="Path_38212" data-name="Path 38212" d="M283.464,122.2a9.211,9.211,0,0,1,9.2,9.2.836.836,0,0,0,1.673,0,10.885,10.885,0,0,0-10.872-10.872.836.836,0,1,0,0,1.673Z" transform="translate(-255.026 -108.811)" fill="#ffa368"/>
        <path id="Path_38213" data-name="Path 38213" d="M283.464,173.4a4.187,4.187,0,0,1,4.182,4.182.836.836,0,1,0,1.673,0,5.861,5.861,0,0,0-5.854-5.854.836.836,0,0,0,0,1.673Z" transform="translate(-255.026 -154.993)" fill="#ffa368"/>
      </g>
    </g>
  </g>
</svg>
