<svg id="Group_18591" data-name="Group 18591" xmlns="http://www.w3.org/2000/svg" xmlns:xlink="http://www.w3.org/1999/xlink" width="570.58" height="392.953" viewBox="0 0 570.58 392.953">
  <defs>
    <clipPath id="clip-path">
      <rect id="Rectangle_5178" data-name="Rectangle 5178" width="570.58" height="392.953" fill="none"/>
    </clipPath>
    <clipPath id="clip-path-4">
      <rect id="Rectangle_5169" data-name="Rectangle 5169" width="545.253" height="45.702" fill="none"/>
    </clipPath>
    <clipPath id="clip-path-5">
      <rect id="Rectangle_5170" data-name="Rectangle 5170" width="425.253" height="52.189" fill="none"/>
    </clipPath>
    <clipPath id="clip-path-6">
      <rect id="Rectangle_5171" data-name="Rectangle 5171" width="155.838" height="25.436" fill="none"/>
    </clipPath>
    <clipPath id="clip-path-7">
      <rect id="Rectangle_5173" data-name="Rectangle 5173" width="278.408" height="278.991" fill="none"/>
    </clipPath>
    <clipPath id="clip-path-9">
      <rect id="Rectangle_5174" data-name="Rectangle 5174" width="101.647" height="105.183" fill="none"/>
    </clipPath>
    <clipPath id="clip-path-10">
      <rect id="Rectangle_5175" data-name="Rectangle 5175" width="90.363" height="86.786" fill="none"/>
    </clipPath>
  </defs>
  <g id="Group_18580" data-name="Group 18580" transform="translate(0 0)">
    <g id="Group_18579" data-name="Group 18579" clip-path="url(#clip-path)">
      <g id="Group_18578" data-name="Group 18578">
        <g id="Group_18577" data-name="Group 18577" clip-path="url(#clip-path)">
          <g id="Group_18566" data-name="Group 18566">
            <g id="Group_18565" data-name="Group 18565" clip-path="url(#clip-path)">
              <path id="Path_43063" data-name="Path 43063" d="M785.951,714.1s78.917,76.659,191.506,45.153,166.568-25.162,193.915-4.083,106.038,1.488,147.69-68.038-32.616-115.11-48.972-159.1-.526-90.1-71.858-94.822-143.174-24.28-188.759,49.989-146.58,70.559-188.044,85.8S729.941,648.433,785.951,714.1" transform="translate(-761 -427.364)" fill="#07006e"/>
              <g id="Group_18558" data-name="Group 18558" transform="translate(14.414 247.705)" opacity="0.25">
                <g id="Group_18557" data-name="Group 18557">
                  <g id="Group_18556" data-name="Group 18556" clip-path="url(#clip-path-4)">
                    <path id="Path_43064" data-name="Path 43064" d="M775.985,685.563s103.984,35.065,218.852,6.046,131.8-39.9,163.233-22.973,91.894,12.091,91.894,12.091,44.24-4.8,68.066-9.655" transform="translate(-774.382 -659.007)" fill="none" stroke="#1a0dd4" stroke-linecap="round" stroke-linejoin="round" stroke-width="3"/>
                  </g>
                </g>
              </g>
              <g id="Group_18561" data-name="Group 18561" transform="translate(50.695 147.39)" opacity="0.25">
                <g id="Group_18560" data-name="Group 18560">
                  <g id="Group_18559" data-name="Group 18559" clip-path="url(#clip-path-5)">
                    <path id="Path_43065" data-name="Path 43065" d="M809.929,566.758s1.283,44.9,187.291,48.747,142.392-41.049,234.754-24.373" transform="translate(-808.325 -565.155)" fill="none" stroke="#1a0dd4" stroke-linecap="round" stroke-linejoin="round" stroke-width="3"/>
                  </g>
                </g>
              </g>
              <g id="Group_18564" data-name="Group 18564" transform="translate(349.614 64.868)" opacity="0.25">
                <g id="Group_18563" data-name="Group 18563">
                  <g id="Group_18562" data-name="Group 18562" clip-path="url(#clip-path-6)">
                    <path id="Path_43066" data-name="Path 43066" d="M1089.59,501.595c50.874-15.9,106.124-19.359,152.633,10.188" transform="translate(-1087.986 -487.95)" fill="none" stroke="#7d72b3" stroke-linecap="round" stroke-linejoin="round" stroke-width="3"/>
                  </g>
                </g>
              </g>
              <path id="Path_43067" data-name="Path 43067" d="M1078.584,733.212l-77.029,23.31-2.48,8.663c-3.519,12.331-16.89,22.415-29.711,22.415v5.827h141.409V787.6Z" transform="translate(-746.651 -406.302)" fill="#496c82"/>
              <path id="Path_43068" data-name="Path 43068" d="M1102.3,766.687l-9.136-31.973L1049.649,711.4l-43.51,23.308-6.658,23.31h77.028l2.478,8.663c3.52,12.33,16.892,22.416,29.712,22.416l11.655,5.826,11.655-5.826c-12.82,0-26.192-10.086-29.713-22.416" transform="translate(-744.578 -407.804)" fill="#496c82"/>
              <path id="Path_43069" data-name="Path 43069" d="M1174.983,795.751H934.121a5.827,5.827,0,1,1,0-11.654h240.862a5.827,5.827,0,1,1,0,11.654" transform="translate(-749.48 -402.798)" fill="#496c82"/>
              <path id="Path_43070" data-name="Path 43070" d="M1206.751,460.618h-23.309V751.984h23.309a23.379,23.379,0,0,0,23.309-23.31V483.928a23.378,23.378,0,0,0-23.309-23.31" transform="translate(-731.909 -425.074)" fill="#627f95"/>
              <path id="Path_43071" data-name="Path 43071" d="M1205.317,460.618H889.089a23.377,23.377,0,0,0-23.31,23.31V728.674a23.378,23.378,0,0,0,23.31,23.31h316.228a23.378,23.378,0,0,0,23.309-23.31V705.365L1058.857,594.646l169.769-110.718a23.377,23.377,0,0,0-23.309-23.31" transform="translate(-753.784 -425.074)" fill="#627f95"/>
              <path id="Path_43072" data-name="Path 43072" d="M1216.186,482.427l-23.3-.021c0,.005-146.464,110.719-146.464,110.719l146.46,110.718,23.308-.019s0-221.393,0-221.4" transform="translate(-741.345 -423.574)" fill="#afc5cd"/>
              <path id="Path_43073" data-name="Path 43073" d="M1203.815,482.427l-316.161-.021c-.018.011-.034,221.433-.067,221.438l316.22-.019s-.025-221.393.008-221.4" transform="translate(-752.283 -423.574)" fill="#afc5cd"/>
              <path id="Path_43074" data-name="Path 43074" d="M1206.119,705.933a5.828,5.828,0,1,1-5.827,5.828,5.827,5.827,0,0,1,5.827-5.828" transform="translate(-730.749 -408.18)" fill="#89c791"/>
              <path id="Path_43075" data-name="Path 43075" d="M1184.311,705.933a5.828,5.828,0,1,1-5.828,5.828,5.827,5.827,0,0,1,5.828-5.828" transform="translate(-732.251 -408.18)" fill="#496c82"/>
            </g>
          </g>
          <g id="Group_18568" data-name="Group 18568" transform="translate(117.158 2.602)">
            <g id="Group_18567" data-name="Group 18567" clip-path="url(#clip-path-7)">
              <path id="Path_43076" data-name="Path 43076" d="M974.715,460.358s-56.106,39.407-48.777,97.139-2.462,85.181-18.5,98.9-12.425,54.039,26.179,76.018,74.931-15.393,103.987-23.258,55.937.7,66.6-35.613,30.591-72.726-10.528-96.76S1065.814,501.3,1060.857,480c-2.613-11.228-13.4-23.815-29.876-29.129-14.78-4.767-34.133-3.682-56.266,9.486" transform="translate(-868.691 -428.525)" fill="#07006e"/>
              <path id="Path_43077" data-name="Path 43077" d="M922.757,542.134s-8.123-128.674,113.882-87.781Z" transform="translate(-867.027 -428.66)" fill="#07006e"/>
              <path id="Path_43078" data-name="Path 43078" d="M1091.839,692.964c-3.138-15.757-6.857-34.441-7.755-38.947a24.021,24.021,0,0,0-15.639-18.19l-3.18-.937h0c-.094-.023-15.229-3.774-28.322-7.012l-26.655,31.307c-7.746,9.1-19.3,9.08-27.032-.045L956.7,627.793c-3.77.938-12.807,3.166-28.661,7.1h0c.931-.276-15.475,2.38-18.819,19.127-.9,4.506-4.616,23.19-7.753,38.947a11.487,11.487,0,0,0,10.589,13.721l.036.019h169.117l.038-.019a11.487,11.487,0,0,0,10.589-13.721" transform="translate(-868.5 -416.163)" fill="#f47d31"/>
              <path id="Path_43079" data-name="Path 43079" d="M970.044,605.535h-.022c.032.015-.168.05-.246.063l.267,0Z" transform="translate(-863.781 -417.696)" fill="#e28157"/>
              <path id="Path_43080" data-name="Path 43080" d="M1018.247,625.664a4.564,4.564,0,0,1-3.469-4.432v-15.7h-3.961a51.624,51.624,0,0,1-35.614,0H971.24v16.058a4.118,4.118,0,0,1-3.119,4l-15.7,3.929,27.319,32.245c7.729,9.125,19.285,9.144,27.032.044l27.416-32.2Z" transform="translate(-864.976 -417.696)" fill="#f3b595"/>
              <path id="Path_43081" data-name="Path 43081" d="M978.884,659.212c7.73,9.125,19.286,9.144,27.031.045l14.218-16.7H964.775Z" transform="translate(-864.125 -415.147)" fill="#face6a"/>
              <path id="Path_43082" data-name="Path 43082" d="M978.884,659.212a18.221,18.221,0,0,0,12.469,6.815,16.542,16.542,0,0,0,11.356-3.681c-8.826-10.415-12.646-12.831-15.512-19.788H964.775l14.109,16.654" transform="translate(-864.125 -415.147)" fill="#face6a"/>
              <path id="Path_43083" data-name="Path 43083" d="M949.384,547.445a6.957,6.957,0,0,0-7.362,6.951v9.753c0,29.785,24.687,54.044,54.437,52.656a51.974,51.974,0,0,0,49.509-51.917V531.653a6.771,6.771,0,0,0-5.9-6.71c-4.446-.583-10.4-2.949-14.2-10.766a3.024,3.024,0,0,0-5.154-.477c-7.967,10.849-31.036,36.18-71.329,33.745" transform="translate(-865.692 -424.105)" fill="#f5c2a8"/>
              <path id="Path_43084" data-name="Path 43084" d="M994.573,600.252H965.36c-18.05,0-33.884-11.9-33.884-30.321v-8.365a4.082,4.082,0,0,1,8.163,0v8.365c0,13.665,11.992,22.159,25.721,22.159h29.213a4.081,4.081,0,0,1,0,8.163" transform="translate(-866.418 -421.005)" fill="#ececef"/>
              <path id="Path_43085" data-name="Path 43085" d="M1054.307,537.943a4.082,4.082,0,0,1-4.082-4.082v-11.1c0-31.04-25.2-56.474-56.234-55.931a55.29,55.29,0,0,0-54.244,55.229v11.8a4.081,4.081,0,1,1-8.162,0v-11.8a63.453,63.453,0,0,1,62.262-63.392c35.615-.607,64.54,28.485,64.54,64.094v11.1a4.081,4.081,0,0,1-4.081,4.082" transform="translate(-866.411 -427.811)" fill="#ececef"/>
              <path id="Path_43086" data-name="Path 43086" d="M1052.981,531.689v34.832c15.6-6.365,15.632-28.453,0-34.832" transform="translate(-858.051 -422.781)" fill="#face6a"/>
              <path id="Path_43087" data-name="Path 43087" d="M929.113,531.689v34.832c-15.655-6.365-15.691-28.453,0-34.832" transform="translate(-867.391 -422.781)" fill="#face6a"/>
              <path id="Path_43088" data-name="Path 43088" d="M986.41,601.245h9.835a7.5,7.5,0,0,0,7.57-7.015,7.346,7.346,0,0,0-7.339-7.679h-10.3a7.347,7.347,0,0,0-7.34,7.679,7.5,7.5,0,0,0,7.571,7.015" transform="translate(-863.157 -419.003)" fill="#00a0de"/>
              <path id="Path_43089" data-name="Path 43089" d="M928.307,567.006V532.179a7.5,7.5,0,0,1,7.015-7.57,7.347,7.347,0,0,1,7.68,7.34v35.286a7.348,7.348,0,0,1-7.68,7.341,7.5,7.5,0,0,1-7.015-7.571" transform="translate(-866.636 -423.269)" fill="#f1bc65"/>
              <path id="Path_43090" data-name="Path 43090" d="M1039.262,567.006V532.179a7.5,7.5,0,0,1,7.02-7.57,7.35,7.35,0,0,1,7.687,7.34v35.286a7.352,7.352,0,0,1-7.687,7.341,7.5,7.5,0,0,1-7.02-7.571" transform="translate(-858.996 -423.269)" fill="#f1bc65"/>
            </g>
          </g>
          <g id="Group_18576" data-name="Group 18576">
            <g id="Group_18575" data-name="Group 18575" clip-path="url(#clip-path)">
              <g id="Group_18571" data-name="Group 18571" transform="translate(325.085 142.781)" opacity="0.17">
                <g id="Group_18570" data-name="Group 18570">
                  <g id="Group_18569" data-name="Group 18569" clip-path="url(#clip-path-9)">
                    <path id="Path_43091" data-name="Path 43091" d="M1141.564,607.238v.022q0,1.209-.1,2.4a30.132,30.132,0,0,1-51.824,18.4q-.675-.709-1.3-1.455a30.134,30.134,0,1,1,53.225-19.361" transform="translate(-1064.028 -559.833)" fill="#627f95"/>
                    <path id="Path_43092" data-name="Path 43092" d="M1109.669,572.4a2.778,2.778,0,0,1-2.779-2.779v-5.893a2.779,2.779,0,0,1,5.558,0v5.893a2.779,2.779,0,0,1-2.779,2.779" transform="translate(-1062.266 -560.946)" fill="#627f95"/>
                    <path id="Path_43093" data-name="Path 43093" d="M1140.949,590.148a2.779,2.779,0,0,1-1.406-5.178l5.086-2.975a2.778,2.778,0,1,1,2.806,4.8l-5.084,2.976a2.778,2.778,0,0,1-1.4.38" transform="translate(-1060.112 -559.523)" fill="#627f95"/>
                    <path id="Path_43094" data-name="Path 43094" d="M1073.635,629.526a2.779,2.779,0,0,1-1.406-5.177l5.086-2.975a2.778,2.778,0,1,1,2.806,4.8l-5.085,2.976a2.773,2.773,0,0,1-1.4.38" transform="translate(-1064.747 -556.811)" fill="#627f95"/>
                    <path id="Path_43095" data-name="Path 43095" d="M1127.788,577.2a2.78,2.78,0,0,1-2.4-4.169l2.947-5.1a2.779,2.779,0,0,1,4.813,2.779l-2.947,5.1a2.78,2.78,0,0,1-2.409,1.39" transform="translate(-1061.018 -560.561)" fill="#627f95"/>
                    <path id="Path_43096" data-name="Path 43096" d="M1151.8,608.253h-5.892a2.779,2.779,0,0,1,0-5.557h5.892a2.779,2.779,0,1,1,0,5.557" transform="translate(-1059.77 -558.071)" fill="#627f95"/>
                    <path id="Path_43097" data-name="Path 43097" d="M1073.813,608.253h-5.894a2.779,2.779,0,0,1,0-5.557h5.893a2.779,2.779,0,0,1,0,5.557" transform="translate(-1065.141 -558.071)" fill="#627f95"/>
                    <path id="Path_43098" data-name="Path 43098" d="M1091.566,577.3a2.774,2.774,0,0,1-2.4-1.377l-2.976-5.086a2.779,2.779,0,1,1,4.8-2.806l2.975,5.086a2.778,2.778,0,0,1-2.4,4.182" transform="translate(-1063.718 -560.553)" fill="#627f95"/>
                    <path id="Path_43099" data-name="Path 43099" d="M1078.614,590.322a2.762,2.762,0,0,1-1.387-.373l-5.1-2.946a2.779,2.779,0,0,1,2.779-4.813l5.1,2.946a2.779,2.779,0,0,1-1.393,5.186" transform="translate(-1064.756 -559.509)" fill="#627f95"/>
                    <path id="Path_43100" data-name="Path 43100" d="M1163.622,662.761h-93.677a3.035,3.035,0,0,1-2.968-3.712,15.986,15.986,0,0,1,18.93-11.9c-.007-.036-.02-.069-.026-.107a17.652,17.652,0,0,1-.467-4.02c0-.589.028-1.167.084-1.741a17.457,17.457,0,0,1,23.131-14.738.473.473,0,0,1,.014-.052,21.4,21.4,0,0,1,1.972-5.2,21.661,21.661,0,0,1,40.759,10.218,22.13,22.13,0,0,1-.286,3.526,12.9,12.9,0,0,1,9.838,11.327c.036.4.055.8.055,1.215a12.83,12.83,0,0,1-.763,4.369,1.234,1.234,0,0,1-.04.119,11.679,11.679,0,0,1,6.291,6.568,3.047,3.047,0,0,1-2.846,4.125" transform="translate(-1065.02 -557.578)" fill="#627f95"/>
                  </g>
                </g>
              </g>
              <g id="Group_18574" data-name="Group 18574" transform="translate(412.747 44.097)" opacity="0.18">
                <g id="Group_18573" data-name="Group 18573">
                  <g id="Group_18572" data-name="Group 18572" clip-path="url(#clip-path-10)">
                    <path id="Path_43101" data-name="Path 43101" d="M1184.812,479.353a37.657,37.657,0,1,1-37.656,37.657,37.656,37.656,0,0,1,37.656-37.657" transform="translate(-1147.155 -467.881)" fill="#627f95"/>
                    <path id="Path_43102" data-name="Path 43102" d="M1232.962,514.356q.56-.505,1.083-1.034a1.228,1.228,0,0,1,2.039,1.224,35.158,35.158,0,1,1-43.666-43.668,1.228,1.228,0,0,1,1.2,2.059l-.036.035a28.571,28.571,0,0,0,39.378,41.383" transform="translate(-1145.775 -468.468)" fill="#627f95"/>
                    <path id="Path_43103" data-name="Path 43103" d="M1155.689,521.458a2.779,2.779,0,0,1-2.779-2.779v-.309a2.779,2.779,0,0,1,5.558,0v.309a2.778,2.778,0,0,1-2.779,2.779" transform="translate(-1146.759 -465.385)" fill="#627f95"/>
                    <path id="Path_43104" data-name="Path 43104" d="M1195.889,496.657a2.778,2.778,0,0,1-2.779-2.779v-.309a2.779,2.779,0,0,1,5.558,0v.309a2.779,2.779,0,0,1-2.78,2.779" transform="translate(-1143.99 -467.093)" fill="#627f95"/>
                    <path id="Path_43105" data-name="Path 43105" d="M1203.029,478.846a2.779,2.779,0,0,1-2.779-2.779v-.309a2.779,2.779,0,0,1,5.558,0v.309a2.779,2.779,0,0,1-2.779,2.779" transform="translate(-1143.498 -468.32)" fill="#627f95"/>
                    <path id="Path_43106" data-name="Path 43106" d="M1167.373,474.487a2.779,2.779,0,0,1-2.779-2.779V471.4a2.779,2.779,0,0,1,5.558,0v.309a2.777,2.777,0,0,1-2.779,2.779" transform="translate(-1145.954 -468.62)" fill="#627f95"/>
                    <path id="Path_43107" data-name="Path 43107" d="M1217.164,547.464a2.779,2.779,0,0,1-2.779-2.779v-.309a2.779,2.779,0,1,1,5.558,0v.309a2.778,2.778,0,0,1-2.779,2.779" transform="translate(-1142.526 -463.594)" fill="#627f95"/>
                    <path id="Path_43108" data-name="Path 43108" d="M1183.965,543.962a2.778,2.778,0,0,1-2.779-2.778v-.31a2.779,2.779,0,0,1,5.558,0v.31a2.779,2.779,0,0,1-2.779,2.778" transform="translate(-1144.811 -463.836)" fill="#627f95"/>
                  </g>
                </g>
              </g>
              <line id="Line_164" data-name="Line 164" x1="9.471" y1="4.52" transform="translate(394.209 78.447)" fill="none" stroke="#627f95" stroke-linecap="round" stroke-linejoin="round" stroke-width="3"/>
              <path id="Path_43109" data-name="Path 43109" d="M1136.375,512.456l5.183-7.265c-51.979,5.286-47.574,56.383-47.574,56.383" transform="translate(-738.076 -422.005)" fill="none" stroke="#627f95" stroke-linecap="round" stroke-linejoin="round" stroke-width="3"/>
              <line id="Line_165" data-name="Line 165" x2="10.213" y2="2.418" transform="translate(426.351 203.47)" fill="none" stroke="#627f95" stroke-linecap="round" stroke-linejoin="round" stroke-width="3"/>
              <path id="Path_43110" data-name="Path 43110" d="M1163.552,613.488l-3.531,8.2c49.689-16.147,34.589-65.162,34.589-65.162" transform="translate(-733.522 -418.47)" fill="none" stroke="#627f95" stroke-linecap="round" stroke-linejoin="round" stroke-width="3"/>
              <path id="Path_43111" data-name="Path 43111" d="M1144.564,604.988v.023c0,.806-.034,1.6-.1,2.4a30.132,30.132,0,0,1-51.823,18.4q-.675-.708-1.3-1.455a30.134,30.134,0,1,1,53.226-19.361" transform="translate(-738.737 -417.207)" fill="#face6a"/>
              <path id="Path_43112" data-name="Path 43112" d="M1112.667,570.147a2.779,2.779,0,0,1-2.78-2.779v-5.892a2.779,2.779,0,0,1,5.558,0v5.892a2.778,2.778,0,0,1-2.779,2.779" transform="translate(-736.975 -418.32)" fill="#f1bc65"/>
              <path id="Path_43113" data-name="Path 43113" d="M1143.947,587.9a2.779,2.779,0,0,1-1.4-5.177l5.086-2.975a2.778,2.778,0,1,1,2.806,4.8l-5.086,2.975a2.77,2.77,0,0,1-1.4.381" transform="translate(-734.821 -416.897)" fill="#f1bc65"/>
              <path id="Path_43114" data-name="Path 43114" d="M1076.633,627.277a2.779,2.779,0,0,1-1.4-5.178l5.085-2.975a2.779,2.779,0,1,1,2.806,4.8l-5.085,2.975a2.774,2.774,0,0,1-1.4.381" transform="translate(-739.456 -414.185)" fill="#f1bc65"/>
              <path id="Path_43115" data-name="Path 43115" d="M1130.787,574.953a2.78,2.78,0,0,1-2.4-4.169l2.947-5.1a2.779,2.779,0,0,1,4.813,2.778l-2.947,5.1a2.781,2.781,0,0,1-2.409,1.39" transform="translate(-735.727 -417.935)" fill="#f1bc65"/>
              <path id="Path_43116" data-name="Path 43116" d="M1154.8,606H1148.9a2.779,2.779,0,0,1,0-5.557h5.893a2.779,2.779,0,1,1,0,5.557" transform="translate(-734.479 -415.445)" fill="#f1bc65"/>
              <path id="Path_43117" data-name="Path 43117" d="M1076.811,606h-5.893a2.779,2.779,0,0,1,0-5.557h5.893a2.779,2.779,0,1,1,0,5.557" transform="translate(-739.85 -415.445)" fill="#f1bc65"/>
              <path id="Path_43118" data-name="Path 43118" d="M1094.564,575.054a2.773,2.773,0,0,1-2.4-1.377l-2.975-5.086a2.779,2.779,0,1,1,4.8-2.806l2.975,5.085a2.779,2.779,0,0,1-2.4,4.183" transform="translate(-738.426 -417.926)" fill="#f1bc65"/>
              <path id="Path_43119" data-name="Path 43119" d="M1081.614,588.073a2.763,2.763,0,0,1-1.388-.373l-5.1-2.946a2.779,2.779,0,0,1,2.779-4.813l5.1,2.946a2.78,2.78,0,0,1-1.392,5.186" transform="translate(-739.464 -416.883)" fill="#f1bc65"/>
              <path id="Path_43120" data-name="Path 43120" d="M1166.621,660.513h-93.678a3.034,3.034,0,0,1-2.967-3.712,15.985,15.985,0,0,1,18.929-11.9c-.007-.037-.019-.071-.026-.108a17.69,17.69,0,0,1-.467-4.019c0-.59.03-1.167.085-1.742a17.457,17.457,0,0,1,23.131-14.739.358.358,0,0,1,.014-.052,21.4,21.4,0,0,1,1.971-5.2,21.661,21.661,0,0,1,40.759,10.218,22.031,22.031,0,0,1-.286,3.527,12.9,12.9,0,0,1,9.838,11.327c.038.4.055.8.055,1.214a12.812,12.812,0,0,1-.763,4.368c-.01.041-.026.078-.04.119a11.674,11.674,0,0,1,6.291,6.569,3.046,3.046,0,0,1-2.845,4.125" transform="translate(-739.729 -414.952)" fill="#6dc3d9"/>
              <path id="Path_43121" data-name="Path 43121" d="M1185.258,477.569a37.657,37.657,0,1,1-37.656,37.657,37.656,37.656,0,0,1,37.656-37.657" transform="translate(-734.377 -423.907)" fill="#07006e"/>
              <path id="Path_43122" data-name="Path 43122" d="M1233.409,512.572q.559-.505,1.083-1.034a1.227,1.227,0,0,1,2.039,1.223,35.158,35.158,0,1,1-43.665-43.666,1.229,1.229,0,0,1,1.2,2.059l-.035.035a28.571,28.571,0,0,0,39.377,41.383" transform="translate(-732.997 -424.494)" fill="#face6a"/>
              <path id="Path_43123" data-name="Path 43123" d="M1156.135,519.674a2.78,2.78,0,0,1-2.78-2.779v-.309a2.779,2.779,0,1,1,5.558,0v.309a2.778,2.778,0,0,1-2.779,2.779" transform="translate(-733.981 -421.411)" fill="#f1bc65"/>
              <path id="Path_43124" data-name="Path 43124" d="M1196.334,494.872a2.778,2.778,0,0,1-2.778-2.779v-.309a2.779,2.779,0,0,1,5.557,0v.309a2.778,2.778,0,0,1-2.779,2.779" transform="translate(-731.213 -423.119)" fill="#f1bc65"/>
              <path id="Path_43125" data-name="Path 43125" d="M1203.476,477.062a2.778,2.778,0,0,1-2.779-2.779v-.309a2.779,2.779,0,0,1,5.558,0v.309a2.779,2.779,0,0,1-2.779,2.779" transform="translate(-730.721 -424.346)" fill="#f1bc65"/>
              <path id="Path_43126" data-name="Path 43126" d="M1167.82,472.7a2.779,2.779,0,0,1-2.78-2.779v-.309a2.779,2.779,0,0,1,5.558,0v.309a2.778,2.778,0,0,1-2.778,2.779" transform="translate(-733.177 -424.646)" fill="#f1bc65"/>
              <path id="Path_43127" data-name="Path 43127" d="M1217.61,545.679a2.777,2.777,0,0,1-2.779-2.778v-.309a2.779,2.779,0,0,1,5.558,0v.309a2.777,2.777,0,0,1-2.779,2.778" transform="translate(-729.748 -419.62)" fill="#f1bc65"/>
              <path id="Path_43128" data-name="Path 43128" d="M1184.411,542.178a2.779,2.779,0,0,1-2.779-2.779v-.309a2.779,2.779,0,0,1,5.558,0v.309a2.779,2.779,0,0,1-2.779,2.779" transform="translate(-732.034 -419.861)" fill="#f1bc65"/>
            </g>
          </g>
        </g>
      </g>
    </g>
  </g>
</svg>
