<svg xmlns="http://www.w3.org/2000/svg" width="143.528" height="92.457" viewBox="0 0 143.528 92.457">
  <g id="OBJECTS" transform="translate(-24.276 -97.555)">
    <g id="Group_35" data-name="Group 35" transform="translate(24.276 97.555)">
      <path id="Path_1" data-name="Path 1" d="M214.394,368.1c0,2.116-13.918,3.831-31.087,3.831s-31.087-1.715-31.087-3.831,13.918-3.83,31.087-3.83S214.394,365.982,214.394,368.1Z" transform="translate(-111.544 -279.472)" fill="#eaeaea"/>
      <g id="Group_34" data-name="Group 34" transform="translate(0 0)">
        <g id="Group_32" data-name="Group 32" transform="translate(0 4.146)">
          <g id="Group_9" data-name="Group 9" transform="translate(81.908 8.164)">
            <g id="Group_1" data-name="Group 1">
              <path id="Path_2" data-name="Path 2" d="M281.97,160.483C280.9,175.042,293.8,187.854,310.786,189.1s31.613-9.549,32.68-24.109-11.834-27.371-28.816-28.616S283.037,145.923,281.97,160.483Z" transform="translate(-281.908 -136.276)" fill="#f47d31"/>
              <path id="Path_3" data-name="Path 3" d="M289.511,165.7c.961-13.977,14.55-24.309,30.352-23.077a30.483,30.483,0,0,1,21.588,11.113c-4.212-9.4-14.421-16.452-26.8-17.359-16.982-1.245-31.613,9.55-32.681,24.109-.786,10.732,6.017,20.513,16.449,25.413C292.478,180.765,288.975,173.487,289.511,165.7Z" transform="translate(-281.908 -136.276)" fill="#ffa368"/>
              <path id="Path_4" data-name="Path 4" d="M337.753,281.666s-8.453,13.974-21.245,6.746c7.465,1.072,8.315-8.185,6.635-13.762Z" transform="translate(-305.508 -230.657)" fill="#f47d31"/>
            </g>
            <g id="Group_8" data-name="Group 8" transform="translate(1.612 1.655)">
              <g id="Group_2" data-name="Group 2" transform="translate(27.787 49.842)">
                <path id="Path_5" data-name="Path 5" d="M374.62,299.133l-.243-.205c.228-.269.395-.48.5-.611l.05-.065.082,0q.4.017.791.025l-.006.318q-.357-.007-.716-.022C374.97,298.709,374.817,298.9,374.62,299.133Z" transform="translate(-374.377 -298.251)" fill="#f7f7f7"/>
              </g>
              <g id="Group_3" data-name="Group 3" transform="translate(15.953 51.803)">
                <path id="Path_6" data-name="Path 6" d="M337.745,309.808q-.292,0-.588-.018l.019-.318a9.532,9.532,0,0,0,1.722-.052l.038.316A10.015,10.015,0,0,1,337.745,309.808Zm2.931-.43-.089-.305a12.485,12.485,0,0,0,1.623-.6l.13.29A12.828,12.828,0,0,1,340.677,309.378Zm3.233-1.434-.163-.273c.482-.288.969-.612,1.446-.964l.189.256C344.9,307.32,344.4,307.65,343.91,307.944Zm2.849-2.088-.209-.24c.43-.375.856-.778,1.267-1.2l.226.223C347.626,305.067,347.194,305.474,346.758,305.855Z" transform="translate(-337.157 -304.42)" fill="#f7f7f7"/>
              </g>
              <g id="Group_4" data-name="Group 4" transform="translate(12.86 56.128)">
                <path id="Path_7" data-name="Path 7" d="M328.758,318.8c-.26-.065-.52-.142-.775-.228l-.555-.188.574-.118a3.374,3.374,0,0,0,.719-.237l.132.29c-.087.039-.175.076-.263.108.082.023.163.045.244.065Z" transform="translate(-327.428 -318.024)" fill="#f7f7f7"/>
              </g>
              <g id="Group_5" data-name="Group 5" transform="translate(15.517 50.438)">
                <path id="Path_8" data-name="Path 8" d="M336.018,305.023l-.232-.218a7.092,7.092,0,0,0,1.007-1.4l.278.155A7.378,7.378,0,0,1,336.018,305.023Zm1.783-3.106-.3-.1a12.125,12.125,0,0,0,.453-1.686l.313.06A12.438,12.438,0,0,1,337.8,301.917Z" transform="translate(-335.786 -300.126)" fill="#f7f7f7"/>
              </g>
              <g id="Group_6" data-name="Group 6" transform="translate(17.259 47.478)">
                <path id="Path_9" data-name="Path 9" d="M342.217,292.053l-.318-.014c.01-.23.013-.457.009-.677q-.324-.123-.644-.252l.119-.3q.366.148.737.288l.1.038,0,.107C342.231,291.506,342.229,291.777,342.217,292.053Z" transform="translate(-341.264 -290.815)" fill="#f7f7f7"/>
              </g>
              <g id="Group_7" data-name="Group 7">
                <path id="Path_10" data-name="Path 10" d="M317.834,191.661l-.009-.318c.529-.015,1.061-.043,1.582-.082l.024.317C318.905,191.618,318.368,191.646,317.834,191.661Zm3.188-.243-.039-.315c.521-.065,1.048-.144,1.567-.234l.055.313C322.081,191.274,321.549,191.353,321.022,191.419Zm3.151-.55-.07-.31c.517-.117,1.033-.247,1.536-.387l.085.306C325.217,190.62,324.695,190.752,324.173,190.869Zm3.081-.858-.1-.3c.5-.166,1-.347,1.489-.54l.116.3C328.264,189.66,327.758,189.843,327.254,190.011Zm2.978-1.168-.132-.289c.48-.218.959-.451,1.424-.692l.147.282C331.2,188.388,330.718,188.624,330.233,188.844Zm-27.465-.228c-.481-.223-.964-.462-1.434-.71l.148-.281c.465.245.942.482,1.419.7Zm30.3-1.248-.162-.274c.454-.268.9-.552,1.34-.843l.177.265C333.986,186.81,333.53,187.1,333.072,187.368Zm-33.133-.244c-.458-.273-.914-.561-1.353-.854l.177-.265c.435.291.885.575,1.339.845Zm35.792-1.537-.192-.254c.421-.318.836-.651,1.234-.99l.206.242C336.576,184.928,336.156,185.265,335.731,185.587Zm-38.451-.243c-.426-.319-.848-.654-1.254-1l.2-.243c.4.337.819.668,1.24.984Zm40.886-1.834-.22-.229c.381-.367.752-.748,1.1-1.132l.234.215C338.928,182.752,338.552,183.138,338.166,183.51Zm-43.336-.224c-.387-.364-.768-.744-1.134-1.13l.231-.219c.361.381.738.757,1.121,1.117Zm45.5-2.135-.248-.2c.33-.409.649-.834.949-1.262l.26.182C340.985,180.306,340.661,180.736,340.327,181.151Zm-47.7-.19c-.343-.409-.677-.832-.993-1.257l.255-.189c.312.421.642.838.981,1.242Zm49.534-2.429-.272-.165c.273-.453.532-.917.769-1.379l.283.145C342.7,177.6,342.44,178.072,342.163,178.532Zm-51.44-.145c-.29-.448-.568-.91-.827-1.373l.278-.155c.255.457.53.912.817,1.355Zm52.9-2.7-.293-.125c.206-.484.4-.98.567-1.475l.3.1C344.026,174.688,343.833,175.192,343.623,175.683Zm-54.463-.093c-.229-.483-.443-.978-.637-1.471l.3-.116c.191.486.4.974.629,1.451Zm55.5-2.94-.307-.081c.133-.507.249-1.025.344-1.541l.313.058C344.914,171.609,344.8,172.135,344.662,172.65Zm-56.672-.042c-.159-.508-.3-1.028-.424-1.545l.309-.073c.121.51.262,1.023.419,1.524Zm57.254-3.107-.316-.034q.042-.385.071-.774t.044-.8l.318.011q-.015.405-.044.813T345.244,169.5Zm-57.99-.01c-.084-.525-.15-1.06-.2-1.59l.317-.027c.045.523.11,1.05.193,1.567Zm57.788-3.18c-.02-.523-.059-1.053-.118-1.575l.316-.035c.059.529.1,1.067.12,1.6ZM286.98,166.3l0-.258c0-.446.014-.9.042-1.345l.317.02c-.027.44-.041.886-.041,1.325l0,.254Zm57.712-3.122c-.1-.512-.212-1.03-.346-1.539l.307-.081c.136.517.254,1.042.351,1.562Zm-57.2-.032-.315-.043c.072-.529.164-1.06.274-1.579l.311.066C287.653,162.1,287.562,162.623,287.491,163.144Zm56.4-3.019c-.169-.5-.358-.993-.562-1.477l.293-.123c.206.491.4,1,.57,1.5Zm-55.744-.068-.306-.088c.148-.51.317-1.022.5-1.523l.3.111C288.457,159.05,288.29,159.555,288.145,160.057Zm54.52-2.845c-.235-.466-.49-.934-.758-1.389l.274-.162c.272.461.53.935.768,1.408Zm-53.421-.116-.289-.132c.22-.482.46-.964.716-1.433l.279.152C289.7,156.145,289.46,156.621,289.244,157.1Zm51.815-2.611c-.292-.43-.6-.861-.929-1.28l.251-.195c.328.424.645.86.941,1.3Zm-50.306-.162-.268-.171c.285-.447.589-.89.905-1.319l.256.189C291.334,153.444,291.033,153.882,290.752,154.323Zm48.371-2.338c-.346-.394-.708-.784-1.078-1.159l.227-.223c.374.379.74.774,1.09,1.172Zm-46.5-.2-.243-.205c.34-.4.7-.8,1.07-1.191l.23.22C293.315,150.986,292.96,151.382,292.623,151.781Zm44.279-2.05c-.388-.35-.793-.7-1.2-1.028l.2-.247c.415.335.825.685,1.217,1.04Zm-42.093-.234-.215-.234c.388-.359.8-.712,1.209-1.05l.2.246C295.6,148.794,295.193,149.143,294.809,149.5Zm39.631-1.754c-.425-.307-.866-.607-1.309-.891l.172-.267c.448.288.893.591,1.323.9Zm-37.183-.248-.186-.258c.427-.309.872-.613,1.323-.9l.171.267C298.12,146.889,297.68,147.189,297.258,147.495Zm34.52-1.464c-.455-.26-.924-.512-1.4-.75l.143-.284c.476.24.95.495,1.409.757Zm-31.856-.245-.156-.277c.462-.261.938-.513,1.414-.75l.141.285C300.849,145.278,300.379,145.527,299.921,145.786Zm29.029-1.183c-.477-.212-.97-.415-1.463-.605l.114-.3c.5.192,1,.4,1.478.611Zm-26.194-.224-.126-.292c.485-.21.984-.41,1.485-.6l.11.3C303.731,143.973,303.236,144.171,302.756,144.379ZM326,143.466c-.5-.164-1.009-.319-1.516-.458l.084-.306c.512.141,1.027.3,1.531.463Zm-20.271-.19-.095-.3c.507-.159,1.024-.307,1.537-.441l.08.307C306.739,142.972,306.226,143.118,305.724,143.276Zm17.218-.653c-.513-.115-1.035-.22-1.554-.311l.055-.313c.523.092,1.05.2,1.568.314Zm-14.153-.143-.065-.311c.518-.107,1.047-.2,1.574-.286l.049.314C309.827,142.278,309.3,142.374,308.79,142.48Zm11.033-.405c-.52-.066-1.05-.122-1.576-.164l.025-.317c.53.043,1.066.1,1.591.166Zm-7.9-.085-.034-.316c.528-.057,1.064-.1,1.594-.133l.019.318C312.973,141.889,312.441,141.933,311.919,141.989Zm4.746-.17q-.8-.027-1.584-.018l0-.318q.8-.011,1.6.018Z" transform="translate(-286.978 -141.48)" fill="#f7f7f7"/>
              </g>
            </g>
          </g>
          <g id="Group_18" data-name="Group 18" transform="translate(24.249 0.527)">
            <g id="Group_10" data-name="Group 10" transform="translate(0 0)">
              <path id="Path_11" data-name="Path 11" d="M307.883,182.324c-.679-9.268-5.664-17.341-13.178-22.911-7.168,4.336-12.044,11.324-12.644,19.5-.009.128-.012.256-.019.384.6,10.109,7.858,18.994,18.268,23.163a13.5,13.5,0,0,1-.419,2.475l.1.043A30.981,30.981,0,0,0,307.883,182.324Z" transform="translate(-224.34 -144.42)" fill="#201c66" style="mix-blend-mode: multiply;isolation: isolate"/>
              <ellipse id="Ellipse_1" data-name="Ellipse 1" cx="39.372" cy="33.756" rx="39.372" ry="33.756" transform="translate(0 5.755) rotate(-4.191)" fill="#201c66"/>
              <path id="Path_12" data-name="Path 12" d="M120.288,163.052c-1.15-15.7,12.947-29.523,31.488-30.883,16.838-1.234,31.55,8.24,34.971,21.748,0-.693-.025-1.39-.076-2.091-1.363-18.593-20.048-32.377-41.733-30.788s-38.162,17.951-36.8,36.544C109.42,175.059,126,188.285,146,188.491,132.006,185.934,121.226,175.847,120.288,163.052Z" transform="translate(-105.672 -118.162)" fill="#231e7f"/>
              <path id="Path_13" data-name="Path 13" d="M226.051,306.582s10.795,17.846,27.13,8.614c-9.534,1.37-10.619-10.452-8.474-17.574Z" transform="translate(-186.15 -238.689)" fill="#201c66"/>
            </g>
            <g id="Group_17" data-name="Group 17" transform="translate(4.491 4.91)">
              <g id="Group_11" data-name="Group 11" transform="translate(37.454 63.65)">
                <path id="Path_14" data-name="Path 14" d="M233.65,328.786c-.191-.231-.342-.42-.45-.558q-.358.015-.715.024l-.008-.318q.395-.01.792-.027l.082,0,.05.065c.107.139.273.349.493.615Z" transform="translate(-232.477 -327.903)" fill="#f7f7f7"/>
              </g>
              <g id="Group_12" data-name="Group 12" transform="translate(39.679 65.511)">
                <path id="Path_15" data-name="Path 15" d="M253.235,341.192v-.318a12,12,0,0,0,1.558-.106l.042.315A12.27,12.27,0,0,1,253.235,341.192Zm-1.6-.1a13.69,13.69,0,0,1-1.575-.292l.076-.309a13.349,13.349,0,0,0,1.538.285Zm-3.105-.756c-.489-.176-.986-.383-1.475-.613l.135-.287c.481.226.968.429,1.448.6Zm-2.891-1.353c-.449-.258-.9-.543-1.353-.846l.178-.263c.443.3.891.579,1.333.834Zm-2.645-1.781c-.413-.32-.828-.661-1.231-1.013l.209-.24c.4.348.809.685,1.217,1Zm-2.4-2.092c-.381-.369-.755-.753-1.115-1.138l.233-.217c.356.382.727.762,1.1,1.127Z" transform="translate(-239.476 -333.757)" fill="#f7f7f7"/>
              </g>
              <g id="Group_13" data-name="Group 13" transform="translate(56.514 71.757)">
                <path id="Path_16" data-name="Path 16" d="M292.53,354.165l-.083-.307.237-.066c-.085-.029-.17-.06-.253-.093l.119-.3a4.3,4.3,0,0,0,.732.222l.574.118-.555.188C293.049,354.016,292.79,354.095,292.53,354.165Z" transform="translate(-292.43 -353.403)" fill="#f7f7f7"/>
              </g>
              <g id="Group_14" data-name="Group 14" transform="translate(51.455 63.589)">
                <path id="Path_17" data-name="Path 17" d="M280.107,335.276a7.647,7.647,0,0,1-1.169-1.248l.254-.192a7.288,7.288,0,0,0,1.119,1.2Zm-2.075-2.689a13.36,13.36,0,0,1-.689-1.551l.3-.111a13.064,13.064,0,0,0,.672,1.514Zm-1.19-3.17a16.179,16.179,0,0,1-.326-1.663l.315-.045a15.725,15.725,0,0,0,.32,1.63Z" transform="translate(-276.517 -327.71)" fill="#f7f7f7"/>
              </g>
              <g id="Group_15" data-name="Group 15" transform="translate(51.303 60.708)">
                <path id="Path_18" data-name="Path 18" d="M276.044,319.884c-.008-.273-.008-.544,0-.8l0-.107.1-.038q.372-.14.739-.286l.117.3q-.32.128-.644.25c0,.221,0,.449,0,.679Z" transform="translate(-276.038 -318.65)" fill="#f7f7f7"/>
              </g>
              <g id="Group_16" data-name="Group 16">
                <path id="Path_19" data-name="Path 19" d="M150.482,191.71c-.534-.007-1.07-.024-1.593-.05l.016-.317c.519.025,1.051.042,1.582.049Zm-3.184-.159c-.527-.045-1.06-.1-1.585-.168l.039-.315c.521.065,1.05.121,1.573.167Zm-3.163-.4c-.522-.085-1.05-.182-1.568-.287l.063-.312c.514.1,1.038.2,1.556.286Zm-3.124-.635c-.519-.127-1.038-.264-1.541-.408l.087-.306c.5.142,1.014.279,1.53.4Zm-3.066-.876c-.505-.166-1.012-.344-1.5-.528l.112-.3c.489.183.991.359,1.492.525Zm-2.986-1.117c-.488-.206-.979-.424-1.457-.649l.135-.287c.474.223.96.439,1.445.643Zm33.451-.441-.129-.291c.481-.213.963-.439,1.433-.671l.14.285C169.38,187.644,168.894,187.871,168.41,188.086Zm-36.336-.917c-.468-.244-.938-.5-1.4-.768l.159-.275c.456.263.922.52,1.386.761Zm39.2-.492-.151-.279c.461-.251.924-.514,1.375-.783l.163.273C172.2,186.16,171.735,186.426,171.27,186.678Zm-41.958-1.1c-.447-.285-.893-.583-1.326-.887l.182-.26c.429.3.871.6,1.314.879Zm44.7-.529-.174-.266c.439-.286.878-.587,1.305-.892l.185.258C174.895,184.452,174.451,184.755,174.009,185.044Zm-47.308-1.3c-.421-.324-.838-.662-1.241-1l.206-.243c.4.338.813.672,1.229.994Zm49.9-.552-.2-.251c.412-.321.824-.658,1.225-1l.206.242C177.435,182.526,177.019,182.865,176.6,183.189Zm-52.336-1.51c-.39-.363-.774-.739-1.141-1.115l.228-.222c.364.373.744.745,1.13,1.1Zm54.762-.56-.217-.233c.383-.357.764-.728,1.132-1.1l.227.223C179.8,180.384,179.416,180.759,179.03,181.119Zm-56.989-1.724c-.351-.4-.7-.808-1.024-1.22l.249-.2c.325.407.666.814,1.014,1.207Zm59.224-.556-.237-.212c.349-.391.7-.8,1.027-1.2l.247.2C181.966,178.036,181.617,178.445,181.265,178.839ZM120.056,176.9c-.31-.433-.611-.877-.894-1.319l.268-.172c.28.437.577.877.884,1.306Zm63.223-.545-.256-.189c.312-.424.617-.86.906-1.3l.265.176C183.9,175.491,183.595,175.931,183.279,176.36Zm-64.939-2.141c-.261-.462-.513-.936-.747-1.409l.285-.141c.232.468.481.937.74,1.393Zm66.7-.522-.273-.162c.267-.451.527-.916.771-1.38l.281.148C185.576,172.772,185.314,173.241,185.044,173.7Zm-68.12-2.336c-.209-.489-.407-.989-.587-1.485l.3-.108c.178.491.373.985.58,1.469Zm69.6-.491-.289-.133c.219-.477.428-.966.621-1.453l.3.117C186.961,169.893,186.75,170.387,186.528,170.869Zm-70.693-2.512c-.152-.51-.292-1.03-.414-1.545l.309-.073c.121.509.258,1.023.409,1.527ZM187.7,167.9l-.3-.1c.166-.5.32-1,.458-1.511l.307.084C188.027,166.885,187.871,167.4,187.7,167.9ZM115.1,165.249c-.092-.521-.171-1.052-.233-1.579l.316-.037c.062.521.139,1.046.23,1.561Zm73.447-.427-.311-.066c.109-.511.205-1.033.285-1.552l.314.049C188.752,163.777,188.655,164.305,188.544,164.822Zm-73.821-2.743c-.032-.53-.049-1.067-.051-1.6h.318c0,.523.018,1.054.05,1.578Zm74.308-.409-.317-.031c.051-.519.086-1.049.106-1.575l.318.012C189.117,160.609,189.082,161.145,189.031,161.67Zm-74-2.767-.317-.017c.029-.53.073-1.065.133-1.591l.316.036C115.1,157.85,115.059,158.38,115.03,158.9Zm73.8-.417c-.01-.489-.032-.987-.068-1.479l-.008-.1.317-.024.008.1c.036.5.059,1,.069,1.5Zm-73.451-2.718-.313-.054c.089-.521.195-1.046.313-1.563l.31.072C115.576,154.734,115.471,155.253,115.383,155.768Zm73.21-.429c-.07-.516-.156-1.04-.256-1.557l.312-.06c.1.523.188,1.053.258,1.575Zm-72.5-2.642-.305-.089c.148-.509.312-1.02.487-1.519l.3.105C116.4,151.688,116.236,152.194,116.09,152.7Zm71.9-.455c-.129-.509-.275-1.02-.434-1.52l.3-.1c.161.506.308,1.023.439,1.538Zm-70.856-2.523-.294-.122c.2-.488.421-.979.65-1.459l.287.137C117.553,148.75,117.336,149.236,117.136,149.719Zm69.9-.489c-.186-.489-.389-.98-.6-1.459l.29-.13c.217.485.422.981.611,1.476ZM118.5,146.866l-.279-.152c.251-.463.521-.929.8-1.385l.271.166C119.015,145.948,118.748,146.409,118.5,146.866Zm67.252-.518c-.239-.464-.495-.929-.761-1.382l.274-.161c.269.458.527.928.769,1.4Zm-65.6-2.182-.263-.179c.3-.435.611-.87.932-1.295l.253.192C120.756,143.3,120.446,143.736,120.152,144.167Zm64-.539c-.289-.437-.593-.871-.9-1.292l.256-.189c.314.425.622.864.913,1.306Zm-62.1-1.98-.244-.2c.339-.406.693-.81,1.051-1.2l.234.215C122.745,140.845,122.395,141.246,122.059,141.648Zm60.225-.556c-.332-.4-.68-.807-1.033-1.2l.235-.214c.357.393.708.8,1.043,1.207ZM124.2,139.319l-.224-.225c.374-.372.762-.741,1.156-1.1l.214.235C124.951,138.584,124.566,138.951,124.2,139.319Zm55.964-.566c-.368-.368-.754-.734-1.145-1.089l.214-.236c.395.358.784.728,1.156,1.1Zm-53.626-1.561-.2-.244c.405-.337.825-.672,1.248-.994l.193.253C127.353,136.526,126.936,136.857,126.534,137.192Zm51.285-.561c-.4-.333-.822-.662-1.242-.978l.19-.254c.424.319.846.65,1.254.987Zm-48.77-1.355-.182-.261c.432-.3.878-.6,1.327-.885l.171.268C129.92,134.681,129.478,134.976,129.049,135.275Zm46.242-.542c-.434-.3-.88-.587-1.325-.863l.168-.27c.449.278.9.571,1.337.87Zm-43.575-1.158-.16-.275c.457-.265.926-.526,1.395-.773l.148.281C132.635,133.054,132.17,133.312,131.716,133.575Zm40.889-.509c-.459-.258-.928-.508-1.4-.746l.144-.283c.471.239.944.492,1.407.752Zm-38.092-.969-.137-.287c.478-.229.967-.451,1.452-.66l.126.292C135.471,131.65,134.987,131.87,134.512,132.1Zm35.272-.463c-.478-.218-.967-.429-1.452-.627l.12-.294c.49.2.982.412,1.464.632Zm-32.367-.79-.114-.3c.494-.19,1-.374,1.5-.545l.1.3C138.408,130.474,137.907,130.656,137.417,130.845Zm29.439-.4c-.493-.178-1-.348-1.5-.507l.1-.3c.505.16,1.013.332,1.51.512Zm-26.445-.62-.091-.3c.508-.152,1.024-.3,1.535-.429l.08.308C141.427,129.527,140.914,129.67,140.411,129.821Zm23.429-.335c-.5-.138-1.02-.268-1.534-.388l.072-.309c.517.12,1.037.251,1.545.391Zm-20.367-.46-.068-.31c.518-.114,1.044-.219,1.563-.313l.057.313C144.509,128.809,143.987,128.914,143.473,129.026Zm17.286-.256c-.514-.1-1.039-.189-1.559-.269l.048-.314c.525.08,1.053.171,1.571.271Zm-14.173-.308-.045-.315c.521-.075,1.053-.141,1.582-.2l.034.316C147.632,128.322,147.1,128.388,146.586,128.462Zm11.045-.169c-.522-.059-1.052-.11-1.575-.15l.024-.317c.527.04,1.061.091,1.587.151Zm-7.9-.167-.023-.317c.528-.037,1.063-.065,1.592-.083l.011.318C150.788,128.062,150.256,128.09,149.733,128.126Zm4.744-.075c-.524-.02-1.056-.031-1.582-.033V127.7c.53,0,1.066.012,1.594.033Z" transform="translate(-114.672 -127.701)" fill="#f7f7f7"/>
              </g>
            </g>
          </g>
          <g id="Group_19" data-name="Group 19" transform="translate(53.977 16.568)">
            <path id="Path_20" data-name="Path 20" d="M205.855,162.709a11.817,11.817,0,0,1,8.8,3.459,11.105,11.105,0,0,1,3.408,8.038,10.246,10.246,0,0,1-.788,4.044,8.68,8.68,0,0,1-1.908,2.925,15.277,15.277,0,0,1-2.264,1.806,11.872,11.872,0,0,1-1.908,1.042l-.814.254c0,.577-.026,7.314-.077,7.619a2.438,2.438,0,0,1-.458.992,2.151,2.151,0,0,1-1.272.763,9.841,9.841,0,0,1-2.365.229,8.837,8.837,0,0,1-2.366-.255,1.985,1.985,0,0,1-1.246-.864,3.222,3.222,0,0,1-.432-1.094c-.051-.322-.076-7.118-.076-7.8a1.019,1.019,0,0,1,.025-.178,1.182,1.182,0,0,0,.025-.229,4.728,4.728,0,0,1,1.246-3.459,6.073,6.073,0,0,1,2.722-1.679,7.775,7.775,0,0,0,2.721-1.374,3.062,3.062,0,0,0,1.247-2.543,3.526,3.526,0,0,0-.941-2.645,4.659,4.659,0,0,0-3.281-.916,4.148,4.148,0,0,0-2.315.585,2.522,2.522,0,0,0-1.094,1.2l-.153.61a5.958,5.958,0,0,1-1.068,2.009,2.194,2.194,0,0,1-1.73.687,6.044,6.044,0,0,1-2.035-.457A8.514,8.514,0,0,1,194.791,174a2.153,2.153,0,0,1-.738-1.577,7.643,7.643,0,0,1,.407-1.78l.1-.254q.1-.306.305-.84a11.434,11.434,0,0,1,1.094-1.857A11.654,11.654,0,0,1,198,165.38a11.5,11.5,0,0,1,3.23-1.831A12.287,12.287,0,0,1,205.855,162.709Zm.254,33.033q2.746,0,3.815,1.068.915.916.915,3.764a12.239,12.239,0,0,1-.1,1.806,4.865,4.865,0,0,1-.509,1.424,2.319,2.319,0,0,1-1.45,1.119,9.21,9.21,0,0,1-2.722.331,5.662,5.662,0,0,1-3.866-1.069,4.086,4.086,0,0,1-.864-2.95v-.814a15.493,15.493,0,0,1,.076-1.781,4.3,4.3,0,0,1,.483-1.4,2.414,2.414,0,0,1,1.45-1.145A8.832,8.832,0,0,1,206.109,195.742Z" transform="translate(-194.053 -162.709)" fill="#fff"/>
          </g>
          <g id="Group_20" data-name="Group 20" transform="translate(105.173 18.711)">
            <path id="Path_21" data-name="Path 21" d="M363.912,169.45a8.84,8.84,0,0,1,6.583,2.588,8.307,8.307,0,0,1,2.549,6.012,7.663,7.663,0,0,1-.589,3.025,6.487,6.487,0,0,1-1.428,2.188,11.424,11.424,0,0,1-1.693,1.351,8.877,8.877,0,0,1-1.427.78l-.609.19c0,.432-.019,5.471-.058,5.7a1.819,1.819,0,0,1-.342.742,1.611,1.611,0,0,1-.951.571,7.382,7.382,0,0,1-1.77.171,6.6,6.6,0,0,1-1.769-.19,1.487,1.487,0,0,1-.932-.646,2.417,2.417,0,0,1-.323-.818c-.038-.241-.057-5.325-.057-5.833a.777.777,0,0,1,.019-.133.875.875,0,0,0,.019-.171,3.539,3.539,0,0,1,.932-2.588,4.54,4.54,0,0,1,2.036-1.256,5.816,5.816,0,0,0,2.035-1.028,2.289,2.289,0,0,0,.933-1.9,2.638,2.638,0,0,0-.7-1.979,3.484,3.484,0,0,0-2.454-.685,3.1,3.1,0,0,0-1.732.437,1.888,1.888,0,0,0-.818.894l-.114.457a4.458,4.458,0,0,1-.8,1.5,1.642,1.642,0,0,1-1.294.514,4.522,4.522,0,0,1-1.522-.342,6.374,6.374,0,0,1-2-1.1,1.611,1.611,0,0,1-.552-1.18,5.707,5.707,0,0,1,.3-1.332l.076-.19q.076-.229.228-.628a8.532,8.532,0,0,1,.818-1.389,8.711,8.711,0,0,1,1.522-1.731,8.6,8.6,0,0,1,2.417-1.37A9.19,9.19,0,0,1,363.912,169.45Zm.19,24.71a4,4,0,0,1,2.854.8,4.115,4.115,0,0,1,.685,2.816,9.187,9.187,0,0,1-.076,1.351,3.644,3.644,0,0,1-.381,1.066,1.734,1.734,0,0,1-1.085.837,6.859,6.859,0,0,1-2.036.248,4.234,4.234,0,0,1-2.892-.8,3.056,3.056,0,0,1-.647-2.207v-.609a11.571,11.571,0,0,1,.057-1.332,3.21,3.21,0,0,1,.362-1.047,1.8,1.8,0,0,1,1.084-.856A6.6,6.6,0,0,1,364.1,194.16Z" transform="translate(-355.083 -169.45)" fill="#fff"/>
          </g>
          <g id="Group_30" data-name="Group 30">
            <path id="Path_22" data-name="Path 22" d="M108.147,174.139q.019.437.051.876a29.245,29.245,0,0,0,1.332,6.837c2.766,2.686,7.652,5.663,13.869,2.15-3.8.546-5.38-2.383-5.64-5.674,8.827-3.535,14.721-11.463,14.08-20.21a18.443,18.443,0,0,0-5.433-11.646C115.719,152.5,108.613,162.739,108.147,174.139Z" transform="translate(-81.482 -135.066)" fill="#77dbdb" style="mix-blend-mode: multiply;isolation: isolate"/>
            <g id="Group_22" data-name="Group 22">
              <g id="Group_21" data-name="Group 21">
                <path id="Path_23" data-name="Path 23" d="M71.772,129.274c.823,11.234-9.131,21.119-22.233,22.079s-24.392-7.368-25.215-18.6,9.131-21.118,22.233-22.079S70.949,118.04,71.772,129.274Z" transform="translate(-24.276 -110.597)" fill="#f47d31"/>
                <path id="Path_24" data-name="Path 24" d="M31.492,135.963c-.779-10.63,7.882-19.929,19.346-20.769,9.057-.663,17.148,4.153,20.533,11.447-2.247-9.87-12.76-16.851-24.814-15.968-13.1.96-23.056,10.845-22.233,22.079.626,8.545,7.309,15.4,16.238,17.777A18.8,18.8,0,0,1,31.492,135.963Z" transform="translate(-24.276 -110.597)" fill="#ffa368"/>
                <path id="Path_25" data-name="Path 25" d="M95.564,222.775s6.523,10.782,16.392,5.2c-5.76.827-6.416-6.315-5.12-10.618Z" transform="translate(-72.9 -183.418)" fill="#f47d31"/>
              </g>
            </g>
            <g id="Group_29" data-name="Group 29" transform="translate(1.222 1.241)">
              <g id="Group_23" data-name="Group 23" transform="translate(22.362 38.455)">
                <path id="Path_26" data-name="Path 26" d="M99.638,236.335c-.2-.233-.354-.423-.458-.555q-.36.014-.718.019l0-.318q.393-.005.79-.022l.083,0,.05.066c.1.128.266.338.5.607Z" transform="translate(-98.458 -235.455)" fill="#f7f7f7"/>
              </g>
              <g id="Group_24" data-name="Group 24" transform="translate(24.714 40.34)">
                <path id="Path_27" data-name="Path 27" d="M113.383,245.241a8.037,8.037,0,0,1-1.706-.205l.071-.31a7.693,7.693,0,0,0,1.638.2Zm-3.333-.741a11.867,11.867,0,0,1-1.516-.791l.167-.271a11.509,11.509,0,0,0,1.474.769Zm-2.913-1.769c-.434-.342-.866-.719-1.283-1.12l.22-.229c.41.394.834.764,1.26,1.1Z" transform="translate(-105.854 -241.382)" fill="#f7f7f7"/>
              </g>
              <g id="Group_25" data-name="Group 25" transform="translate(33.869 43.234)">
                <path id="Path_28" data-name="Path 28" d="M134.739,251.267l-.07-.31c.085-.019.17-.04.255-.063a3.019,3.019,0,0,1-.274-.129l.15-.28a2.613,2.613,0,0,0,.7.257l.574.118-.555.188A7.77,7.77,0,0,1,134.739,251.267Z" transform="translate(-134.65 -250.485)" fill="#f7f7f7"/>
              </g>
              <g id="Group_26" data-name="Group 26" transform="translate(31.178 39.052)">
                <path id="Path_29" data-name="Path 29" d="M127.832,240.953a5.879,5.879,0,0,1-.759-1.087l.278-.154a5.551,5.551,0,0,0,.718,1.028Zm-1.295-2.291a9.608,9.608,0,0,1-.351-1.266l.312-.064a9.327,9.327,0,0,0,.339,1.224Z" transform="translate(-126.186 -237.332)" fill="#f7f7f7"/>
              </g>
              <g id="Group_27" data-name="Group 27" transform="translate(30.981 36.567)">
                <path id="Path_30" data-name="Path 30" d="M125.587,230.757c-.018-.274-.023-.546-.015-.809l0-.107.1-.038q.371-.139.735-.29l.121.294q-.32.132-.644.255c0,.22,0,.446.017.673Z" transform="translate(-125.568 -229.514)" fill="#f7f7f7"/>
              </g>
              <g id="Group_28" data-name="Group 28">
                <path id="Path_31" data-name="Path 31" d="M48.851,153.269c-.527-.026-1.058-.068-1.579-.126l.035-.316c.514.057,1.039.1,1.559.125Zm-3.147-.349c-.519-.09-1.041-.2-1.551-.321l.074-.309c.5.121,1.019.228,1.531.317Zm-3.079-.74c-.5-.156-1.008-.33-1.5-.518l.114-.3c.483.185.98.357,1.478.511Zm-2.958-1.133c-.479-.222-.956-.462-1.415-.714l.153-.279c.453.249.923.485,1.4.7Zm21.844-.339-.14-.286c.469-.23.933-.477,1.38-.734l.159.276C62.456,150.224,61.985,150.475,61.51,150.708Zm-24.622-1.185c-.445-.287-.883-.592-1.3-.907l.191-.254c.412.31.843.611,1.282.893Zm27.367-.4-.176-.264c.432-.289.859-.6,1.269-.913l.194.251C65.128,148.523,64.695,148.834,64.256,149.127Zm-29.9-1.512c-.4-.35-.785-.718-1.149-1.093l.228-.222c.359.369.74.732,1.132,1.076Zm32.4-.427-.212-.237c.39-.349.769-.713,1.126-1.084l.229.221C67.542,146.464,67.158,146.834,66.762,147.188ZM32.149,145.34c-.337-.409-.659-.835-.957-1.265l.261-.181c.293.423.609.842.941,1.244Zm36.813-.435-.245-.2c.333-.4.652-.819.948-1.242l.26.183C69.625,144.073,69.3,144.5,68.963,144.905Zm-38.614-2.174c-.262-.461-.505-.936-.722-1.414l.289-.131c.213.469.451.936.709,1.388Zm40.437-.422-.274-.161c.263-.449.51-.913.732-1.379l.287.137C71.3,141.38,71.053,141.852,70.785,142.309Zm-41.748-2.466c-.173-.5-.325-1.013-.45-1.524l.309-.075c.122.5.271,1,.441,1.495Zm43.113-.4-.3-.111c.182-.486.342-.986.478-1.484l.307.083C72.5,138.441,72.335,138.949,72.15,139.445ZM28.283,136.76c-.058-.4-.1-.807-.132-1.209-.01-.124-.017-.248-.023-.371l.318-.016q.009.182.023.364c.029.4.073.794.13,1.186Zm44.7-.376-.313-.055c.089-.511.155-1.031.2-1.546l.317.025C73.142,135.333,73.074,135.863,72.983,136.384ZM28.439,133.6l-.318-.014c.023-.527.071-1.059.143-1.581l.315.043C28.508,132.566,28.461,133.088,28.439,133.6Zm44.476-.38c-.005-.315-.019-.635-.042-.952q-.022-.3-.055-.6l.316-.035q.033.306.056.615c.024.323.038.65.043.97Zm-44.05-2.7-.309-.073c.12-.512.267-1.026.435-1.527l.3.1C29.127,129.515,28.983,130.02,28.865,130.522Zm43.709-.391c-.1-.506-.235-1.014-.387-1.509l.3-.093c.155.5.288,1.022.395,1.538Zm-42.722-2.563-.291-.127c.21-.48.445-.96.7-1.426l.279.152C30.29,126.625,30.058,127.1,29.852,127.568Zm41.807-.413c-.2-.477-.419-.952-.661-1.412l.282-.148c.246.469.472.953.673,1.438Zm-40.317-2.327-.266-.175c.288-.437.6-.871.925-1.289l.251.2C31.931,123.971,31.625,124.4,31.342,124.828Zm38.871-.431c-.279-.433-.582-.862-.9-1.273l.251-.194c.324.419.632.855.916,1.3Zm-36.954-2.031-.235-.214c.353-.388.727-.768,1.111-1.131l.218.231C33.975,121.609,33.607,121.984,33.259,122.366Zm35.051-.436c-.348-.381-.718-.754-1.1-1.109l.217-.233c.387.361.763.74,1.117,1.127Zm-32.782-1.71-.2-.246c.405-.331.829-.654,1.262-.959l.183.259C36.345,119.575,35.926,119.894,35.527,120.22Zm30.5-.42c-.4-.322-.826-.634-1.256-.929l.179-.262c.437.3.866.616,1.275.943Zm-27.951-1.385-.166-.271c.446-.272.91-.534,1.38-.779l.147.282C38.976,117.889,38.518,118.148,38.078,118.416Zm25.374-.379c-.445-.26-.908-.509-1.377-.74l.141-.285c.475.235.945.487,1.4.751Zm-22.6-1.068-.129-.291c.48-.212.975-.412,1.469-.594l.109.3C41.81,116.562,41.322,116.759,40.848,116.969Zm19.8-.316c-.478-.2-.97-.381-1.465-.547l.1-.3c.5.169,1,.355,1.484.555Zm-16.868-.764-.091-.3c.5-.15,1.018-.286,1.531-.405l.072.31C44.787,115.607,44.279,115.742,43.782,115.89Zm13.906-.234c-.5-.133-1.012-.252-1.524-.354l.062-.312c.518.1,1.037.224,1.543.358Zm-10.859-.473-.053-.313c.516-.087,1.044-.16,1.568-.217l.034.316C47.86,115.025,47.339,115.1,46.829,115.183Zm7.793-.138c-.515-.069-1.038-.123-1.556-.161l.023-.317c.524.038,1.055.092,1.576.163Zm-4.683-.2-.015-.318c.434-.021.874-.03,1.307-.031l.276,0,0,.318-.3,0C50.781,114.817,50.357,114.827,49.938,114.847Z" transform="translate(-28.121 -114.499)" fill="#f7f7f7"/>
              </g>
            </g>
          </g>
          <g id="Group_31" data-name="Group 31" transform="translate(16.798 8.059)">
            <path id="Path_32" data-name="Path 32" d="M83.968,135.946a6.864,6.864,0,0,1,5.112,2.01,6.448,6.448,0,0,1,1.98,4.668,5.949,5.949,0,0,1-.457,2.349,5.045,5.045,0,0,1-1.108,1.7,8.868,8.868,0,0,1-1.315,1.049,6.887,6.887,0,0,1-1.108.606l-.472.148c0,.335-.015,4.248-.045,4.426a1.408,1.408,0,0,1-.266.576,1.251,1.251,0,0,1-.739.444,5.73,5.73,0,0,1-1.374.133A5.132,5.132,0,0,1,82.8,153.9a1.153,1.153,0,0,1-.724-.5,1.86,1.86,0,0,1-.251-.636c-.03-.187-.045-4.135-.045-4.529a.587.587,0,0,1,.015-.1.68.68,0,0,0,.015-.133,2.748,2.748,0,0,1,.724-2.01,3.529,3.529,0,0,1,1.581-.975,4.515,4.515,0,0,0,1.58-.8,1.779,1.779,0,0,0,.724-1.477,2.049,2.049,0,0,0-.547-1.537,2.706,2.706,0,0,0-1.906-.532,2.408,2.408,0,0,0-1.345.34,1.466,1.466,0,0,0-.635.694l-.089.354a3.463,3.463,0,0,1-.62,1.167,1.276,1.276,0,0,1-1,.4,3.508,3.508,0,0,1-1.182-.266,4.941,4.941,0,0,1-1.551-.857,1.251,1.251,0,0,1-.429-.916,4.455,4.455,0,0,1,.236-1.034l.059-.148c.039-.119.1-.281.177-.488a6.6,6.6,0,0,1,.635-1.078A6.763,6.763,0,0,1,79.4,137.5a6.685,6.685,0,0,1,1.877-1.064A7.141,7.141,0,0,1,83.968,135.946Zm.148,19.188a3.1,3.1,0,0,1,2.216.62,3.194,3.194,0,0,1,.532,2.186,7.119,7.119,0,0,1-.059,1.049,2.831,2.831,0,0,1-.3.827,1.349,1.349,0,0,1-.843.65,5.333,5.333,0,0,1-1.581.192,3.29,3.29,0,0,1-2.246-.621,2.376,2.376,0,0,1-.5-1.714v-.472a8.995,8.995,0,0,1,.044-1.034,2.506,2.506,0,0,1,.281-.813,1.4,1.4,0,0,1,.842-.664A5.13,5.13,0,0,1,84.116,155.134Z" transform="translate(-77.113 -135.946)" fill="#fff"/>
          </g>
        </g>
        <g id="Group_33" data-name="Group 33" transform="translate(22.373)">
          <path id="Path_33" data-name="Path 33" d="M179.267,108.792c1.248-.092,2.511-.138,3.755-.138,16.209,0,30.445,7.893,37.565,19.531l.564-.408a37.85,37.85,0,0,0-8.729-9.848,47.027,47.027,0,0,0-29.4-9.911c-1.259,0-2.538.047-3.8.14a49.664,49.664,0,0,0-20.459,6.015l.463.47A49.065,49.065,0,0,1,179.267,108.792Z" transform="translate(-138.378 -104.692)" fill="#f47d31"/>
          <path id="Path_34" data-name="Path 34" d="M277.513,107.3a46.381,46.381,0,0,0-25.235-9.74l-.066.639a45.593,45.593,0,0,1,25.714,10.375l.449-.553C278.09,107.774,277.807,107.531,277.513,107.3Z" transform="translate(-202.117 -97.555)" fill="#f47d31"/>
          <path id="Path_35" data-name="Path 35" d="M116.4,293.213l-.524.487a38.814,38.814,0,0,0,6.425,6.5,45.1,45.1,0,0,0,17.812,8.564l.185-.637A42.844,42.844,0,0,1,116.4,293.213Z" transform="translate(-109.126 -231.008)" fill="#f47d31"/>
          <path id="Path_36" data-name="Path 36" d="M95.263,282.457l-.617.374a39.553,39.553,0,0,0,3.282,4.75,43.482,43.482,0,0,0,8.2,7.814l.428-.55A42.042,42.042,0,0,1,95.263,282.457Z" transform="translate(-94.646 -223.671)" fill="#f47d31"/>
        </g>
      </g>
    </g>
  </g>
</svg>
