<svg xmlns="http://www.w3.org/2000/svg" xmlns:xlink="http://www.w3.org/1999/xlink" width="102.797" height="119.755" viewBox="0 0 102.797 119.755">
  <defs>
    <clipPath id="clip-path">
      <ellipse id="Ellipse_6" data-name="Ellipse 6" cx="12.511" cy="12.019" rx="12.511" ry="12.019" transform="translate(0 13.529) rotate(-32.731)" fill="#dde6f5"/>
    </clipPath>
    <clipPath id="clip-path-3">
      <ellipse id="Ellipse_12" data-name="Ellipse 12" cx="12.511" cy="12.019" rx="12.511" ry="12.019" transform="matrix(0.841, -0.541, 0.541, 0.841, 0, 13.529)" fill="#dde6f5"/>
    </clipPath>
  </defs>
  <g id="Group_136" data-name="Group 136" transform="translate(-733.787 -217.832)">
    <path id="Path_105" data-name="Path 105" d="M1192.524,223.167a5.335,5.335,0,0,0-5.335-5.335h-.377a5.335,5.335,0,0,0-5.335,5.335v4.54h11.047Z" transform="translate(-355.94)" fill="#f47d31"/>
    <path id="Path_106" data-name="Path 106" d="M860.674,217.832H776.606a5.335,5.335,0,0,0-5.335,5.335s.8,113.833.8,114.42h78.277a5.494,5.494,0,0,0,5.755-5.2l-.761-109.223A5.335,5.335,0,0,1,860.674,217.832Z" transform="translate(-29.802)" fill="#f6f6f6"/>
    <g id="Group_12" data-name="Group 12" transform="translate(745.401 223.619)">
      <ellipse id="Ellipse_4" data-name="Ellipse 4" cx="12.068" cy="12.214" rx="12.068" ry="12.214" transform="translate(5.325 7.234) rotate(-7.171)" fill="#c2d4ea" style="mix-blend-mode: multiply;isolation: isolate"/>
      <g id="Group_11" data-name="Group 11" transform="translate(0 0)">
        <ellipse id="Ellipse_5" data-name="Ellipse 5" cx="12.511" cy="12.019" rx="12.511" ry="12.019" transform="translate(0 13.529) rotate(-32.731)" fill="#dde6f5"/>
        <g id="Group_10" data-name="Group 10" clip-path="url(#clip-path)">
          <g id="Group_9" data-name="Group 9" transform="translate(5.684 8.1)">
            <path id="Path_107" data-name="Path 107" d="M864.053,337.155c-.438.283-1.687.108-2.1.341a4.891,4.891,0,0,1-2.2.194c.074-2.009,1.085-4.041,1.171-5.89.761,1.7,1.659.767,2.54-.4C863.373,333.21,864.1,335.338,864.053,337.155Z" transform="translate(-851.23 -322.015)" fill="#ffc2b0"/>
            <path id="Path_108" data-name="Path 108" d="M864.838,333.237a2.428,2.428,0,0,0,.273.565,1.573,1.573,0,0,0,.925.671,1.489,1.489,0,0,0,1.292-.393c.117-.1.23-.2.34-.3a11.873,11.873,0,0,1-.2-2.376c-.881,1.164-1.779,2.1-2.54.4a1.366,1.366,0,0,1-.043.5c-.023.183-.062.364-.088.547A.928.928,0,0,0,864.838,333.237Z" transform="translate(-855.24 -322.015)" fill="#f4b7a8"/>
            <path id="Path_109" data-name="Path 109" d="M849.862,354.227c-.067-.693-.135-1.386-.21-2.078q-.092-.842-.2-1.678c-.073-.573-.141-1.159-.218-1.749a20.772,20.772,0,0,0-1.058-5.213.7.7,0,0,1-.044-.14,23.216,23.216,0,0,0-3.174-.93c0,.548-.482,1.838-1.573,1.827-.681-.006-1.466-.99-1.466-1.827a18.657,18.657,0,0,0-3.248.945c-.54.112-1,3.214-1.083,3.617-.341,1.744-.714,3.452-1.008,5.2l-.009.051q-.166.989-.323,1.978Z" transform="translate(-832.55 -330.789)" fill="#231e7f"/>
            <path id="Path_110" data-name="Path 110" d="M824.314,347.028l.029-.006a17.193,17.193,0,0,0-2.3,1.18,6.944,6.944,0,0,0-2.451,2.39,13.367,13.367,0,0,0-1.4,3,3.8,3.8,0,0,0,1.175,1.319,13.6,13.6,0,0,0,2.274,1.075c.344-.6.655-.97.795-1.294.241-1.272.547-2.769.8-4.051C823.31,350.242,823.774,347.14,824.314,347.028Z" transform="translate(-818.191 -334.433)" fill="#231e7f"/>
            <path id="Path_111" data-name="Path 111" d="M898.767,350.422A6.274,6.274,0,0,0,896.494,348c-.621-.357-2.3-1.029-2.262-1.021.01.047.887,3.7,1.1,5.353.077.59.072.6.145,1.176a7.65,7.65,0,0,0,1.166,2.538A10.532,10.532,0,0,0,898.8,355a3.354,3.354,0,0,0,1.12-1.075A16.326,16.326,0,0,0,898.767,350.422Z" transform="translate(-878.648 -334.398)" fill="#231e7f"/>
            <path id="Path_112" data-name="Path 112" d="M856.475,302.516a5.713,5.713,0,0,0,.771,2.482,2.777,2.777,0,0,0,2.162,1.326,3.2,3.2,0,0,0,2.724-1.789,8.349,8.349,0,0,0,.786-3.26,5.086,5.086,0,0,0-.272-2.785,1.989,1.989,0,0,0-.661-.768,2.407,2.407,0,0,0-.673-.29,4.127,4.127,0,0,0-3.1.339C856.372,298.8,856.267,300.708,856.475,302.516Z" transform="translate(-848.568 -294.881)" fill="#ffc2b0"/>
            <path id="Path_113" data-name="Path 113" d="M859.674,289.338a1.7,1.7,0,0,0,.522-1.078c.008-.134-.08-.317-.205-.259l-.079.254c-.185.052-.352-.1-.476-.237-.147-.164-.293-.328-.432-.5a3.707,3.707,0,0,0-.292-.391l-.056-.083a5.446,5.446,0,0,0-.5-.761,3.074,3.074,0,0,0-2.448-.684,4.812,4.812,0,0,0-1.618.279,2.024,2.024,0,0,0-1.17,1.1,1.317,1.317,0,0,0-.052.186,3.531,3.531,0,0,0-1.638,3.637,3.087,3.087,0,0,1,.2,1.386c.028.268.047.538.059.809a.51.51,0,0,0,.717.134.793.793,0,0,0,.187-.569q.047-.9.094-1.8a.707.707,0,0,1,.07-.326.842.842,0,0,1,.254-.234,3.254,3.254,0,0,0,.937-1.054,3.934,3.934,0,0,0,1.225.8,5.594,5.594,0,0,0,2.6.23,6.178,6.178,0,0,0,.726-.123q.03,1.248.059,2.5c.007.307.066.686.363.773a.545.545,0,0,0,.556-.235,1.473,1.473,0,0,0,.218-.592,9.171,9.171,0,0,0,.2-3.085C859.682,289.387,859.677,289.362,859.674,289.338Z" transform="translate(-844.401 -285.594)" fill="#915151"/>
            <path id="Path_114" data-name="Path 114" d="M854.505,318.932c-.019-.464-.112-.955-.1-1.421a.393.393,0,0,0-.2-.057.369.369,0,0,0-.229.039.577.577,0,0,0-.212.371,2.82,2.82,0,0,0-.034,1.413,1.45,1.45,0,0,0,.827,1.006.2.2,0,0,0,.143.015A6.438,6.438,0,0,1,854.505,318.932Z" transform="translate(-846.383 -310.922)" fill="#f4b7a8"/>
            <path id="Path_115" data-name="Path 115" d="M886.166,317.863a.53.53,0,0,0-.184-.371.356.356,0,0,0-.227-.039.76.76,0,0,0-.473.258.216.216,0,0,0-.053.027c0,.272-.012.545-.022.822a8.349,8.349,0,0,1-.112,1.4,3.957,3.957,0,0,1-.107.384.575.575,0,0,0,.2-.058,1.608,1.608,0,0,0,.9-1.006A2.826,2.826,0,0,0,886.166,317.863Z" transform="translate(-871.299 -310.922)" fill="#f4b7a8"/>
          </g>
        </g>
      </g>
      <path id="Path_116" data-name="Path 116" d="M1004.947,299.2H974.815a1.838,1.838,0,0,1-1.82-1.836h0a1.825,1.825,0,0,1,1.81-1.836h30.131a1.838,1.838,0,0,1,1.821,1.836h0A1.825,1.825,0,0,1,1004.947,299.2Z" transform="translate(-935.585 -285.391)" fill="#231e7f" style="mix-blend-mode: multiply;isolation: isolate"/>
      <rect id="Rectangle_7" data-name="Rectangle 7" width="28.768" height="1.063" rx="0.531" transform="translate(42.403 16.367)" fill="#c2d4ea" style="mix-blend-mode: multiply;isolation: isolate"/>
      <rect id="Rectangle_8" data-name="Rectangle 8" width="33.761" height="1.063" rx="0.531" transform="translate(37.41 19.459)" fill="#c2d4ea" style="mix-blend-mode: multiply;isolation: isolate"/>
      <rect id="Rectangle_9" data-name="Rectangle 9" width="30.433" height="1.063" rx="0.531" transform="translate(37.41 22.551)" fill="#c2d4ea" style="mix-blend-mode: multiply;isolation: isolate"/>
    </g>
    <g id="Group_16" data-name="Group 16" transform="translate(745.401 259.245)">
      <ellipse id="Ellipse_7" data-name="Ellipse 7" cx="12.068" cy="12.214" rx="12.068" ry="12.214" transform="matrix(0.992, -0.125, 0.125, 0.992, 5.326, 7.233)" fill="#c2d4ea" style="mix-blend-mode: multiply;isolation: isolate"/>
      <g id="Group_15" data-name="Group 15" transform="translate(0 0)">
        <ellipse id="Ellipse_8" data-name="Ellipse 8" cx="12.511" cy="12.019" rx="12.511" ry="12.019" transform="translate(0 13.529) rotate(-32.731)" fill="#dde6f5"/>
        <g id="Group_14" data-name="Group 14" clip-path="url(#clip-path)">
          <g id="Group_13" data-name="Group 13" transform="translate(5.684 9.027)">
            <path id="Path_117" data-name="Path 117" d="M864.053,510.988c-.438.283-1.687.108-2.1.341a4.893,4.893,0,0,1-2.2.194c.074-2.009,1.085-4.041,1.171-5.89.761,1.7,1.659.767,2.54-.4C863.373,507.043,864.1,509.171,864.053,510.988Z" transform="translate(-851.23 -496.775)" fill="#ffc2b0"/>
            <path id="Path_118" data-name="Path 118" d="M864.838,507.07a2.431,2.431,0,0,0,.273.565,1.573,1.573,0,0,0,.925.671,1.489,1.489,0,0,0,1.292-.394c.117-.1.23-.2.34-.3a11.874,11.874,0,0,1-.2-2.376c-.881,1.164-1.779,2.1-2.54.4a1.368,1.368,0,0,1-.043.5c-.023.183-.062.364-.088.546A.929.929,0,0,0,864.838,507.07Z" transform="translate(-855.24 -496.775)" fill="#f4b7a8"/>
            <path id="Path_119" data-name="Path 119" d="M849.862,528.061c-.067-.693-.135-1.386-.21-2.078q-.092-.842-.2-1.678c-.073-.573-.141-1.16-.218-1.75a20.772,20.772,0,0,0-1.058-5.213.7.7,0,0,1-.044-.14,23.191,23.191,0,0,0-3.174-.93c0,.548-.482,1.838-1.573,1.827-.681-.006-1.466-.99-1.466-1.827a18.661,18.661,0,0,0-3.248.945c-.54.112-1,3.214-1.083,3.617-.341,1.744-.714,3.452-1.008,5.2l-.009.051q-.166.989-.323,1.979Z" transform="translate(-832.55 -505.55)" fill="#231e7f"/>
            <path id="Path_120" data-name="Path 120" d="M824.314,520.861l.029-.006a17.193,17.193,0,0,0-2.3,1.18,6.944,6.944,0,0,0-2.451,2.39,13.368,13.368,0,0,0-1.4,3,3.8,3.8,0,0,0,1.175,1.319,13.619,13.619,0,0,0,2.274,1.075c.344-.6.655-.971.795-1.294.241-1.272.547-2.769.8-4.05C823.31,524.075,823.774,520.973,824.314,520.861Z" transform="translate(-818.191 -509.192)" fill="#231e7f"/>
            <path id="Path_121" data-name="Path 121" d="M898.767,524.255a6.272,6.272,0,0,0-2.273-2.423c-.621-.357-2.3-1.029-2.262-1.021.01.047.887,3.7,1.1,5.353.077.59.072.6.145,1.176a7.651,7.651,0,0,0,1.166,2.538,10.521,10.521,0,0,0,2.155-1.042,3.355,3.355,0,0,0,1.12-1.075A16.326,16.326,0,0,0,898.767,524.255Z" transform="translate(-878.648 -509.157)" fill="#231e7f"/>
            <path id="Path_122" data-name="Path 122" d="M855.28,475.613a5.712,5.712,0,0,0,.771,2.482,2.777,2.777,0,0,0,2.162,1.326,3.2,3.2,0,0,0,2.724-1.789,8.346,8.346,0,0,0,.786-3.26,5.086,5.086,0,0,0-.272-2.785,1.988,1.988,0,0,0-.661-.768,2.406,2.406,0,0,0-.673-.29c-1.012-.286-3.129-.583-4.068-.058C854.207,471.5,855.072,473.806,855.28,475.613Z" transform="translate(-847.373 -468.905)" fill="#ffc2b0"/>
            <path id="Path_123" data-name="Path 123" d="M854.224,465.436a12.021,12.021,0,0,0-.183,2.4c0,.372-.007.824,0,1.3q.079.511.166,1.021a3.081,3.081,0,0,1,.466-.048c0-.038.007-.076.009-.114q.047-.9.094-1.8a.709.709,0,0,1,.071-.326.408.408,0,0,1,.03-.034c-.039-.691-.112-1.464.548-1.9a2.91,2.91,0,0,1,1.86-.213c.232.024.471.033.711.04a2.194,2.194,0,0,1,2.4.5,3.614,3.614,0,0,1,.268,2.936.912.912,0,0,1-.032.1q.008.343.016.687c0,.068.007.14.015.212l.618,0a24.888,24.888,0,0,0,.176-2.887c0-.41-.019-.823-.054-1.232-.011-.13-.071-.375-.11-.59-1.368-1.712-4.127-1.95-6.118-.93,0,.014-.009.027-.012.041A3.518,3.518,0,0,0,854.224,465.436Z" transform="translate(-846.69 -463.949)" fill="#915151"/>
            <path id="Path_124" data-name="Path 124" d="M854.505,492.765c-.019-.464-.112-.955-.1-1.421a.393.393,0,0,0-.2-.057.37.37,0,0,0-.229.039.577.577,0,0,0-.212.371,2.82,2.82,0,0,0-.034,1.413,1.451,1.451,0,0,0,.827,1.007.2.2,0,0,0,.143.014A6.438,6.438,0,0,1,854.505,492.765Z" transform="translate(-846.383 -485.681)" fill="#f4b7a8"/>
            <path id="Path_125" data-name="Path 125" d="M886.166,491.7a.53.53,0,0,0-.184-.371.358.358,0,0,0-.227-.039.761.761,0,0,0-.473.258.218.218,0,0,0-.053.027c0,.272-.012.545-.022.822a8.345,8.345,0,0,1-.112,1.4,3.944,3.944,0,0,1-.107.384.579.579,0,0,0,.2-.058,1.609,1.609,0,0,0,.9-1.007A2.826,2.826,0,0,0,886.166,491.7Z" transform="translate(-871.299 -485.681)" fill="#f4b7a8"/>
          </g>
        </g>
      </g>
      <path id="Path_126" data-name="Path 126" d="M1004.947,473.032H974.815a1.838,1.838,0,0,1-1.82-1.836h0a1.825,1.825,0,0,1,1.81-1.836h30.131a1.838,1.838,0,0,1,1.821,1.836h0A1.825,1.825,0,0,1,1004.947,473.032Z" transform="translate(-935.585 -459.224)" fill="#231e7f" style="mix-blend-mode: multiply;isolation: isolate"/>
      <rect id="Rectangle_10" data-name="Rectangle 10" width="28.768" height="1.063" rx="0.531" transform="translate(42.403 16.367)" fill="#c2d4ea" style="mix-blend-mode: multiply;isolation: isolate"/>
      <rect id="Rectangle_11" data-name="Rectangle 11" width="33.761" height="1.063" rx="0.531" transform="translate(37.41 19.459)" fill="#c2d4ea" style="mix-blend-mode: multiply;isolation: isolate"/>
      <rect id="Rectangle_12" data-name="Rectangle 12" width="30.433" height="1.063" rx="0.531" transform="translate(37.41 22.551)" fill="#c2d4ea" style="mix-blend-mode: multiply;isolation: isolate"/>
    </g>
    <g id="Group_20" data-name="Group 20" transform="translate(745.401 292.371)">
      <ellipse id="Ellipse_10" data-name="Ellipse 10" cx="12.068" cy="12.214" rx="12.068" ry="12.214" transform="matrix(0.992, -0.125, 0.125, 0.992, 5.326, 7.233)" fill="#c2d4ea" style="mix-blend-mode: multiply;isolation: isolate"/>
      <g id="Group_19" data-name="Group 19" transform="translate(0 0)">
        <ellipse id="Ellipse_11" data-name="Ellipse 11" cx="12.511" cy="12.019" rx="12.511" ry="12.019" transform="matrix(0.841, -0.541, 0.541, 0.841, 0, 13.529)" fill="#dde6f5"/>
        <g id="Group_18" data-name="Group 18" clip-path="url(#clip-path-3)">
          <g id="Group_17" data-name="Group 17" transform="translate(5.684 8.367)">
            <path id="Path_127" data-name="Path 127" d="M864.053,672.626c-.438.283-1.687.108-2.1.341a4.895,4.895,0,0,1-2.2.194c.074-2.009,1.085-4.042,1.171-5.89.761,1.7,1.659.766,2.54-.4C863.373,668.681,864.1,670.808,864.053,672.626Z" transform="translate(-851.23 -657.753)" fill="#ffc2b0"/>
            <path id="Path_128" data-name="Path 128" d="M864.838,668.708a2.433,2.433,0,0,0,.273.565,1.574,1.574,0,0,0,.925.671,1.489,1.489,0,0,0,1.292-.394c.117-.1.23-.2.34-.3a11.872,11.872,0,0,1-.2-2.375c-.881,1.163-1.779,2.1-2.54.4a1.366,1.366,0,0,1-.043.5c-.023.183-.062.364-.088.546A.929.929,0,0,0,864.838,668.708Z" transform="translate(-855.24 -657.753)" fill="#f4b7a8"/>
            <path id="Path_129" data-name="Path 129" d="M849.862,689.7c-.067-.693-.135-1.386-.21-2.078q-.092-.841-.2-1.678c-.073-.573-.141-1.159-.218-1.75a20.771,20.771,0,0,0-1.058-5.213.706.706,0,0,1-.044-.139,23.2,23.2,0,0,0-3.174-.93c0,.548-.482,1.838-1.573,1.827-.681-.006-1.466-.99-1.466-1.827a18.684,18.684,0,0,0-3.248.945c-.54.112-1,3.215-1.083,3.617-.341,1.744-.714,3.452-1.008,5.2l-.009.051q-.166.989-.323,1.978Z" transform="translate(-832.55 -666.527)" fill="#231e7f"/>
            <path id="Path_130" data-name="Path 130" d="M824.314,682.5l.029-.006a17.184,17.184,0,0,0-2.3,1.18,6.944,6.944,0,0,0-2.451,2.39,13.373,13.373,0,0,0-1.4,3,3.8,3.8,0,0,0,1.175,1.319,13.617,13.617,0,0,0,2.274,1.075c.344-.6.655-.97.795-1.294.241-1.272.547-2.769.8-4.05C823.31,685.713,823.774,682.611,824.314,682.5Z" transform="translate(-818.191 -670.17)" fill="#231e7f"/>
            <path id="Path_131" data-name="Path 131" d="M898.767,685.893a6.271,6.271,0,0,0-2.273-2.423c-.621-.357-2.3-1.029-2.262-1.021.01.047.887,3.7,1.1,5.353.077.59.072.6.145,1.177a7.648,7.648,0,0,0,1.166,2.537,10.539,10.539,0,0,0,2.155-1.041,3.352,3.352,0,0,0,1.12-1.076A16.326,16.326,0,0,0,898.767,685.893Z" transform="translate(-878.648 -670.135)" fill="#231e7f"/>
            <path id="Path_132" data-name="Path 132" d="M856.475,637.986a5.712,5.712,0,0,0,.771,2.482,2.777,2.777,0,0,0,2.162,1.326A3.2,3.2,0,0,0,862.133,640a8.348,8.348,0,0,0,.786-3.259,5.086,5.086,0,0,0-.272-2.785,1.988,1.988,0,0,0-.661-.768,2.409,2.409,0,0,0-.673-.29,4.126,4.126,0,0,0-3.1.339C856.372,634.271,856.267,636.178,856.475,637.986Z" transform="translate(-848.568 -630.618)" fill="#ffc2b0"/>
            <path id="Path_133" data-name="Path 133" d="M859.472,625.945a6.82,6.82,0,0,0-.252-.908,4.767,4.767,0,0,0-1.859-2.3,4.464,4.464,0,0,0-3.168-.175c-.242.092-.486.175-.724.281a1.983,1.983,0,0,0-.213.117,1.616,1.616,0,0,0-.328.523,1.318,1.318,0,0,0-.052.186,3.622,3.622,0,0,0-1.706,2.962c.192.558.3,1.162.436,1.712.118.465.231.926.325,1.389a.379.379,0,0,0,.281-.1.792.792,0,0,0,.187-.569l.094-1.8a.707.707,0,0,1,.071-.326.4.4,0,0,1,.037-.042,1.767,1.767,0,0,1,.191-.44,2.418,2.418,0,0,1,.916-.969.917.917,0,0,1,.187-.278c.882-.9,2.3-.53,3.283-.015a2.452,2.452,0,0,1,1.208,1.246,2.6,2.6,0,0,1-.048,1.688q.011.46.022.919c.007.307.066.685.363.773a.5.5,0,0,0,.449-.123c-.015-.6-.03-1.192.006-1.785A15.477,15.477,0,0,1,859.472,625.945Z" transform="translate(-844.411 -622.366)" fill="#915151"/>
            <path id="Path_134" data-name="Path 134" d="M854.505,654.4c-.019-.464-.112-.955-.1-1.421a.391.391,0,0,0-.2-.058.369.369,0,0,0-.229.039.576.576,0,0,0-.212.37,2.821,2.821,0,0,0-.034,1.413,1.451,1.451,0,0,0,.827,1.006.2.2,0,0,0,.143.014A6.438,6.438,0,0,1,854.505,654.4Z" transform="translate(-846.383 -646.659)" fill="#f4b7a8"/>
            <path id="Path_135" data-name="Path 135" d="M886.166,653.333a.529.529,0,0,0-.184-.37.357.357,0,0,0-.227-.039.762.762,0,0,0-.473.258.217.217,0,0,0-.053.027c0,.272-.012.545-.022.823a8.344,8.344,0,0,1-.112,1.4,3.943,3.943,0,0,1-.107.384.576.576,0,0,0,.2-.058,1.608,1.608,0,0,0,.9-1.006A2.827,2.827,0,0,0,886.166,653.333Z" transform="translate(-871.299 -646.659)" fill="#f4b7a8"/>
          </g>
        </g>
      </g>
      <path id="Path_136" data-name="Path 136" d="M1004.947,634.67H974.815a1.838,1.838,0,0,1-1.82-1.836h0A1.825,1.825,0,0,1,974.8,631h30.131a1.838,1.838,0,0,1,1.821,1.836h0A1.825,1.825,0,0,1,1004.947,634.67Z" transform="translate(-935.585 -620.861)" fill="#231e7f" style="mix-blend-mode: multiply;isolation: isolate"/>
      <rect id="Rectangle_13" data-name="Rectangle 13" width="28.768" height="1.063" rx="0.531" transform="translate(42.403 16.367)" fill="#c2d4ea" style="mix-blend-mode: multiply;isolation: isolate"/>
      <rect id="Rectangle_14" data-name="Rectangle 14" width="33.761" height="1.063" rx="0.531" transform="translate(37.41 19.459)" fill="#c2d4ea" style="mix-blend-mode: multiply;isolation: isolate"/>
      <rect id="Rectangle_15" data-name="Rectangle 15" width="30.433" height="1.063" rx="0.531" transform="translate(37.41 22.551)" fill="#c2d4ea" style="mix-blend-mode: multiply;isolation: isolate"/>
    </g>
    <path id="Path_137" data-name="Path 137" d="M815.124,766H733.787c.317,6.695,3.652,7.412,6.109,7.412h81.337C818.776,773.412,815.944,772.558,815.124,766Z" transform="translate(0 -435.825)" fill="#f47d31"/>
  </g>
</svg>
