<svg xmlns="http://www.w3.org/2000/svg" width="144" height="88" viewBox="0 0 144 88">
  <g id="Group_143" data-name="Group 143" transform="translate(-818 -2281)">
    <g id="Group_140" data-name="Group 140" transform="translate(818.161 2298.633)">
      <rect id="Rectangle_59" data-name="Rectangle 59" width="54" height="70" rx="7" transform="translate(-0.161 0.367)" fill="#f6f6f6"/>
      <rect id="Rectangle_62" data-name="Rectangle 62" width="34" height="5" rx="2.5" transform="translate(9.839 10.367)" fill="#f47d31"/>
      <rect id="Rectangle_63" data-name="Rectangle 63" width="34" height="5" rx="2.5" transform="translate(9.839 21.367)" fill="#f47d31"/>
      <rect id="Rectangle_64" data-name="Rectangle 64" width="34" height="5" rx="2.5" transform="translate(9.839 32.367)" fill="#f47d31"/>
      <rect id="Rectangle_65" data-name="Rectangle 65" width="19" height="6" rx="3" transform="translate(16.839 51.367)" fill="#f47d31"/>
    </g>
    <g id="Group_141" data-name="Group 141" transform="translate(908.19 2298.633)">
      <rect id="Rectangle_59-2" data-name="Rectangle 59" width="54" height="70" rx="7" transform="translate(-0.19 0.367)" fill="#f6f6f6"/>
      <rect id="Rectangle_62-2" data-name="Rectangle 62" width="34" height="5" rx="2.5" transform="translate(9.81 10.367)" fill="#f47d31"/>
      <rect id="Rectangle_63-2" data-name="Rectangle 63" width="34" height="5" rx="2.5" transform="translate(9.81 21.367)" fill="#f47d31"/>
      <rect id="Rectangle_64-2" data-name="Rectangle 64" width="34" height="5" rx="2.5" transform="translate(9.81 32.367)" fill="#f47d31"/>
      <rect id="Rectangle_65-2" data-name="Rectangle 65" width="21" height="6" rx="3" transform="translate(16.81 51.367)" fill="#f47d31"/>
    </g>
    <g id="Group_142" data-name="Group 142" transform="translate(863.693 2281.041)">
      <rect id="Rectangle_59-3" data-name="Rectangle 59" width="52" height="70" rx="7" transform="translate(0.307 -0.041)" fill="#201c66"/>
      <rect id="Rectangle_62-3" data-name="Rectangle 62" width="42" height="6" rx="3" transform="translate(5.307 9.959)" fill="#fff"/>
      <rect id="Rectangle_63-3" data-name="Rectangle 63" width="42" height="4" rx="2" transform="translate(5.307 21.959)" fill="#fff"/>
      <rect id="Rectangle_64-3" data-name="Rectangle 64" width="42" height="5" rx="2.5" transform="translate(5.307 31.959)" fill="#fff"/>
      <rect id="Rectangle_65-3" data-name="Rectangle 65" width="20" height="6" rx="3" transform="translate(16.307 50.959)" fill="#fff"/>
    </g>
  </g>
</svg>
