<svg xmlns="http://www.w3.org/2000/svg" xmlns:xlink="http://www.w3.org/1999/xlink" width="119.597" height="87.543" viewBox="0 0 119.597 87.543">
  <defs>
    <linearGradient id="linear-gradient" y1="0.5" x2="1" y2="0.5" gradientUnits="objectBoundingBox">
      <stop offset="0" stop-color="#f9e6d9"/>
      <stop offset="0.121" stop-color="#fbf1ea"/>
      <stop offset="0.27" stop-color="#fdf9f6"/>
      <stop offset="0.475" stop-color="#fefdfd"/>
      <stop offset="1" stop-color="#fff"/>
    </linearGradient>
  </defs>
  <g id="Group_139" data-name="Group 139" transform="translate(-1050.403 -2250.999)">
    <g id="Group_137" data-name="Group 137" transform="translate(1080.423 2250.999)">
      <g id="Group_3" data-name="Group 3" transform="translate(0 0)">
        <path id="Path_14" data-name="Path 14" d="M372,154.877v71.04H282.421v-71.04Zm-4.7,45.482v-3.934a3.99,3.99,0,0,0-3.99-3.99h-5.346a3.991,3.991,0,0,0-3.99,3.99v3.934a3.99,3.99,0,0,0,3.99,3.99h5.346A3.988,3.988,0,0,0,367.3,200.359Zm-.322-33.332v-3.934a3.992,3.992,0,0,0-3.99-3.99H357.64a3.992,3.992,0,0,0-3.99,3.99v3.934a3.99,3.99,0,0,0,3.99,3.99h5.346A3.99,3.99,0,0,0,366.976,167.027Zm-.176,16.666V179.76a3.99,3.99,0,0,0-3.99-3.99h-5.346a3.989,3.989,0,0,0-3.987,3.99v3.934a3.987,3.987,0,0,0,3.987,3.99h5.346A3.988,3.988,0,0,0,366.8,183.693Zm-15.732,16.666v-3.934a3.991,3.991,0,0,0-3.99-3.99h-5.346a3.992,3.992,0,0,0-3.99,3.99v3.934a3.99,3.99,0,0,0,3.99,3.99h5.346A3.99,3.99,0,0,0,351.068,200.359Zm-.322-33.332v-3.934a3.992,3.992,0,0,0-3.99-3.99h-5.346a3.99,3.99,0,0,0-3.99,3.99v3.934a3.988,3.988,0,0,0,3.99,3.99h5.346A3.99,3.99,0,0,0,350.747,167.027Zm-.176,16.666V179.76a3.99,3.99,0,0,0-3.99-3.99h-5.346a3.991,3.991,0,0,0-3.99,3.99v3.934a3.99,3.99,0,0,0,3.99,3.99h5.346A3.988,3.988,0,0,0,350.571,183.693Zm-16.092,16.666v-3.934a3.99,3.99,0,0,0-3.99-3.99h-5.346a3.989,3.989,0,0,0-3.987,3.99v3.934a3.988,3.988,0,0,0,3.987,3.99h5.346A3.988,3.988,0,0,0,334.478,200.359Zm-.174,16.666v-3.934a3.992,3.992,0,0,0-3.99-3.99h-5.346a3.99,3.99,0,0,0-3.99,3.99v3.934a3.988,3.988,0,0,0,3.99,3.99h5.346A3.99,3.99,0,0,0,334.3,217.025Zm-.148-50v-3.934a3.99,3.99,0,0,0-3.99-3.99H324.82a3.992,3.992,0,0,0-3.99,3.99v3.934a3.99,3.99,0,0,0,3.99,3.99h5.346A3.988,3.988,0,0,0,334.156,167.027Zm-.176,16.666V179.76a3.99,3.99,0,0,0-3.99-3.99h-5.346a3.989,3.989,0,0,0-3.987,3.99v3.934a3.987,3.987,0,0,0,3.987,3.99h5.346A3.988,3.988,0,0,0,333.98,183.693Zm-16.769,16.666v-3.934a3.99,3.99,0,0,0-3.99-3.99h-5.346a3.989,3.989,0,0,0-3.987,3.99v3.934a3.988,3.988,0,0,0,3.987,3.99h5.346A3.988,3.988,0,0,0,317.211,200.359Zm-.174,16.666v-3.934a3.992,3.992,0,0,0-3.99-3.99H307.7a3.99,3.99,0,0,0-3.99,3.99v3.934a3.988,3.988,0,0,0,3.99,3.99h5.346A3.99,3.99,0,0,0,317.037,217.025Zm-.148-50v-3.934a3.99,3.99,0,0,0-3.99-3.99h-5.346a3.992,3.992,0,0,0-3.99,3.99v3.934a3.99,3.99,0,0,0,3.99,3.99H312.9A3.988,3.988,0,0,0,316.889,167.027Zm-.176,16.666V179.76a3.989,3.989,0,0,0-3.987-3.99h-5.346a3.99,3.99,0,0,0-3.99,3.99v3.934a3.988,3.988,0,0,0,3.99,3.99h5.346A3.987,3.987,0,0,0,316.713,183.693Zm-16.09,16.666v-3.934a3.991,3.991,0,0,0-3.989-3.99h-5.347a3.99,3.99,0,0,0-3.99,3.99v3.934a3.988,3.988,0,0,0,3.99,3.99h5.347A3.99,3.99,0,0,0,300.623,200.359Zm-.176,16.666v-3.934a3.99,3.99,0,0,0-3.99-3.99h-5.346a3.992,3.992,0,0,0-3.99,3.99v3.934a3.99,3.99,0,0,0,3.99,3.99h5.346A3.988,3.988,0,0,0,300.447,217.025Zm-.148-50v-3.934a3.989,3.989,0,0,0-3.987-3.99h-5.346a3.99,3.99,0,0,0-3.99,3.99v3.934a3.988,3.988,0,0,0,3.99,3.99h5.346A3.987,3.987,0,0,0,300.3,167.027Zm-.173,16.666V179.76a3.992,3.992,0,0,0-3.99-3.99h-5.346a3.99,3.99,0,0,0-3.99,3.99v3.934a3.988,3.988,0,0,0,3.99,3.99h5.346A3.99,3.99,0,0,0,300.125,183.693Z" transform="translate(-282.421 -138.373)" fill="#f6f6f6"/>
        <path id="Path_15" data-name="Path 15" d="M372,116.363v11.445H282.421V116.363h4.448c.235,2.179,1.681,3.808,3.491,3.808a.575.575,0,1,0,0-1.136c-1.049,0-1.955-1.172-2.157-2.672h9.943c.235,2.179,1.681,3.808,3.491,3.808a.575.575,0,1,0,0-1.136c-1.049,0-1.956-1.172-2.157-2.672h10.29c.235,2.179,1.684,3.808,3.494,3.808a.575.575,0,1,0,0-1.136c-1.049,0-1.955-1.172-2.157-2.672h9.94c.235,2.179,1.684,3.808,3.494,3.808a.575.575,0,1,0,0-1.136c-1.049,0-1.956-1.172-2.157-2.672h11.44c.235,2.179,1.684,3.808,3.491,3.808a.575.575,0,1,0,0-1.136c-1.046,0-1.953-1.172-2.154-2.672h9.94c.235,2.179,1.684,3.808,3.491,3.808a.575.575,0,1,0,0-1.136c-1.049,0-1.956-1.172-2.154-2.672h10.29c.235,2.179,1.681,3.808,3.491,3.808a.575.575,0,1,0,0-1.136c-1.049,0-1.955-1.172-2.157-2.672Z" transform="translate(-282.421 -111.305)" fill="#f47d31"/>
        <rect id="Rectangle_2" data-name="Rectangle 2" width="13.325" height="11.913" rx="5.956" transform="translate(71.551 54.063)" fill="#f47d31"/>
        <rect id="Rectangle_3" data-name="Rectangle 3" width="13.325" height="11.913" rx="5.956" transform="translate(71.23 20.731)" fill="#f47d31"/>
        <path id="Path_16" data-name="Path 16" d="M534.852,229.174v3.934a3.988,3.988,0,0,1-3.99,3.99h-5.346a3.987,3.987,0,0,1-3.987-3.99v-3.934a3.989,3.989,0,0,1,3.987-3.99h5.346A3.99,3.99,0,0,1,534.852,229.174Z" transform="translate(-450.473 -187.787)" fill="#f47d31"/>
        <rect id="Rectangle_4" data-name="Rectangle 4" width="13.325" height="11.913" rx="5.956" transform="translate(55.322 54.063)" fill="#f47d31"/>
        <rect id="Rectangle_5" data-name="Rectangle 5" width="13.325" height="11.913" rx="5.956" transform="translate(55 20.731)" fill="#f47d31"/>
        <rect id="Rectangle_6" data-name="Rectangle 6" width="13.325" height="11.913" rx="5.956" transform="translate(54.824 37.397)" fill="#f47d31"/>
        <path id="Path_17" data-name="Path 17" d="M426.087,285.256v3.934a3.988,3.988,0,0,1-3.99,3.99h-5.346a3.988,3.988,0,0,1-3.987-3.99v-3.934a3.989,3.989,0,0,1,3.987-3.99H422.1A3.99,3.99,0,0,1,426.087,285.256Z" transform="translate(-374.03 -227.203)" fill="#f47d31"/>
        <rect id="Rectangle_7" data-name="Rectangle 7" width="13.325" height="11.913" rx="5.956" transform="translate(38.558 70.729)" fill="#f47d31"/>
        <rect id="Rectangle_8" data-name="Rectangle 8" width="13.325" height="11.913" rx="5.956" transform="translate(38.41 20.731)" fill="#f47d31"/>
        <path id="Path_18" data-name="Path 18" d="M424.411,229.174v3.934a3.988,3.988,0,0,1-3.99,3.99h-5.346a3.987,3.987,0,0,1-3.987-3.99v-3.934a3.989,3.989,0,0,1,3.987-3.99h5.346A3.99,3.99,0,0,1,424.411,229.174Z" transform="translate(-372.852 -187.787)" fill="#f47d31"/>
        <path id="Path_19" data-name="Path 19" d="M367.981,285.256v3.934a3.988,3.988,0,0,1-3.99,3.99h-5.346a3.988,3.988,0,0,1-3.987-3.99v-3.934a3.989,3.989,0,0,1,3.987-3.99h5.346A3.99,3.99,0,0,1,367.981,285.256Z" transform="translate(-333.191 -227.203)" fill="#f47d31"/>
        <rect id="Rectangle_9" data-name="Rectangle 9" width="13.325" height="11.913" rx="5.956" transform="translate(21.291 70.729)" fill="#f47d31"/>
        <rect id="Rectangle_10" data-name="Rectangle 10" width="13.325" height="11.913" rx="5.956" transform="translate(21.142 20.731)" fill="#f47d31"/>
        <path id="Path_20" data-name="Path 20" d="M366.3,229.174v3.934a3.987,3.987,0,0,1-3.987,3.99h-5.346a3.988,3.988,0,0,1-3.99-3.99v-3.934a3.99,3.99,0,0,1,3.99-3.99h5.346A3.989,3.989,0,0,1,366.3,229.174Z" transform="translate(-332.013 -187.787)" fill="#f47d31"/>
        <rect id="Rectangle_11" data-name="Rectangle 11" width="13.325" height="11.913" rx="5.956" transform="translate(4.876 54.063)" fill="#f47d31"/>
        <rect id="Rectangle_12" data-name="Rectangle 12" width="13.325" height="11.913" rx="5.956" transform="translate(4.7 70.729)" fill="#f47d31"/>
        <path id="Path_21" data-name="Path 21" d="M311.071,173.092v3.934a3.987,3.987,0,0,1-3.987,3.99h-5.346a3.988,3.988,0,0,1-3.99-3.99v-3.934a3.99,3.99,0,0,1,3.99-3.99h5.346A3.989,3.989,0,0,1,311.071,173.092Z" transform="translate(-293.193 -148.371)" fill="#f47d31"/>
        <rect id="Rectangle_13" data-name="Rectangle 13" width="13.325" height="11.913" rx="5.956" transform="translate(4.378 37.397)" fill="#f47d31"/>
        <path id="Path_22" data-name="Path 22" d="M304.12,102.259a.568.568,0,0,1-.487.685.678.678,0,0,1-.8-.417c-.347-1.225-1.164-2.05-2.028-2.05-1.192,0-2.2,1.511-2.2,3.3a4.594,4.594,0,0,0,.042.624c.2,1.5,1.108,2.672,2.157,2.672a.575.575,0,1,1,0,1.136c-1.81,0-3.256-1.628-3.491-3.808a5.7,5.7,0,0,1-.034-.624c0-2.487,1.547-4.434,3.525-4.434A3.618,3.618,0,0,1,304.12,102.259Z" transform="translate(-292.862 -99.341)" fill="#06006e"/>
        <path id="Path_23" data-name="Path 23" d="M381.19,102.259a.568.568,0,0,1-.49.685.676.676,0,0,1-.8-.417c-.35-1.225-1.164-2.05-2.029-2.05-1.192,0-2.2,1.511-2.2,3.3a4.589,4.589,0,0,0,.042.624c.2,1.5,1.108,2.672,2.157,2.672a.575.575,0,1,1,0,1.136c-1.81,0-3.259-1.628-3.494-3.808a5.618,5.618,0,0,1-.034-.624c0-2.487,1.55-4.434,3.528-4.434A3.618,3.618,0,0,1,381.19,102.259Z" transform="translate(-347.027 -99.341)" fill="#06006e"/>
        <path id="Path_24" data-name="Path 24" d="M419.139,102.259a.568.568,0,0,1-.49.685.676.676,0,0,1-.8-.417c-.349-1.225-1.164-2.05-2.028-2.05-1.192,0-2.2,1.511-2.2,3.3a4.589,4.589,0,0,0,.042.624c.2,1.5,1.108,2.672,2.157,2.672a.575.575,0,1,1,0,1.136c-1.81,0-3.259-1.628-3.494-3.808a5.7,5.7,0,0,1-.034-.624c0-2.487,1.55-4.434,3.528-4.434A3.621,3.621,0,0,1,419.139,102.259Z" transform="translate(-373.699 -99.341)" fill="#06006e"/>
        <path id="Path_25" data-name="Path 25" d="M462.135,102.259a.57.57,0,0,1-.489.685.679.679,0,0,1-.8-.417c-.347-1.225-1.161-2.05-2.028-2.05-1.189,0-2.2,1.511-2.2,3.3a4.589,4.589,0,0,0,.042.624c.2,1.5,1.108,2.672,2.154,2.672a.575.575,0,1,1,0,1.136c-1.807,0-3.256-1.628-3.491-3.808a5.693,5.693,0,0,1-.034-.624c0-2.487,1.55-4.434,3.525-4.434A3.621,3.621,0,0,1,462.135,102.259Z" transform="translate(-403.917 -99.341)" fill="#06006e"/>
        <path id="Path_26" data-name="Path 26" d="M500.082,102.259a.568.568,0,0,1-.487.685.677.677,0,0,1-.8-.417c-.347-1.225-1.161-2.05-2.028-2.05-1.192,0-2.2,1.511-2.2,3.3a4.594,4.594,0,0,0,.042.624c.2,1.5,1.105,2.672,2.154,2.672a.575.575,0,1,1,0,1.136c-1.807,0-3.256-1.628-3.491-3.808a5.618,5.618,0,0,1-.034-.624c0-2.487,1.55-4.434,3.525-4.434A3.616,3.616,0,0,1,500.082,102.259Z" transform="translate(-430.59 -99.341)" fill="#06006e"/>
        <path id="Path_27" data-name="Path 27" d="M342.07,102.259a.568.568,0,0,1-.489.685.676.676,0,0,1-.8-.417c-.347-1.225-1.164-2.05-2.028-2.05-1.192,0-2.2,1.511-2.2,3.3a4.589,4.589,0,0,0,.042.624c.2,1.5,1.108,2.672,2.157,2.672a.575.575,0,1,1,0,1.136c-1.81,0-3.256-1.628-3.491-3.808a5.625,5.625,0,0,1-.034-.624c0-2.487,1.547-4.434,3.525-4.434A3.618,3.618,0,0,1,342.07,102.259Z" transform="translate(-319.535 -99.341)" fill="#06006e"/>
        <path id="Path_28" data-name="Path 28" d="M538.722,102.945a.678.678,0,0,1-.8-.417c-.347-1.225-1.161-2.05-2.029-2.05-1.192,0-2.2,1.511-2.2,3.3a4.589,4.589,0,0,0,.042.624c.2,1.5,1.108,2.672,2.157,2.672a.575.575,0,1,1,0,1.136c-1.81,0-3.256-1.628-3.491-3.808a5.67,5.67,0,0,1-.034-.624c0-2.487,1.547-4.434,3.525-4.434a3.615,3.615,0,0,1,3.318,2.918A.568.568,0,0,1,538.722,102.945Z" transform="translate(-458.089 -99.341)" fill="#06006e"/>
      </g>
      <path id="Path_880" data-name="Path 880" d="M6.59,0A6.59,6.59,0,1,1,0,6.59,6.59,6.59,0,0,1,6.59,0Z" transform="translate(55.698 69.461)" fill="none" stroke="#f47d31" stroke-width="5"/>
    </g>
    <g id="Group_138" data-name="Group 138" transform="translate(1050.403 2273.664)">
      <path id="Path_29" data-name="Path 29" d="M200.232,220.344a30.293,30.293,0,1,0,30.293-30.294A30.294,30.294,0,0,0,200.232,220.344Z" transform="translate(-195.531 -185.758)" style="mix-blend-mode: soft-light;isolation: isolate"/>
      <g id="Group_8" data-name="Group 8" transform="translate(0 0)">
        <path id="Path_30" data-name="Path 30" d="M181.4,220.344A30.293,30.293,0,1,0,211.7,190.05,30.294,30.294,0,0,0,181.4,220.344Z" transform="translate(-181.403 -185.758)" fill="#06006e"/>
        <path id="Path_31" data-name="Path 31" d="M193.219,228.65A26.782,26.782,0,1,0,220,201.867,26.782,26.782,0,0,0,193.219,228.65Z" transform="translate(-189.708 -194.064)" fill="url(#linear-gradient)"/>
        <g id="Group_5" data-name="Group 5" transform="translate(29.359 10.563)">
          <rect id="Rectangle_14" data-name="Rectangle 14" width="1.442" height="5.934" fill="#1f1c38"/>
          <rect id="Rectangle_15" data-name="Rectangle 15" width="1.442" height="5.935" transform="translate(0 43.036)" fill="#06006e"/>
        </g>
        <g id="Group_6" data-name="Group 6" transform="translate(5.807 33.932)">
          <rect id="Rectangle_16" data-name="Rectangle 16" width="5.934" height="1.305" fill="#1f1c38"/>
          <rect id="Rectangle_17" data-name="Rectangle 17" width="5.935" height="1.305" transform="translate(43.037)" fill="#06006e"/>
        </g>
        <g id="Group_7" data-name="Group 7" transform="translate(3.543)">
          <path id="Path_32" data-name="Path 32" d="M273.556,175.609l3.883,11.352h-7.6Z" transform="translate(-247.104 -175.609)" fill="#06006e"/>
          <rect id="Rectangle_18" data-name="Rectangle 18" width="2.7" height="26.498" transform="translate(27.887 35.465) rotate(-180)" fill="#06006e"/>
          <path id="Path_33" data-name="Path 33" d="M193.324,283.093l11.352-3.883v7.6Z" transform="translate(-193.324 -248.423)" fill="#06006e"/>
          <rect id="Rectangle_19" data-name="Rectangle 19" width="2.7" height="18.92" transform="translate(27.887 33.235) rotate(90)" fill="#06006e"/>
        </g>
        <rect id="Rectangle_20" data-name="Rectangle 20" width="0.619" height="18.551" transform="matrix(0.692, -0.722, 0.722, 0.692, 30.073, 34.816)" fill="#06006e"/>
        <path id="Path_34" data-name="Path 34" d="M270.476,287.12a2.942,2.942,0,1,0,2.942-2.941A2.942,2.942,0,0,0,270.476,287.12Z" transform="translate(-244.006 -251.915)" fill="#06006e"/>
      </g>
    </g>
  </g>
</svg>
