<svg id="Group_146" data-name="Group 146" xmlns="http://www.w3.org/2000/svg" xmlns:xlink="http://www.w3.org/1999/xlink" width="128.994" height="104.531" viewBox="0 0 128.994 104.531">
  <defs>
    <clipPath id="clip-path">
      <path id="Path_12" data-name="Path 12" d="M2242.136,3223.426c-.834-3.532-1.267-7.146.624-9.551a9.419,9.419,0,0,1,3.619-2.381c2.427-1.049,4.909-2.46,7.508-2.917a20.861,20.861,0,0,1,8.518-.09,20.215,20.215,0,0,1,4.908,2.123c1.346.759,3,1.412,3.65,2.824a96.055,96.055,0,0,1,4.154,10.576c.975,3,2.045,6.144.509,9.183-.5.985-1.221,1.828-1.791,2.77a6.742,6.742,0,0,0-.954,3.242c-.19,2.759-.116,5.527-.108,8.289a5.262,5.262,0,0,1-.357,2.34c-.687,1.412-2.555,1.431-3.9,1.429l-13.3-.023a22.778,22.778,0,0,0-4.987.579,3.058,3.058,0,0,1-3.409-1.792,10.208,10.208,0,0,1-.783-4.227,91.3,91.3,0,0,0-2.376-16.671C2243.286,3227.579,2242.639,3225.554,2242.136,3223.426Z" transform="translate(-2241.425 -3208.08)" fill="#f47d31"/>
    </clipPath>
  </defs>
  <path id="Path_2" data-name="Path 2" d="M894.908,898.45c2.788,3.964,4.94,9.358,3.447,14.337-1.488,4.963-6.248,8.024-8.328,12.738-1.176,2.665-1.207,5.594-1.252,8.455-.058,3.744.673,7.72-1.857,10.884a12.315,12.315,0,0,1-6.039,3.7c-4.587,1.459-9.392,2.144-13.466,4.9-6.693,4.527-14.913,6.11-22.89,5.621a51.816,51.816,0,0,1-11.931-2.192c-4.5-1.374-8.5-3.806-13.036-5.109-7.856-2.258-18.6-2.289-23.2-10.237-3.1-5.351-4.167-11.966-1.76-17.8,1.145-2.772,3.33-4.89,4.575-7.612A17.462,17.462,0,0,0,800.21,904.1q-.072-.246-.149-.491c-1.2-3.735-3.617-6.946-4.616-10.748-2.063-7.849,2.5-16.149,8.488-21.194a25.373,25.373,0,0,1,8.3-4.836c8.358-2.744,17.644.432,26.028-2.222,6.431-2.036,11.711-7.328,18.264-8.858a18.4,18.4,0,0,1,14.755,3.153,23.826,23.826,0,0,1,8.8,13.181c1.311,4.909,1.27,10.3,3.6,14.759,1.989,3.815,5.676,5.873,8.67,8.641A18.668,18.668,0,0,1,894.908,898.45Z" transform="translate(-781.656 -855.314)" fill="#f59253" opacity="0.4"/>
  <g id="Group_23" data-name="Group 23" transform="translate(0 14.81)">
    <path id="Path_5" data-name="Path 5" d="M2204.721,2003.076a12.925,12.925,0,0,0,11.069-.945c3.177-2.038,6.072-3.51,9.981-3.439,3.493.064,6.382,1.952,9.765,2.354a9.3,9.3,0,0,0,7.354-2.727c1.9-1.832,3.159-4.624,2.333-7.129-.432-1.312-1.377-2.394-1.916-3.666-1.243-2.933,2.031-4.7,1.216-7.789-.692-2.625-3.573-4.5-3.53-7.213.032-1.987,1.57-3.528,2.112-5.366a7.3,7.3,0,0,0-.539-5.628,6.722,6.722,0,0,0-3.166-2.826c-1.184-.5-2.508-.514-3.424-1.549-1.632-1.844-2.231-3.844-4.47-5.192-1.9-1.142-4.4-1.214-6.575-1.015a16.679,16.679,0,0,0-12.247,7.058,8.454,8.454,0,0,0-1.686,4.625c-.026,1.871-.026,3.753-1.172,5.344a8.711,8.711,0,0,1-4.039,2.719,20.636,20.636,0,0,0-4.482,2.04,4.8,4.8,0,0,0-2.256,4.137c.131,1.372,1.08,2.563,1.207,3.935.229,2.495-2.174,4.307-3.655,6.327a9.828,9.828,0,0,0-.857,9.969c1.8,3.616,5.063,4.432,8.486,5.793C2204.393,2002.956,2204.557,2003.018,2204.721,2003.076Z" transform="translate(-2164.467 -1937.394)" fill="#0b2d4e"/>
    <path id="Path_7" data-name="Path 7" d="M2396.691,2376.208c-.126,3.066.584,5.368,3.388,6.884a16.489,16.489,0,0,0,7.371,1.665c4.133.1,8.738-.964,11.83-3.867a3.064,3.064,0,0,0,1.14-1.941c.037-.7-.348-1.357-.381-2.056-.057-1.178.859-2.155,1.269-3.261a7.038,7.038,0,0,0-.313-4.574,12.909,12.909,0,0,1-1.021-4.532c.095-2.019,1.308-3.782,2.28-5.555s1.736-3.929.906-5.772a4.126,4.126,0,0,0-3.185-2.3c-1.408-.156-2.674,1.453-3.576,2.34a22.088,22.088,0,0,1-4.021,3.128c-2.012,1.221-4.222,2.122-6.115,3.521a8.6,8.6,0,0,0-2.921,3.358c-.616,1.52.463,2.991-.842,4.389-.842.9-2.134,1.209-3.152,1.906C2397.168,2371.036,2396.791,2373.788,2396.691,2376.208Z" transform="translate(-2347.709 -2327.1)" fill="#061f33"/>
    <path id="Path_8" data-name="Path 8" d="M1831.5,3377.078c-2.9-4.471-4.708-9.96-2.186-15.009a2.218,2.218,0,0,1,1.106-1.25,5.066,5.066,0,0,1,3.766.625c3.521,2.066,5.676,5.953,7.653,9.412,2.055,3.593,3.84,7.334,5.905,10.922a20.031,20.031,0,0,1,2.13,4.541,7.183,7.183,0,0,1-.1,4.42c-2.318,5.987-8.693-1.347-10.633-3.562A88.584,88.584,0,0,1,1831.5,3377.078Z" transform="translate(-1759.69 -3310.817)" fill="#f59253"/>
    <g id="Group_11" data-name="Group 11" transform="translate(44.838 45.914)">
      <path id="Path_9" data-name="Path 9" d="M2242.136,3223.426c-.834-3.532-1.267-7.146.624-9.551a9.419,9.419,0,0,1,3.619-2.381c2.427-1.049,4.909-2.46,7.508-2.917a20.861,20.861,0,0,1,8.518-.09,20.215,20.215,0,0,1,4.908,2.123c1.346.759,3,1.412,3.65,2.824a96.055,96.055,0,0,1,4.154,10.576c.975,3,2.045,6.144.509,9.183-.5.985-1.221,1.828-1.791,2.77a6.742,6.742,0,0,0-.954,3.242c-.19,2.759-.116,5.527-.108,8.289a5.262,5.262,0,0,1-.357,2.34c-.687,1.412-2.555,1.431-3.9,1.429l-13.3-.023a22.778,22.778,0,0,0-4.987.579,3.058,3.058,0,0,1-3.409-1.792,10.208,10.208,0,0,1-.783-4.227,91.3,91.3,0,0,0-2.376-16.671C2243.286,3227.579,2242.639,3225.554,2242.136,3223.426Z" transform="translate(-2241.425 -3208.08)" fill="#f47d31"/>
      <g id="Group_10" data-name="Group 10" clip-path="url(#clip-path)">
        <path id="Path_10" data-name="Path 10" d="M2673.449,3158.305a4.853,4.853,0,0,1,.086-5.643,3.389,3.389,0,0,1,2.677-.878,22.5,22.5,0,0,1,5.54.587c1.728.4,3.49,1.088,4.238,2.833a4.364,4.364,0,0,1-.371,3.981,4.906,4.906,0,0,1-3,2.167,10.39,10.39,0,0,1-6.214-.387A6.493,6.493,0,0,1,2673.449,3158.305Z" transform="translate(-2662.466 -3153.234)" fill="#f59253"/>
        <path id="Path_11" data-name="Path 11" d="M2315.718,3873.607q.021-4.062.041-8.125c0-.943-.607-6.682.859-6.616a.831.831,0,0,1,.432.181,4.849,4.849,0,0,1,1.446,2.226c1.069,2.6,1.967,6.766,4.191,8.587,2.262,1.851,5.74,2.632,8.551,3.076,3.282.519,6.619.557,9.936.759,2.146.131,4.513.439,5.922,2.062a14.342,14.342,0,0,1,2.056,4.312c.47,1.238.844,2.707-.109,3.828a4.449,4.449,0,0,1-1.539,1.06,25.033,25.033,0,0,1-6.59,1.845,90.105,90.105,0,0,1-19.153.972,5.989,5.989,0,0,1-3.86-1.128,5.327,5.327,0,0,1-1.356-2.69A40.979,40.979,0,0,1,2315.718,3873.607Z" transform="translate(-2316.578 -3842.069)" fill="#f47d31"/>
      </g>
    </g>
    <path id="Path_13" data-name="Path 13" d="M2425.084,2602.377c2.42,2.49.225,8.574-3.634,7.693-4.147-.946-3.523-7.409.227-8.47A3.278,3.278,0,0,1,2425.084,2602.377Z" transform="translate(-2350.859 -2571.177)" fill="#9b87ff"/>
    <path id="Path_14" data-name="Path 14" d="M2179.125,1967.38a12.14,12.14,0,0,1-7.147-1.037,7.861,7.861,0,0,1-4.2-7.135,10.02,10.02,0,0,1,1.717-6.264c1.448-1.912,3.874-3.088,4.774-5.312a4.273,4.273,0,0,0-.709-4.514,3.164,3.164,0,0,1-1.214-2.572,5.661,5.661,0,0,1,2.561-3.911,14.96,14.96,0,0,1,6.4-1.97c1.485-.189,2.965-.606,3.424-2.206a11.757,11.757,0,0,0,.245-2.66c.1-1.891.237-3.783.52-5.656a10.618,10.618,0,0,1,3.293-5.738q.337-.321.7-.614c4.033-3.267,11.5-4.425,15.947-1.4a6.891,6.891,0,0,1,2.917,4.419c.226,1.207.553,1.467,1.732,1.833,2.143.665,4.574,1.137,6.275,2.708a5.879,5.879,0,0,1,1.766,4.877c-.226,2.28-1.82,3.371-2.962,5.178-1.165,1.844-.249,4.166,1.1,5.688,1.042,1.172,2.521,2.029,3.11,3.483a5.139,5.139,0,0,1-.471,4.17c-.265.521-.577,1.019-.811,1.555a6.024,6.024,0,0,0,.194,5.157" transform="translate(-2137.933 -1902.107)" fill="none" stroke="#0b2d4e" stroke-miterlimit="10" stroke-width="15"/>
    <path id="Path_15" data-name="Path 15" d="M3251.8,3373.5q-1.113,2.007-2.2,4.027c-1.469,2.737-4.2,8.82.17,10.323,2.2.757,3.459.017,4.914-1.586A92.669,92.669,0,0,0,3268.6,3366.1c1.384-2.715,5.059-9.79.6-11.406a5.42,5.42,0,0,0-4.354.318,8.765,8.765,0,0,0-1.65,1.218,37.306,37.306,0,0,0-7.555,10.338C3254.372,3368.894,3253.08,3371.191,3251.8,3373.5Z" transform="translate(-3217.487 -3304.694)" fill="#f59253"/>
    <path id="Path_16" data-name="Path 16" d="M2722.295,2910.951a4.062,4.062,0,0,1-2.834-2.566c-.372-1.192.215-2.532.319-3.735a22.782,22.782,0,0,0,.038-3.466,14.993,14.993,0,0,1-.008-3.242c.093-.608.427-.5,1.042-.745a5.368,5.368,0,0,1,1.973-.242c1.368,0,4.934-.1,5.78,1.1a3.374,3.374,0,0,1,.437,1.9c.022.792.163,1.818.292,2.923.058.492.022.982.1,1.471a9.251,9.251,0,0,0,.474,1.6,3.564,3.564,0,0,1-2.1,4.775A8.468,8.468,0,0,1,2722.295,2910.951Z" transform="translate(-2662.692 -2859.071)" fill="#ffba99"/>
    <path id="Path_17" data-name="Path 17" d="M2734.519,2897.943c.093-.608.427-.5,1.042-.745a5.368,5.368,0,0,1,1.973-.242c1.368,0,4.934-.1,5.78,1.1a3.376,3.376,0,0,1,.437,1.9c.022.792.163,1.818.292,2.923.058.492.022.982.1,1.471a6.809,6.809,0,0,0,.342,1.22,7.25,7.25,0,0,1-4.207.262,9.6,9.6,0,0,1-5.726-4.181c-.007-.157-.011-.313-.021-.47A14.977,14.977,0,0,1,2734.519,2897.943Z" transform="translate(-2677.395 -2859.071)" fill="#fcaa83"/>
    <path id="Path_18" data-name="Path 18" d="M2492.387,2223.373a16.724,16.724,0,0,1,.733-5c2.028-6.208,9.772-7.742,14.436-3.286,5.2,4.97,3.21,16.853-2.268,21.027a6.146,6.146,0,0,1-5.234,1.031C2494.673,2235.7,2492.353,2229.08,2492.387,2223.373Z" transform="translate(-2437.248 -2192.311)" fill="#ffba99"/>
    <path id="Path_19" data-name="Path 19" d="M3092.641,2627.358c-2.383-1.3-3.116,2-2.706,3.638a5.235,5.235,0,0,0,.858,1.9c.567.751,2.188,2,3.122,1.176a2.088,2.088,0,0,0,.48-1.571C3094.43,2630.985,3094.256,2628.242,3092.641,2627.358Z" transform="translate(-3036.485 -2596.143)" fill="#f8a17a"/>
    <g id="Group_12" data-name="Group 12" transform="translate(55.719 37.704)">
      <path id="Path_20" data-name="Path 20" d="M2797.215,2894.382a12.122,12.122,0,0,0,1.761-.13l-.105-.715a10.856,10.856,0,0,1-6.167-.861,7.984,7.984,0,0,1-1.334-.767,6.3,6.3,0,0,1-1.729-1.906l-.624.365a7.026,7.026,0,0,0,1.928,2.126,8.659,8.659,0,0,0,1.455.837A11.426,11.426,0,0,0,2797.215,2894.382Z" transform="translate(-2789.017 -2890.004)" fill="#8070f2"/>
    </g>
    <g id="Group_13" data-name="Group 13" transform="translate(64.032 40.142)">
      <path id="Path_21" data-name="Path 21" d="M2695.991,2984.975a2.875,2.875,0,0,0-3.448.093,1.272,1.272,0,0,0,.192,1.792,2.216,2.216,0,0,0,2.148.369C2695.847,2987.011,2697.041,2985.876,2695.991,2984.975Z" transform="translate(-2692.256 -2984.448)" fill="#8070f2"/>
    </g>
    <path id="Path_22" data-name="Path 22" d="M2517.192,2216.632c2.135-6.537,10.289-8.151,15.2-3.459a9.673,9.673,0,0,1,2.388,3.849,4.547,4.547,0,0,1-.379.509,7.3,7.3,0,0,1-2.539,1.723,36.5,36.5,0,0,1-8.639,2.56c-.218.041-.437.081-.656.124a7.325,7.325,0,0,0-2.335.781c-2.011,1.186-1.146,3.794-2.62,4.937a1.409,1.409,0,0,1-.4.218,22,22,0,0,1-.788-5.978A17.6,17.6,0,0,1,2517.192,2216.632Z" transform="translate(-2462.066 -2190.312)" fill="#fcaa83"/>
    <path id="Path_23" data-name="Path 23" d="M2557.433,2140.9a7.332,7.332,0,0,0-2.181,1.143c-1.8,1.492-.527,3.928-1.8,5.291-1.128,1.208-2.84-.388-3.288-1.5a16.291,16.291,0,0,1-.717-6.557,13.763,13.763,0,0,1,.433-3.668,9.022,9.022,0,0,1,2.08-3.426,13.341,13.341,0,0,1,10.5-4.094c3.021.19,8.322,2.729,5.953,6.576a7.3,7.3,0,0,1-2.232,2.105,36.508,36.508,0,0,1-8.121,3.9C2557.853,2140.752,2557.642,2140.826,2557.433,2140.9Z" transform="translate(-2497.144 -2110.025)" fill="#0b2d4e"/>
    <path id="Path_24" data-name="Path 24" d="M3077.594,2598.447c3.363.862,4.663,7.2.911,8.459-4.032,1.355-6.87-4.484-4.223-7.345A3.277,3.277,0,0,1,3077.594,2598.447Z" transform="translate(-3022.438 -2568.17)" fill="#9b87ff"/>
    <path id="Path_25" data-name="Path 25" d="M3141.526,2632.851c2.322.373,3.752,5.306,1.359,6.663-2.571,1.459-4.984-2.934-3.471-5.464A2.061,2.061,0,0,1,3141.526,2632.851Z" transform="translate(-3087.473 -2601.761)" fill="#8070f2"/>
    <g id="Group_14" data-name="Group 14" transform="translate(53.341 14.763)">
      <path id="Path_26" data-name="Path 26" d="M2592.131,2017.088l.9-.1c-.608-5.259-.349-11.977,4.341-14.123,2.221-1.016,8.582-2.144,11.381,1.634.337.378.562.7.562.7-1.736-5.357-9.922-4.247-12.319-3.15C2591.81,2004.412,2591.488,2011.532,2592.131,2017.088Z" transform="translate(-2591.888 -2001.131)" fill="#9b87ff"/>
    </g>
    <rect id="Rectangle_35" data-name="Rectangle 35" width="128.994" height="5.932" transform="translate(0 83.789)" fill="#fff"/>
    <g id="Group_16" data-name="Group 16" transform="translate(70.524 55.9)">
      <rect id="Rectangle_36" data-name="Rectangle 36" width="18.359" height="3.594" transform="translate(0 24.312)" fill="#9b87ff"/>
      <g id="Group_15" data-name="Group 15" transform="translate(15.183)">
        <path id="Path_27" data-name="Path 27" d="M491.953,3619.679l4.633-23.588a1.329,1.329,0,0,1,1.3-1.073h30.8a1.317,1.317,0,0,1,1.068.548l0,0,1.422,1.682-1.262-.277-4.562,23.224a1.329,1.329,0,0,1-1.3,1.073h-30.8A1.328,1.328,0,0,1,491.953,3619.679Z" transform="translate(-491.928 -3595.018)" fill="#9b87ff"/>
        <path id="Path_28" data-name="Path 28" d="M514.628,3685.621h-30.8a1.329,1.329,0,0,1-1.3-1.585l4.633-23.588a1.328,1.328,0,0,1,1.3-1.073h30.8a1.329,1.329,0,0,1,1.3,1.585l-4.633,23.588A1.329,1.329,0,0,1,514.628,3685.621Z" transform="translate(-481.09 -3657.715)" fill="#201c66"/>
        <path id="Path_29" data-name="Path 29" d="M1092.862,4036.434a3.6,3.6,0,0,1-3.4,2.881,2.31,2.31,0,0,1-2.325-2.881,3.637,3.637,0,0,1,3.4-2.881A2.33,2.33,0,0,1,1092.862,4036.434Z" transform="translate(-1069.012 -4022.235)" fill="#9b87ff"/>
      </g>
      <path id="Path_30" data-name="Path 30" d="M482.5,3701.894" transform="translate(-427.814 -3699.135)" fill="#3f91ac"/>
    </g>
    <g id="Group_22" data-name="Group 22" transform="translate(5.784)">
      <rect id="Rectangle_38" data-name="Rectangle 38" width="37.502" height="22.772" rx="11.386" transform="translate(0 0)" fill="#f47d31"/>
      <path id="Path_35" data-name="Path 35" d="M3856.055,2148.712v-10.465l-8.2,4.47Z" transform="translate(-3823.489 -2119.945)" fill="#f47d31"/>
      <rect id="Rectangle_39" data-name="Rectangle 39" width="18.565" height="1.987" rx="0.993" transform="translate(13.225 10.425)" fill="#fff"/>
      <rect id="Rectangle_40" data-name="Rectangle 40" width="6.085" height="1.987" rx="0.993" transform="translate(5.712 10.425)" fill="#fff"/>
      <path id="Path_36" data-name="Path 36" d="M4186.593,1658.231h-16.579a1,1,0,0,0-.994.993h0a1,1,0,0,0,.994.994h16.579a1,1,0,0,0,.993-.994h0A1,1,0,0,0,4186.593,1658.231Z" transform="translate(-4163.309 -1652.318)" fill="#fff"/>
      <path id="Path_37" data-name="Path 37" d="M3883.022,1658.231h-4.1a1,1,0,0,0-.993.993h0a1,1,0,0,0,.993.994h4.1a1,1,0,0,0,.993-.994h0A1,1,0,0,0,3883.022,1658.231Z" transform="translate(-3852.226 -1652.318)" fill="#fff"/>
      <path id="Path_38" data-name="Path 38" d="M3878.924,1994.85h11.052a1,1,0,0,0,.993-.993h0a1,1,0,0,0-.993-.993h-11.052a1,1,0,0,0-.993.993h0A1,1,0,0,0,3878.924,1994.85Z" transform="translate(-3859.18 -1978.313)" fill="#fff"/>
    </g>
    <path id="Path_39" data-name="Path 39" d="M2978.656,4345.332q-.563-.1-1.129-.186-2.748-.431-5.472-1.023a91.949,91.949,0,0,0-10.867-1.8q-.582-.056-1.164-.1a8.89,8.89,0,0,0-4.86.62,4.332,4.332,0,0,0-2.329,4.428,3.9,3.9,0,0,0,2.286,2.68,9.837,9.837,0,0,0,3.4.637l11.206.754q2.774.185,5.548.38c1.766.123,3.559.372,5.33.37a3.553,3.553,0,0,0,2.215-.641,5.041,5.041,0,0,0,1.487-3.33,2.029,2.029,0,0,0-.533-1.7,1.855,1.855,0,0,0-.861-.315C2981.489,4345.847,2980.077,4345.574,2978.656,4345.332Z" transform="translate(-2922.859 -4266.972)" fill="#f59253"/>
    <path id="Path_40" data-name="Path 40" d="M2404.814,4499.383c.9.186,1.609.979,2.508,1.245a3.085,3.085,0,0,0,1.945-.143c.567-.212,1.143-.326,1.725-.513a3.46,3.46,0,0,1,1.553-.35,16.416,16.416,0,0,1,3.708,1.765,1.35,1.35,0,0,0,.832.215c.287-.055.526-.4.363-.645.333.311.774.933,1.311.692a.449.449,0,0,0,.23-.6,1.814,1.814,0,0,0,.634.512.622.622,0,0,0,.74-.172.737.737,0,0,0,.1-.37,2.789,2.789,0,0,0-.3-1.285c-.911-1.989-2.973-3.465-4.727-4.65a3.773,3.773,0,0,0-.985-.532,3.44,3.44,0,0,0-1-.11,19.844,19.844,0,0,0-6.413,1.036,2.778,2.778,0,0,1-1.382-.061,2.146,2.146,0,0,0-.995-.029,1.713,1.713,0,0,0-.858.694,3.221,3.221,0,0,0-.663,2c.037.533.077,1.109.7,1.221.254.045.516.017.773.044A1.882,1.882,0,0,1,2404.814,4499.383Z" transform="translate(-2344.826 -4415.332)" fill="#ffba99"/>
  </g>
</svg>
