<svg xmlns="http://www.w3.org/2000/svg" xmlns:xlink="http://www.w3.org/1999/xlink" width="119.156" height="117.866" viewBox="0 0 119.156 117.866">
  <defs>
    <clipPath id="clip-path">
      <ellipse id="Ellipse_769" data-name="Ellipse 769" cx="12.951" cy="12.442" rx="12.951" ry="12.442" transform="translate(779.613 2472.867) rotate(-32.731)" fill="#dde6f5"/>
    </clipPath>
    <clipPath id="clip-path-2">
      <ellipse id="Ellipse_12" data-name="Ellipse 12" cx="12.511" cy="12.019" rx="12.511" ry="12.019" transform="matrix(0.841, -0.541, 0.541, 0.841, 0, 13.529)" fill="#dde6f5"/>
    </clipPath>
  </defs>
  <g id="Group_11646" data-name="Group 11646" transform="translate(-951.266 -2516.82)">
    <g id="Group_176" data-name="Group 176" transform="translate(887.668 2464.019)">
      <g id="Device" transform="translate(86.899 52.801)">
        <g id="Group_47" data-name="Group 47" transform="translate(0 0)">
          <g id="Group_46" data-name="Group 46">
            <g id="Group_42" data-name="Group 42">
              <g id="Group_41" data-name="Group 41">
                <g id="Group_39" data-name="Group 39">
                  <path id="Path_27" data-name="Path 27" d="M204.862,211.186,164.871,211a8.711,8.711,0,0,1-8.671-8.748l.424-100.258a8.711,8.711,0,0,1,8.752-8.674l39.991.185a8.712,8.712,0,0,1,8.671,8.748l-.424,100.259A8.712,8.712,0,0,1,204.862,211.186Z" transform="translate(-156.2 -93.32)" fill="#263238"/>
                </g>
                <g id="Group_40" data-name="Group 40" transform="translate(2.656 3.46)">
                  <path id="Path_28" data-name="Path 28" d="M210.324,103.5l-7.754-.036a1.927,1.927,0,0,0-1.891,1.96l-.006,1.406a1.926,1.926,0,0,1-1.891,1.959l-15.113-.07a1.928,1.928,0,0,1-1.875-1.977l.006-1.406a1.928,1.928,0,0,0-1.875-1.977l-2.727-.012-6.786-.032a6.1,6.1,0,0,0-6.129,6.075l-.413,97.86a6.1,6.1,0,0,0,6.073,6.127l39.911.184a6.1,6.1,0,0,0,6.129-6.075l.414-97.86A6.1,6.1,0,0,0,210.324,103.5Z" transform="translate(-163.87 -103.314)" fill="#fafafa"/>
                </g>
              </g>
            </g>
            <g id="Group_43" data-name="Group 43" transform="translate(24.875 103.626)">
              <path id="Path_29" data-name="Path 29" d="M229.69,393.319a.833.833,0,1,1-.821-.712A.772.772,0,0,1,229.69,393.319Z" transform="translate(-228.043 -392.608)" fill="#455a64"/>
            </g>
            <g id="Group_44" data-name="Group 44" transform="translate(27.427 103.638)">
              <path id="Path_30" data-name="Path 30" d="M237.06,393.353a.833.833,0,1,1-.82-.712A.772.772,0,0,1,237.06,393.353Z" transform="translate(-235.413 -392.642)" fill="#455a64"/>
            </g>
            <g id="Group_45" data-name="Group 45" transform="translate(29.978 103.65)">
              <path id="Path_31" data-name="Path 31" d="M244.429,393.387a.833.833,0,1,1-.821-.711A.772.772,0,0,1,244.429,393.387Z" transform="translate(-242.782 -392.676)" fill="#455a64"/>
            </g>
          </g>
        </g>
      </g>
      <g id="Speech_Bubbles" data-name="Speech Bubbles" transform="translate(63.598 73.843)">
        <g id="Group_56" data-name="Group 56" transform="translate(34.992)">
          <path id="Path_37" data-name="Path 37" d="M271.076,154.092H193.018a3.053,3.053,0,0,0-3.053,3.053v24.213a3.053,3.053,0,0,0,3.053,3.053h5.815c.468,2.528,1.017,5.719,1.017,5.719l5.264-5.719h65.963a3.053,3.053,0,0,0,3.052-3.053V157.145A3.053,3.053,0,0,0,271.076,154.092Z" transform="translate(-189.965 -154.092)" fill="#f47d31"/>
          <g id="Group_55" data-name="Group 55" transform="translate(7.407 9.322)">
            <g id="Group_51" data-name="Group 51" transform="translate(0 3.722)">
              <path id="Path_38" data-name="Path 38" d="M252.856,191.855c0,.05-9.29.09-20.748.09s-20.75-.04-20.75-.09,9.289-.09,20.75-.09S252.856,191.805,252.856,191.855Z" transform="translate(-211.358 -191.765)" fill="#f5f5f5" stroke="#fff" stroke-width="0.5"/>
            </g>
            <g id="Group_52" data-name="Group 52">
              <path id="Path_39" data-name="Path 39" d="M252.856,181.105c0,.05-9.29.09-20.748.09s-20.75-.041-20.75-.09,9.289-.09,20.75-.09S252.856,181.055,252.856,181.105Z" transform="translate(-211.358 -181.015)" fill="#f5f5f5" stroke="#fff" stroke-width="0.5"/>
            </g>
            <g id="Group_53" data-name="Group 53" transform="translate(0 7.403)">
              <path id="Path_40" data-name="Path 40" d="M252.856,202.486c0,.05-9.29.09-20.748.09s-20.75-.041-20.75-.09,9.289-.09,20.75-.09S252.856,202.436,252.856,202.486Z" transform="translate(-211.358 -202.396)" fill="#f5f5f5" stroke="#fff" stroke-width="0.5"/>
            </g>
            <g id="Group_54" data-name="Group 54" transform="translate(0 11.216)">
              <path id="Path_41" data-name="Path 41" d="M238.54,213.5c0,.05-6.085.09-13.59.09s-13.592-.04-13.592-.09,6.084-.09,13.592-.09S238.54,213.449,238.54,213.5Z" transform="translate(-211.358 -213.408)" fill="#f5f5f5" stroke="#fff" stroke-width="0.5"/>
            </g>
          </g>
        </g>
        <g id="Group_62" data-name="Group 62" transform="translate(0 43.531)">
          <path id="Path_42" data-name="Path 42" d="M169.737,279.816h-78.7a2.136,2.136,0,0,0-2.136,2.136v25.617a2.136,2.136,0,0,0,2.136,2.136h57.157l5.2,5.653s.546-3.177,1.005-5.653h15.333a2.136,2.136,0,0,0,2.136-2.136V281.952A2.136,2.136,0,0,0,169.737,279.816Z" transform="translate(-88.902 -279.816)" fill="#241f7f"/>
          <g id="Group_61" data-name="Group 61" transform="translate(36.249 9.398)">
            <g id="Group_57" data-name="Group 57" transform="translate(0 3.722)">
              <path id="Path_43" data-name="Path 43" d="M235.093,317.8c0,.05-9.291.09-20.748.09s-20.75-.04-20.75-.09,9.288-.09,20.75-.09S235.093,317.748,235.093,317.8Z" transform="translate(-193.595 -317.708)" fill="#f5f5f5" stroke="#fff" stroke-width="0.5"/>
            </g>
            <g id="Group_58" data-name="Group 58">
              <path id="Path_44" data-name="Path 44" d="M235.093,307.048c0,.049-9.291.09-20.748.09s-20.75-.041-20.75-.09,9.288-.09,20.75-.09S235.093,307,235.093,307.048Z" transform="translate(-193.595 -306.958)" fill="#f5f5f5" stroke="#fff" stroke-width="0.5"/>
            </g>
            <g id="Group_59" data-name="Group 59" transform="translate(0 7.403)">
              <path id="Path_45" data-name="Path 45" d="M235.093,328.429c0,.05-9.291.09-20.748.09s-20.75-.04-20.75-.09,9.288-.09,20.75-.09S235.093,328.379,235.093,328.429Z" transform="translate(-193.595 -328.339)" fill="#f5f5f5" stroke="#fff" stroke-width="0.5"/>
            </g>
            <g id="Group_60" data-name="Group 60" transform="translate(0 11.216)">
              <path id="Path_46" data-name="Path 46" d="M220.777,339.441c0,.05-6.086.09-13.59.09s-13.592-.041-13.592-.09,6.084-.09,13.592-.09S220.777,339.392,220.777,339.441Z" transform="translate(-193.595 -339.351)" fill="#f5f5f5" stroke="#fff" stroke-width="0.5"/>
            </g>
          </g>
        </g>
      </g>
    </g>
    <g id="Mask_Group_18" data-name="Mask Group 18" transform="translate(172 119.812)" clip-path="url(#clip-path)">
      <ellipse id="Ellipse_768" data-name="Ellipse 768" cx="12.493" cy="12.644" rx="12.493" ry="12.644" transform="translate(783.207 2465.07) rotate(-7.171)" fill="#c2d4ea" style="mix-blend-mode: multiply;isolation: isolate"/>
      <g id="Group_11642" data-name="Group 11642" transform="translate(780.877 2473.633) rotate(-19)">
        <path id="Path_40545" data-name="Path 40545" d="M.119,0,4.075,1.421,4,1.7,1.013,3.936,0,.23Z" transform="translate(12.478 10.145)" fill="#a2a7af" fill-rule="evenodd"/>
        <path id="Path_40546" data-name="Path 40546" d="M6,0,5.376,1.641,2.02,2.167,0,7.79l4.722,1.7,4.722,1.7,2.02-5.622L9.438,3l.451-1.7Z" transform="translate(6.881 9.419)" fill="#fcaa83" fill-rule="evenodd"/>
        <path id="Path_40547" data-name="Path 40547" d="M1.139,3.241A.456.456,0,0,0,.611,2.85C.116,2.87-.06,4.778.018,5.081s.4.244.5.268C.28,6.44.035,7.162.293,7.751a13.734,13.734,0,0,0,1.214,2.2,5.462,5.462,0,0,0,.746.4,5.442,5.442,0,0,0,.832.164A13.746,13.746,0,0,0,5.42,9.593c.575-.289.845-1,1.356-1.994.093.045.3.295.556.11s1.331-1.769.962-2.1a.456.456,0,0,0-.657-.035,3.98,3.98,0,0,0,.645-2.84A3.606,3.606,0,0,0,5.883.247,3.607,3.607,0,0,0,2.449.64a3.979,3.979,0,0,0-1.309,2.6Z" transform="translate(12.182 0.89)" fill="#ffba99" fill-rule="evenodd"/>
        <path id="Path_40548" data-name="Path 40548" d="M4.306.315,5.073.292,5.789,0l1.39,2.136.476.171,2.433-.765.942,1.189.821,4.339L8.12,13.481,0,10.564l.162-7.37L4.306.315Z" transform="translate(6.402 10.737)" fill="#38b8c7" fill-rule="evenodd"/>
        <path id="Path_40549" data-name="Path 40549" d="M2.925,1.229,2.5,0,0,1.478l.9,2.2Z" transform="translate(14.058 11.566)" fill="#38b6d0" fill-rule="evenodd"/>
        <path id="Path_40550" data-name="Path 40550" d="M.05.657,1.158,0l.985,2.728L0,3.813Z" transform="translate(11.438 10.145)" fill="#38b6d0" fill-rule="evenodd"/>
        <path id="Path_40551" data-name="Path 40551" d="M10.5.174,4.788,0a.613.613,0,0,0-.546.322L0,7.4A15.127,15.127,0,0,0,.992,9.085l2.388.858.811-1.084a.064.064,0,0,1,.112.056l-.387,1.22,5.032,1.808Z" transform="translate(0.988 10.627)" fill="#fff" fill-rule="evenodd"/>
        <path id="Path_40552" data-name="Path 40552" d="M3.154.03,2.5,0,0,2.091l1.937.765L.488,3.108l.7,8.541L1.6,11.8Z" transform="translate(8.334 10.772)" fill="#ecf0f3" fill-rule="evenodd"/>
        <path id="Path_40553" data-name="Path 40553" d="M6.284,0l4.525,3.484a.612.612,0,0,1,.216.6L9.79,12.242a15.1,15.1,0,0,1-1.835.666L5.567,12.05,5.631,10.7a.063.063,0,0,0-.122-.028l-.478,1.188L0,10.05Z" transform="translate(10.698 12.794)" fill="#ecf0f3" fill-rule="evenodd"/>
        <path id="Path_40554" data-name="Path 40554" d="M6.284,0l.29.216L7.406,3.6,5.425,2.954l.957,1.117L.417,10.2,0,10.05Z" transform="translate(10.699 12.795)" fill="#fff" fill-rule="evenodd"/>
        <path id="Path_40555" data-name="Path 40555" d="M6.345,6.741l.3.1.22-.309.385-.181c.694-1.343,1.537-3.517.115-3.956,0,0,.448-1.645-2.188-2.238S.819.78.467,2.188A7.19,7.19,0,0,1,0,3.742l.182.385-.1.406.253.073a6.656,6.656,0,0,1,.426-.7,2.722,2.722,0,0,0,.3-.676s2.913,1.261,4.087.526c.725-.454,2.261-1.14,1.774.4-.145.456-.555,1.071-.411,1.678a.946.946,0,0,1-.172.905Z" transform="translate(12.956 0)" fill="#122488" fill-rule="evenodd"/>
        <path id="Path_40556" data-name="Path 40556" d="M.762,9.971l1.127-1.8L3.968.66,4.312.64,4.121.171,3.645,0,3.193.228l.258.246L.27,7.654,0,9.7Z" transform="translate(9.936 12.873)" fill="#1e8394" fill-rule="evenodd"/>
        <path id="Path_40557" data-name="Path 40557" d="M1.066,0,0,1.074,3,2.152,2.446.709Z" transform="translate(0 17.927)" fill="#fff" fill-rule="evenodd"/>
      </g>
    </g>
    <g id="Group_11645" data-name="Group 11645" transform="translate(1035.613 2536.613)">
      <ellipse id="Ellipse_10" data-name="Ellipse 10" cx="12.068" cy="12.214" rx="12.068" ry="12.214" transform="matrix(0.992, -0.125, 0.125, 0.992, 5.326, 7.233)" fill="#c2d4ea" style="mix-blend-mode: multiply;isolation: isolate"/>
      <g id="Group_19" data-name="Group 19" transform="translate(0 0)">
        <ellipse id="Ellipse_11" data-name="Ellipse 11" cx="12.511" cy="12.019" rx="12.511" ry="12.019" transform="matrix(0.841, -0.541, 0.541, 0.841, 0, 13.529)" fill="#dde6f5"/>
        <g id="Group_18" data-name="Group 18" clip-path="url(#clip-path-2)">
          <g id="Group_17" data-name="Group 17" transform="translate(5.684 8.367)">
            <path id="Path_127" data-name="Path 127" d="M864.053,672.626c-.438.283-1.687.108-2.1.341a4.895,4.895,0,0,1-2.2.194c.074-2.009,1.085-4.042,1.171-5.89.761,1.7,1.659.766,2.54-.4C863.373,668.681,864.1,670.808,864.053,672.626Z" transform="translate(-851.23 -657.753)" fill="#ffc2b0"/>
            <path id="Path_128" data-name="Path 128" d="M864.838,668.708a2.433,2.433,0,0,0,.273.565,1.574,1.574,0,0,0,.925.671,1.489,1.489,0,0,0,1.292-.394c.117-.1.23-.2.34-.3a11.872,11.872,0,0,1-.2-2.375c-.881,1.163-1.779,2.1-2.54.4a1.366,1.366,0,0,1-.043.5c-.023.183-.062.364-.088.546A.929.929,0,0,0,864.838,668.708Z" transform="translate(-855.24 -657.753)" fill="#f4b7a8"/>
            <path id="Path_129" data-name="Path 129" d="M849.862,689.7c-.067-.693-.135-1.386-.21-2.078q-.092-.841-.2-1.678c-.073-.573-.141-1.159-.218-1.75a20.771,20.771,0,0,0-1.058-5.213.706.706,0,0,1-.044-.139,23.2,23.2,0,0,0-3.174-.93c0,.548-.482,1.838-1.573,1.827-.681-.006-1.466-.99-1.466-1.827a18.684,18.684,0,0,0-3.248.945c-.54.112-1,3.215-1.083,3.617-.341,1.744-.714,3.452-1.008,5.2l-.009.051q-.166.989-.323,1.978Z" transform="translate(-832.55 -666.527)" fill="#231e7f"/>
            <path id="Path_130" data-name="Path 130" d="M824.314,682.5l.029-.006a17.184,17.184,0,0,0-2.3,1.18,6.944,6.944,0,0,0-2.451,2.39,13.373,13.373,0,0,0-1.4,3,3.8,3.8,0,0,0,1.175,1.319,13.617,13.617,0,0,0,2.274,1.075c.344-.6.655-.97.795-1.294.241-1.272.547-2.769.8-4.05C823.31,685.713,823.774,682.611,824.314,682.5Z" transform="translate(-818.191 -670.17)" fill="#231e7f"/>
            <path id="Path_131" data-name="Path 131" d="M898.767,685.893a6.271,6.271,0,0,0-2.273-2.423c-.621-.357-2.3-1.029-2.262-1.021.01.047.887,3.7,1.1,5.353.077.59.072.6.145,1.177a7.648,7.648,0,0,0,1.166,2.537,10.539,10.539,0,0,0,2.155-1.041,3.352,3.352,0,0,0,1.12-1.076A16.326,16.326,0,0,0,898.767,685.893Z" transform="translate(-878.648 -670.135)" fill="#231e7f"/>
            <path id="Path_132" data-name="Path 132" d="M856.475,637.986a5.712,5.712,0,0,0,.771,2.482,2.777,2.777,0,0,0,2.162,1.326A3.2,3.2,0,0,0,862.133,640a8.348,8.348,0,0,0,.786-3.259,5.086,5.086,0,0,0-.272-2.785,1.988,1.988,0,0,0-.661-.768,2.409,2.409,0,0,0-.673-.29,4.126,4.126,0,0,0-3.1.339C856.372,634.271,856.267,636.178,856.475,637.986Z" transform="translate(-848.568 -630.618)" fill="#ffc2b0"/>
            <path id="Path_133" data-name="Path 133" d="M859.472,625.945a6.82,6.82,0,0,0-.252-.908,4.767,4.767,0,0,0-1.859-2.3,4.464,4.464,0,0,0-3.168-.175c-.242.092-.486.175-.724.281a1.983,1.983,0,0,0-.213.117,1.616,1.616,0,0,0-.328.523,1.318,1.318,0,0,0-.052.186,3.622,3.622,0,0,0-1.706,2.962c.192.558.3,1.162.436,1.712.118.465.231.926.325,1.389a.379.379,0,0,0,.281-.1.792.792,0,0,0,.187-.569l.094-1.8a.707.707,0,0,1,.071-.326.4.4,0,0,1,.037-.042,1.767,1.767,0,0,1,.191-.44,2.418,2.418,0,0,1,.916-.969.917.917,0,0,1,.187-.278c.882-.9,2.3-.53,3.283-.015a2.452,2.452,0,0,1,1.208,1.246,2.6,2.6,0,0,1-.048,1.688q.011.46.022.919c.007.307.066.685.363.773a.5.5,0,0,0,.449-.123c-.015-.6-.03-1.192.006-1.785A15.477,15.477,0,0,1,859.472,625.945Z" transform="translate(-844.411 -622.366)" fill="#915151"/>
            <path id="Path_134" data-name="Path 134" d="M854.505,654.4c-.019-.464-.112-.955-.1-1.421a.391.391,0,0,0-.2-.058.369.369,0,0,0-.229.039.576.576,0,0,0-.212.37,2.821,2.821,0,0,0-.034,1.413,1.451,1.451,0,0,0,.827,1.006.2.2,0,0,0,.143.014A6.438,6.438,0,0,1,854.505,654.4Z" transform="translate(-846.383 -646.659)" fill="#f4b7a8"/>
            <path id="Path_135" data-name="Path 135" d="M886.166,653.333a.529.529,0,0,0-.184-.37.357.357,0,0,0-.227-.039.762.762,0,0,0-.473.258.217.217,0,0,0-.053.027c0,.272-.012.545-.022.823a8.344,8.344,0,0,1-.112,1.4,3.943,3.943,0,0,1-.107.384.576.576,0,0,0,.2-.058,1.608,1.608,0,0,0,.9-1.006A2.827,2.827,0,0,0,886.166,653.333Z" transform="translate(-871.299 -646.659)" fill="#f4b7a8"/>
          </g>
        </g>
      </g>
    </g>
  </g>
</svg>
