<svg xmlns="http://www.w3.org/2000/svg" xmlns:xlink="http://www.w3.org/1999/xlink" width="152.856" height="95" viewBox="0 0 152.856 95">
  <defs>
    <clipPath id="clip-path">
      <path id="Path_11" data-name="Path 11" d="M1807.88,954.768c1.029-3.757,1.562-7.6-.769-10.16a11.914,11.914,0,0,0-4.464-2.533c-2.995-1.116-6.056-2.617-9.262-3.1a29.762,29.762,0,0,0-10.507-.1,27.169,27.169,0,0,0-6.054,2.258c-2.568,1.249-4.4,2.088-5.221,4.656a43.3,43.3,0,0,0-1.778,8.718c-.906,8.612.292,17.246.264,25.862a4.908,4.908,0,0,0,.44,2.489c.848,1.5,3.152,1.522,4.812,1.52l16.412-.025a32.405,32.405,0,0,1,6.152.616,3.941,3.941,0,0,0,4.2-1.907,9.555,9.555,0,0,0,.966-4.5,84.664,84.664,0,0,1,2.931-17.734C1806.462,959.187,1807.26,957.033,1807.88,954.768Z" transform="translate(-1769.485 -938.445)" fill="#241f7f"/>
    </clipPath>
    <clipPath id="clip-path-2">
      <path id="Path_45" data-name="Path 45" d="M2372.769,766.753a2.691,2.691,0,0,1-2.466-1.036c-1.248-1.788-3.153-3.393-5.29-1.575-1.232,1.048-.306,3.205-1.367,4.243-.937.917-2.131.766-2.61,2.289-.706,2.24,1.519,4.2,2.232,6.14.6,1.626-.748,2.245-1.354,3.512a3.2,3.2,0,0,0,.282,2.956c.9,1.646,2.886,2.972,2.425,5.1-.385,1.779-.742,3.365.828,4.713,1.076.924,3.073,1.767,2.921,3.478a18.1,18.1,0,0,1-.588,1.718,2.889,2.889,0,0,0,1.141,2.512,24.271,24.271,0,0,1,4.248,4.722c.518.793,2.589,2.584,1.761,3.668,1.505-1.971,3.1-3.882,4.463-5.954,1.125-1.7,2.82-4.2,1.666-6.3-.359-.653-1.026-1.139-1.209-1.862-.33-1.3.952-2.513,1.427-3.623a4.657,4.657,0,0,0-1.118-5.073,3.9,3.9,0,0,1-1.391-2.173,7.149,7.149,0,0,1,.769-2.723,13.6,13.6,0,0,0,.5-2.516,5.247,5.247,0,0,0-.051-1.785c-.266-1.106-1.263-1.722-2-2.507-1.756-1.869-.833-4.067-1.6-6.239C2375.7,766.5,2374.2,766.762,2372.769,766.753Z" transform="translate(-2360.899 -763.343)" fill="#3dc8e8"/>
    </clipPath>
    <clipPath id="clip-path-3">
      <path id="Path_54" data-name="Path 54" d="M2484.128,902.664a1.988,1.988,0,0,0,1.932-.41c1.153-1.124,2.757-2.025,4.056-.41.749.931-.222,2.367.4,3.267.553.8,1.44.85,1.577,2.021.2,1.723-1.684,2.839-2.469,4.145-.659,1.1.232,1.732.5,2.735a2.36,2.36,0,0,1-.614,2.105c-.878,1.07-2.5,1.756-2.465,3.366.033,1.344.073,2.543-1.252,3.3-.909.522-2.474.856-2.6,2.118a13.289,13.289,0,0,0,.189,1.328,2.132,2.132,0,0,1-1.175,1.664,17.931,17.931,0,0,0-3.735,2.837c-.485.5-2.236,1.516-1.785,2.417-.819-1.638-1.708-3.244-2.414-4.937-.58-1.392-1.465-3.434-.337-4.8.351-.424.9-.684,1.135-1.183.42-.9-.342-1.955-.534-2.825a3.44,3.44,0,0,1,1.513-3.525,2.879,2.879,0,0,0,1.31-1.383,5.273,5.273,0,0,0-.181-2.081,10.057,10.057,0,0,1-.012-1.894,3.869,3.869,0,0,1,.284-1.288c.346-.766,1.154-1.074,1.8-1.541,1.532-1.113,1.167-2.835,2.024-4.3C2482.04,902.075,2483.089,902.472,2484.128,902.664Z" transform="translate(-2473.39 -900.967)" fill="#26a8d1"/>
    </clipPath>
  </defs>
  <g id="Group_177" data-name="Group 177" transform="translate(1876.534 7581.121)">
    <path id="Path_3" data-name="Path 3" d="M1800.552,781.637c-2.71,2.788-.252,9.6,4.07,8.616,4.644-1.059,3.946-8.3-.254-9.485A3.671,3.671,0,0,0,1800.552,781.637Z" transform="translate(-3616.907 -8330.888)" fill="#241f7f"/>
    <path id="Path_5" data-name="Path 5" d="M1806.061,640.977a7.735,7.735,0,0,1-3.65,2.1c-2.706.619-5.248-.572-7.505-1.945-2.412-1.466-4.818-2.952-7.093-4.626a14.5,14.5,0,0,1-4.306-4.257,11.5,11.5,0,0,1-1-6.881c.164-1.581-.574-3-.9-4.506-.632-2.934.015-6.4,2.751-8.081a4.467,4.467,0,0,1,4.328-.1,28.541,28.541,0,0,0,3.356,1.492c2.51.713,5.234-.269,7.693-.775a10.688,10.688,0,0,1,5.484.029c1.955.654,2.885,2.084,3.952,3.739a34.735,34.735,0,0,0,3.4,3.741A6.6,6.6,0,0,1,1814,626.9c-.73,3.189-2.564,5.93-4.157,8.728A23.73,23.73,0,0,1,1806.061,640.977Z" transform="translate(-3600.88 -8181.239)" fill="#0b2d4e"/>
    <path id="Path_6" data-name="Path 6" d="M1655.337,995.932c3.25-5.008,5.272-11.155,2.448-16.809a2.484,2.484,0,0,0-1.238-1.4,5.675,5.675,0,0,0-4.218.7c-3.943,2.314-6.356,6.667-8.572,10.541-2.3,4.024-4.3,8.214-6.613,12.232a22.436,22.436,0,0,0-2.385,5.086,8.045,8.045,0,0,0,.112,4.95c2.6,6.7,9.735-1.508,11.908-3.989A99.152,99.152,0,0,0,1655.337,995.932Z" transform="translate(-3470.297 -8505.915)" fill="#241f7f"/>
    <path id="Path_7" data-name="Path 7" d="M1822.782,722.122a4.246,4.246,0,0,1-1.213.912,5.293,5.293,0,0,1-3.867.17,12.534,12.534,0,0,1-3.478-1.87c-2.92-2.063-6.531-4.793-8.269-7.964-1.071-1.955-1.866-4.263-.841-6.4a5.955,5.955,0,0,1,4.718-3.38.941.941,0,0,1,.5.05,1,1,0,0,1,.381.414,31.119,31.119,0,0,0,2.231,3.64,13.314,13.314,0,0,0,3.521,2.906c2.141,1.3,4.491,2.257,6.5,3.746,1.454,1.075,1.492,3.494,1.138,5.172A5.5,5.5,0,0,1,1822.782,722.122Z" transform="translate(-3621.546 -8262.468)" fill="#061f33"/>
    <g id="Group_2" data-name="Group 2" transform="translate(-1820.825 -7532.718)">
      <path id="Path_8" data-name="Path 8" d="M1807.88,954.768c1.029-3.757,1.562-7.6-.769-10.16a11.914,11.914,0,0,0-4.464-2.533c-2.995-1.116-6.056-2.617-9.262-3.1a29.762,29.762,0,0,0-10.507-.1,27.169,27.169,0,0,0-6.054,2.258c-2.568,1.249-4.4,2.088-5.221,4.656a43.3,43.3,0,0,0-1.778,8.718c-.906,8.612.292,17.246.264,25.862a4.908,4.908,0,0,0,.44,2.489c.848,1.5,3.152,1.522,4.812,1.52l16.412-.025a32.405,32.405,0,0,1,6.152.616,3.941,3.941,0,0,0,4.2-1.907,9.555,9.555,0,0,0,.966-4.5,84.664,84.664,0,0,1,2.931-17.734C1806.462,959.187,1807.26,957.033,1807.88,954.768Z" transform="translate(-1769.485 -938.445)" fill="#504c99"/>
      <g id="Group_1" data-name="Group 1" transform="translate(0 0)" clip-path="url(#clip-path)">
        <path id="Path_9" data-name="Path 9" d="M1881.516,931.512a4.991,4.991,0,0,0-.1-6,3.858,3.858,0,0,0-2.969-.934,25.982,25.982,0,0,0-6.145.625c-1.917.43-3.871,1.158-4.7,3.014a4.477,4.477,0,0,0,.411,4.235,5.433,5.433,0,0,0,3.328,2.306,11.987,11.987,0,0,0,6.893-.411A7.111,7.111,0,0,0,1881.516,931.512Z" transform="translate(-1856.357 -926.117)" fill="#241f7f"/>
        <path id="Path_10" data-name="Path 10" d="M1789.961,1126.566a26.616,26.616,0,0,0,7.01,1.963,95.843,95.843,0,0,0,20.374,1.034,6.368,6.368,0,0,0,4.106-1.2,5.662,5.662,0,0,0,1.442-2.862,43.608,43.608,0,0,0,.88-11.01l-.044-8.643c0-1,.646-7.108-.914-7.038a.884.884,0,0,0-.459.192,5.158,5.158,0,0,0-1.538,2.367c-1.137,2.767-2.092,7.2-4.459,9.135-2.486,2.035-5.349,2.982-8.362,3.958-5.224,1.692-11.052,2.427-15.477,5.91-.737.58-1.439,1.223-2.122,1.867a7.262,7.262,0,0,0-1.824,1.99C1788,1125.494,1788.9,1126.066,1789.961,1126.566Z" transform="translate(-1786.288 -1080.943)" fill="#241f7f"/>
      </g>
    </g>
    <path id="Path_12" data-name="Path 12" d="M2045.392,994.6q1.246,2.248,2.467,4.51c1.646,3.066,4.7,9.878-.19,11.561-2.464.848-3.874.019-5.5-1.776a103.8,103.8,0,0,1-15.581-22.574c-1.55-3.04-5.665-10.964-.667-12.774a6.071,6.071,0,0,1,4.876.356,9.809,9.809,0,0,1,1.848,1.364c3.607,3.217,6.176,7.368,8.461,11.578C2042.515,989.451,2043.961,992.024,2045.392,994.6Z" transform="translate(-3816.039 -8502.046)" fill="#4f4b99"/>
    <path id="Path_13" data-name="Path 13" d="M1944.487,1235.325q.646-.109,1.293-.21,3.15-.489,6.271-1.157a107.813,107.813,0,0,1,12.453-2.036q.666-.063,1.333-.113a10.38,10.38,0,0,1,5.567.685,4.809,4.809,0,0,1,2.659,4.956,4.413,4.413,0,0,1-2.625,3.006,11.511,11.511,0,0,1-3.892.72l-12.839.867q-3.179.213-6.357.436c-2.023.141-4.077.424-6.106.425a4.128,4.128,0,0,1-2.536-.714,5.57,5.57,0,0,1-1.7-3.727,2.247,2.247,0,0,1,.614-1.906,2.156,2.156,0,0,1,.986-.354C1941.24,1235.907,1942.859,1235.6,1944.487,1235.325Z" transform="translate(-3740.053 -8731.771)" fill="#504c99"/>
    <g id="Group_3" data-name="Group 3" transform="translate(-1872.584 -7521.802)">
      <rect id="Rectangle_5" data-name="Rectangle 5" width="20.293" height="3.973" transform="translate(40.153 26.874)" fill="#b8d1ce"/>
      <path id="Path_14" data-name="Path 14" d="M1350.7,1063.7l-5.122-26.074a1.468,1.468,0,0,0-1.441-1.186h-34.047a1.456,1.456,0,0,0-1.18.606l0,0-1.572,1.859,1.395-.306,5.042,25.671a1.469,1.469,0,0,0,1.441,1.186h34.047A1.468,1.468,0,0,0,1350.7,1063.7Z" transform="translate(-1307.063 -1036.436)" fill="#b8d1ce"/>
      <path id="Path_15" data-name="Path 15" d="M1311.508,1081.927h34.047a1.468,1.468,0,0,0,1.441-1.751l-5.122-26.074a1.469,1.469,0,0,0-1.441-1.185h-34.047a1.468,1.468,0,0,0-1.441,1.752l5.121,26.074A1.468,1.468,0,0,0,1311.508,1081.927Z" transform="translate(-1304.917 -1051.08)" fill="#f47d31"/>
      <path id="Path_16" data-name="Path 16" d="M1459.782,1151.914a3.975,3.975,0,0,0,3.753,3.185,2.553,2.553,0,0,0,2.57-3.185,4.02,4.02,0,0,0-3.753-3.185A2.575,2.575,0,0,0,1459.782,1151.914Z" transform="translate(-1442.482 -1136.218)" fill="#fff"/>
      <path id="Path_17" data-name="Path 17" d="M1304.918,1063.8" transform="translate(-1304.918 -1060.754)" fill="#3f91ac"/>
    </g>
    <path id="Path_18" data-name="Path 18" d="M1812.935,1277.226c-1.012.209-1.8,1.1-2.809,1.395a3.457,3.457,0,0,1-2.178-.16c-.635-.238-1.281-.366-1.932-.574a3.864,3.864,0,0,0-1.739-.391,18.359,18.359,0,0,0-4.152,1.976,1.509,1.509,0,0,1-.932.241c-.321-.061-.589-.451-.406-.722-.373.349-.867,1.045-1.468.775a.5.5,0,0,1-.258-.669,2.029,2.029,0,0,1-.709.573.7.7,0,0,1-.828-.193.824.824,0,0,1-.11-.414,3.127,3.127,0,0,1,.332-1.438c1.021-2.228,3.33-3.881,5.294-5.208a4.23,4.23,0,0,1,1.1-.6,3.858,3.858,0,0,1,1.115-.123,22.23,22.23,0,0,1,7.182,1.16,3.11,3.11,0,0,0,1.547-.068,2.41,2.41,0,0,1,1.114-.032,1.921,1.921,0,0,1,.961.777,3.609,3.609,0,0,1,.742,2.242c-.041.6-.086,1.242-.789,1.367-.285.051-.578.019-.866.05A2.029,2.029,0,0,0,1812.935,1277.226Z" transform="translate(-3613.345 -8767.286)" fill="#ffba99"/>
    <path id="Path_19" data-name="Path 19" d="M1886.26,872.924a4.548,4.548,0,0,0,3.173-2.873c.417-1.335-.24-2.836-.357-4.183a25.479,25.479,0,0,1-.042-3.881,16.824,16.824,0,0,0,.009-3.631c-.1-.681-.478-.564-1.167-.835a6.007,6.007,0,0,0-2.209-.271c-1.532,0-5.526-.107-6.473,1.237a3.781,3.781,0,0,0-.49,2.129c-.025.887-.182,2.036-.327,3.274-.065.551-.025,1.1-.109,1.647a10.35,10.35,0,0,1-.531,1.787,3.992,3.992,0,0,0,2.351,5.347A9.485,9.485,0,0,0,1886.26,872.924Z" transform="translate(-3686.239 -8399.014)" fill="#ffba99"/>
    <path id="Path_20" data-name="Path 20" d="M1892.514,858.356c-.1-.681-.478-.564-1.167-.835a6.009,6.009,0,0,0-2.209-.271c-1.532,0-5.526-.107-6.473,1.237a3.782,3.782,0,0,0-.49,2.129c-.025.887-.182,2.036-.327,3.274-.065.551-.025,1.1-.109,1.647a7.632,7.632,0,0,1-.383,1.367,8.12,8.12,0,0,0,4.712.293,10.75,10.75,0,0,0,6.412-4.683c.008-.176.013-.351.024-.527A16.792,16.792,0,0,0,1892.514,858.356Z" transform="translate(-3689.717 -8399.014)" fill="#fcaa83"/>
    <path id="Path_21" data-name="Path 21" d="M1838.94,691.828a18.723,18.723,0,0,0-.821-5.6c-2.271-6.953-10.945-8.671-16.168-3.68-5.825,5.566-3.6,18.874,2.54,23.548a6.882,6.882,0,0,0,5.861,1.155C1836.38,705.637,1838.978,698.219,1838.94,691.828Z" transform="translate(-3633.919 -8241.232)" fill="#ffba99"/>
    <path id="Path_22" data-name="Path 22" d="M1851.83,686.23c-2.271-6.953-10.945-8.671-16.168-3.68a9.453,9.453,0,0,0-1.67,2.17,6.962,6.962,0,0,0,.916.658,26.652,26.652,0,0,0,7.08,2.964,8.282,8.282,0,0,1,3.071,1.173,4.537,4.537,0,0,1,1.188,1.437,13.3,13.3,0,0,1,.878,2.129,25.249,25.249,0,0,1,1,4.887.766.766,0,0,0,.178.475.638.638,0,0,0,.461.131c.962-.025,1.426-.947,2.175-1.435.451-.294.9-.594,1.329-.92a23.819,23.819,0,0,0,.385-4.391A18.735,18.735,0,0,0,1851.83,686.23Z" transform="translate(-3647.629 -8241.232)" fill="#f7c2a7"/>
    <path id="Path_23" data-name="Path 23" d="M1854.73,672.516a13.276,13.276,0,0,1,.595,2.225,25.235,25.235,0,0,1,.357,4.975.767.767,0,0,0,.115.493.639.639,0,0,0,.44.19c.957.1,1.536-.754,2.342-1.141a12.856,12.856,0,0,0,2.41-1.38c2.079-1.63,1.6-4.318,1.538-6.709a14.647,14.647,0,0,0-.46-3.9,9.6,9.6,0,0,0-2.213-3.645,14.192,14.192,0,0,0-11.168-4.354,9.283,9.283,0,0,0-5.781,2.455c-1.25,1.264.273,2.98,1.3,3.8a26.651,26.651,0,0,0,6.636,3.856,8.28,8.28,0,0,1,2.893,1.561A4.535,4.535,0,0,1,1854.73,672.516Z" transform="translate(-3655.132 -8223.065)" fill="#0b2d4e"/>
    <path id="Path_24" data-name="Path 24" d="M1975.529,787.562c2.668-1.459,3.49,2.236,3.031,4.074a5.87,5.87,0,0,1-.961,2.125c-.635.841-2.45,2.237-3.5,1.317a2.338,2.338,0,0,1-.538-1.76C1973.525,791.624,1973.721,788.551,1975.529,787.562Z" transform="translate(-3771.648 -8336.796)" fill="#f8a17a"/>
    <g id="Group_8" data-name="Group 8" transform="translate(-1762.266 -7525.213)">
      <g id="Group_5" data-name="Group 5" transform="translate(2.355 0)">
        <g id="Group_4" data-name="Group 4">
          <path id="Path_25" data-name="Path 25" d="M2318.571,1024.505a3.083,3.083,0,0,0,.072-2.331,9.033,9.033,0,0,0-1.073-2.119,9.624,9.624,0,0,1-1.175-2.388,5.137,5.137,0,0,1,.058-2.859,21.182,21.182,0,0,1,2.494-4.488,6.445,6.445,0,0,0,.846-2.158,3.707,3.707,0,0,0-.281-2.349,3.392,3.392,0,0,1,1.01,2.39,6.071,6.071,0,0,1-.534,2.628c-.685,1.636-1.711,2.965-2.111,4.4a3.858,3.858,0,0,0-.122,2.089,11.425,11.425,0,0,0,.837,2.194,7.623,7.623,0,0,1,.765,2.526A2.957,2.957,0,0,1,2318.571,1024.505Z" transform="translate(-2316.217 -1005.813)" fill="#fff"/>
        </g>
      </g>
      <g id="Group_7" data-name="Group 7" transform="translate(0 19.683)">
        <g id="Group_6" data-name="Group 6">
          <path id="Rectangle_6" data-name="Rectangle 6" d="M0,0H10.118a0,0,0,0,1,0,0V9.434a5.059,5.059,0,0,1-5.059,5.059h0A5.059,5.059,0,0,1,0,9.434V0A0,0,0,0,1,0,0Z" transform="translate(0 0)" fill="#241f7f"/>
          <path id="Path_26" data-name="Path 26" d="M2357.2,1211.9a4.458,4.458,0,1,0,4.394,4.458A4.425,4.425,0,0,0,2357.2,1211.9Zm0,7.325a2.868,2.868,0,1,1,2.827-2.868A2.848,2.848,0,0,1,2357.2,1219.221Z" transform="translate(-2346.372 -1208.618)" fill="#504c99"/>
          <path id="Path_27" data-name="Path 27" d="M2304.294,1198.2h0a.549.549,0,0,1-.547-.547V1190.6a.549.549,0,0,1,.547-.547h0a.549.549,0,0,1,.547.547v7.053A.549.549,0,0,1,2304.294,1198.2Z" transform="translate(-2302.781 -1189.21)" fill="#fff" opacity="0.2"/>
          <path id="Path_28" data-name="Path 28" d="M2344.482,1182.474V1194.4a2.562,2.562,0,0,1-2.562,2.562h2.337a2.563,2.563,0,0,0,2.563-2.562v-11.931Z" transform="translate(-2336.701 -1182.474)" fill="#504c99"/>
        </g>
      </g>
    </g>
    <path id="Path_29" data-name="Path 29" d="M1779.234,620.536c-1.146-3.21-3.444-5.8-2.122-9.4a5.4,5.4,0,0,1,5.019-3.539,5.959,5.959,0,0,1,3.04.775c1.1.629,1.811,1.657,3.089,2,3,.807,6.1-1.477,8.96-2.009,2.835-.527,5.85.4,7.237,3.11a21.382,21.382,0,0,0,1.5,3.26c1.2,1.6,3.538,2.152,4.489,3.915,1.552,2.879-1.637,7.038-3.26,9.25" transform="translate(-3596.733 -8177.18)" fill="none" stroke="#0b2d4e" stroke-miterlimit="10" stroke-width="4"/>
    <g id="Group_9" data-name="Group 9" transform="translate(-1806.783 -7541.966)">
      <path id="Path_30" data-name="Path 30" d="M1897.491,860.349a13.494,13.494,0,0,1-1.972-.146l.118-.8a12.156,12.156,0,0,0,6.907-.965,8.917,8.917,0,0,0,1.495-.858,7.061,7.061,0,0,0,1.936-2.134l.7.409a7.877,7.877,0,0,1-2.159,2.381,9.726,9.726,0,0,1-1.629.938A12.8,12.8,0,0,1,1897.491,860.349Z" transform="translate(-1895.519 -855.446)" fill="#241f7f"/>
    </g>
    <g id="Group_10" data-name="Group 10" transform="translate(-1809.58 -7539.236)">
      <path id="Path_31" data-name="Path 31" d="M1870.874,880.538c.976-.837,3.146-.766,3.861.1a1.424,1.424,0,0,1-.216,2.007,2.482,2.482,0,0,1-2.406.413C1871.034,882.818,1869.7,881.547,1870.874,880.538Z" transform="translate(-1870.416 -879.948)" fill="#241f7f"/>
    </g>
    <g id="Group_11" data-name="Group 11" transform="translate(-1809.967 -7564.716)">
      <path id="Path_32" data-name="Path 32" d="M1866.936,652.022a13.064,13.064,0,0,0,1.406-.015c.467-.035.931-.084,1.394-.154.926-.133,1.847-.316,2.784-.444a13.958,13.958,0,0,1,2.848-.134,6.473,6.473,0,0,1,2.792.751,4.268,4.268,0,0,1,.607.43,4.383,4.383,0,0,1,.519.533,3.983,3.983,0,0,1,.408.626,3.152,3.152,0,0,1,.264.7,2.73,2.73,0,0,1,.077.754,3.581,3.581,0,0,1-.109.733c-.054.232-.112.456-.148.675a2.429,2.429,0,0,0-.022.654,4.027,4.027,0,0,0,.394,1.288c.194.419.429.823.647,1.245a5.8,5.8,0,0,1,.511,1.331,3.008,3.008,0,0,1,.078.71,2.226,2.226,0,0,1-.127.7,2.542,2.542,0,0,0-.07-1.375,5.885,5.885,0,0,0-.584-1.258c-.236-.4-.494-.8-.717-1.22a4.206,4.206,0,0,1-.478-1.377,2.809,2.809,0,0,1,0-.75c.033-.245.089-.479.136-.7a3.185,3.185,0,0,0,.084-.66,2.315,2.315,0,0,0-.08-.642,3.369,3.369,0,0,0-1.611-2.009,6.133,6.133,0,0,0-2.6-.717,14.884,14.884,0,0,0-2.776.059c-.928.1-1.86.233-2.8.316-.47.039-.943.062-1.415.061A10.516,10.516,0,0,1,1866.936,652.022Z" transform="translate(-1866.936 -651.252)" fill="#73b8d4"/>
    </g>
    <path id="Path_33" data-name="Path 33" d="M1972.829,779.892c-3.767.966-5.222,8.062-1.02,9.474,4.515,1.518,7.694-5.022,4.73-8.226A3.671,3.671,0,0,0,1972.829,779.892Z" transform="translate(-3767.827 -8330.177)" fill="#241f7f"/>
    <path id="Path_34" data-name="Path 34" d="M1989.208,788.751c-2.6.418-4.2,5.942-1.522,7.462,2.88,1.634,5.582-3.286,3.888-6.119A2.309,2.309,0,0,0,1989.208,788.751Z" transform="translate(-3782.971 -8338.124)" fill="#241f7f"/>
    <g id="Group_12" data-name="Group 12" transform="translate(-1808.952 -7568.117)">
      <path id="Path_35" data-name="Path 35" d="M1891.762,639.059l-1-.116c.682-5.889.391-13.414-4.862-15.817a12.65,12.65,0,0,0-8.8-1.158,3.851,3.851,0,0,1-1.046-.3c3.657-1.787,7.583-.691,10.268.537C1892.121,624.862,1892.482,632.836,1891.762,639.059Z" transform="translate(-1876.048 -620.729)" fill="#241f7f"/>
    </g>
    <g id="Group_13" data-name="Group 13" transform="translate(-1782.814 -7581.121)">
      <rect id="Rectangle_7" data-name="Rectangle 7" width="41.454" height="25.172" rx="12.586" transform="translate(41.454 25.172) rotate(180)" fill="#f47d31"/>
      <path id="Path_36" data-name="Path 36" d="M2159.621,697.159V685.591l9.059,4.942Z" transform="translate(-2154.165 -665.361)" fill="#f47d31"/>
      <rect id="Rectangle_8" data-name="Rectangle 8" width="20.521" height="2.196" rx="1.098" transform="translate(6.314 11.523)" fill="#fff"/>
      <rect id="Rectangle_9" data-name="Rectangle 9" width="6.726" height="2.196" rx="1.098" transform="translate(28.414 11.523)" fill="#fff"/>
      <rect id="Rectangle_10" data-name="Rectangle 10" width="20.521" height="2.196" rx="1.098" transform="translate(35.14 8.732) rotate(180)" fill="#fff"/>
      <rect id="Rectangle_11" data-name="Rectangle 11" width="6.726" height="2.196" rx="1.098" transform="translate(13.04 8.732) rotate(180)" fill="#fff"/>
      <rect id="Rectangle_12" data-name="Rectangle 12" width="14.413" height="2.196" rx="1.098" transform="translate(6.314 16.083)" fill="#fff"/>
    </g>
    <g id="Group_20" data-name="Group 20" transform="translate(-1754.932 -7552.228)">
      <g id="Group_16" data-name="Group 16" transform="translate(0 0)">
        <path id="Path_37" data-name="Path 37" d="M2372.769,766.753a2.691,2.691,0,0,1-2.466-1.036c-1.248-1.788-3.153-3.393-5.29-1.575-1.232,1.048-.306,3.205-1.367,4.243-.937.917-2.131.766-2.61,2.289-.706,2.24,1.519,4.2,2.232,6.14.6,1.626-.748,2.245-1.354,3.512a3.2,3.2,0,0,0,.282,2.956c.9,1.646,2.886,2.972,2.425,5.1-.385,1.779-.742,3.365.828,4.713,1.076.924,3.073,1.767,2.921,3.478a18.1,18.1,0,0,1-.588,1.718,2.889,2.889,0,0,0,1.141,2.512,24.271,24.271,0,0,1,4.248,4.722c.518.793,2.589,2.584,1.761,3.668,1.505-1.971,3.1-3.882,4.463-5.954,1.125-1.7,2.82-4.2,1.666-6.3-.359-.653-1.026-1.139-1.209-1.862-.33-1.3.952-2.513,1.427-3.623a4.657,4.657,0,0,0-1.118-5.073,3.9,3.9,0,0,1-1.391-2.173,7.149,7.149,0,0,1,.769-2.723,13.6,13.6,0,0,0,.5-2.516,5.247,5.247,0,0,0-.051-1.785c-.266-1.106-1.263-1.722-2-2.507-1.756-1.869-.833-4.067-1.6-6.239C2375.7,766.5,2374.2,766.762,2372.769,766.753Z" transform="translate(-2360.899 -763.343)" fill="#3dc8e8"/>
        <g id="Group_15" data-name="Group 15" clip-path="url(#clip-path-2)">
          <g id="Group_14" data-name="Group 14" transform="translate(-1.616 -1.453)">
            <path id="Path_38" data-name="Path 38" d="M2409.281,799.827a82.548,82.548,0,0,0-1.328-22.364,113.838,113.838,0,0,0-5.665-20.72,63.784,63.784,0,0,0-2.943-6.446" transform="translate(-2393.446 -750.297)" fill="none" stroke="#26a8d1" stroke-miterlimit="10" stroke-width="5"/>
            <path id="Path_39" data-name="Path 39" d="M2346.4,840.233a45.1,45.1,0,0,1,10.408,5.277,9.448,9.448,0,0,1,1.953,1.447" transform="translate(-2346.396 -830.213)" fill="none" stroke="#26a8d1" stroke-miterlimit="10" stroke-width="5"/>
            <path id="Path_40" data-name="Path 40" d="M2379.831,936.471a30.812,30.812,0,0,0-11.681-4.509" transform="translate(-2365.726 -911.722)" fill="none" stroke="#26a8d1" stroke-miterlimit="10" stroke-width="5"/>
            <path id="Path_41" data-name="Path 41" d="M2393.519,1012.769a26.336,26.336,0,0,0-11.536-5.79" transform="translate(-2378.018 -978.381)" fill="none" stroke="#26a8d1" stroke-miterlimit="10" stroke-width="5"/>
            <path id="Path_42" data-name="Path 42" d="M2455.7,806.951a32.757,32.757,0,0,1,2.888-11.462" transform="translate(-2443.521 -790.454)" fill="none" stroke="#26a8d1" stroke-miterlimit="10" stroke-width="5"/>
            <path id="Path_43" data-name="Path 43" d="M2472.59,894.518a28.915,28.915,0,0,1,7.037-9.4" transform="translate(-2458.53 -870.095)" fill="none" stroke="#26a8d1" stroke-miterlimit="10" stroke-width="5"/>
            <path id="Path_44" data-name="Path 44" d="M2487.488,994.576a10.836,10.836,0,0,1,1.195-3.149,19.415,19.415,0,0,1,2.367-3.133q.936-1.063,1.9-2.1" transform="translate(-2471.768 -959.913)" fill="none" stroke="#26a8d1" stroke-miterlimit="10" stroke-width="5"/>
          </g>
        </g>
      </g>
      <g id="Group_19" data-name="Group 19" transform="translate(12.533 15.333)">
        <path id="Path_46" data-name="Path 46" d="M2484.128,902.664a1.988,1.988,0,0,0,1.932-.41c1.153-1.124,2.757-2.025,4.056-.41.749.931-.222,2.367.4,3.267.553.8,1.44.85,1.577,2.021.2,1.723-1.684,2.839-2.469,4.145-.659,1.1.232,1.732.5,2.735a2.36,2.36,0,0,1-.614,2.105c-.878,1.07-2.5,1.756-2.465,3.366.033,1.344.073,2.543-1.252,3.3-.909.522-2.474.856-2.6,2.118a13.289,13.289,0,0,0,.189,1.328,2.132,2.132,0,0,1-1.175,1.664,17.931,17.931,0,0,0-3.735,2.837c-.485.5-2.236,1.516-1.785,2.417-.819-1.638-1.708-3.244-2.414-4.937-.58-1.392-1.465-3.434-.337-4.8.351-.424.9-.684,1.135-1.183.42-.9-.342-1.955-.534-2.825a3.44,3.44,0,0,1,1.513-3.525,2.879,2.879,0,0,0,1.31-1.383,5.273,5.273,0,0,0-.181-2.081,10.057,10.057,0,0,1-.012-1.894,3.869,3.869,0,0,1,.284-1.288c.346-.766,1.154-1.074,1.8-1.541,1.532-1.113,1.167-2.835,2.024-4.3C2482.04,902.075,2483.089,902.472,2484.128,902.664Z" transform="translate(-2473.39 -900.967)" fill="#26a8d1"/>
        <g id="Group_18" data-name="Group 18" clip-path="url(#clip-path-3)">
          <g id="Group_17" data-name="Group 17" transform="translate(2.188 -0.781)">
            <path id="Path_47" data-name="Path 47" d="M2498.983,928.508a60.96,60.96,0,0,1,4.058-16.038,84.068,84.068,0,0,1,6.978-14.245,47.053,47.053,0,0,1,3.027-4.269" transform="translate(-2498.32 -893.956)" fill="none" stroke="#3dc8e8" stroke-miterlimit="10" stroke-width="5"/>
            <path id="Path_48" data-name="Path 48" d="M2572.231,966.522a33.3,33.3,0,0,0-8.28,2.387,6.974,6.974,0,0,0-1.617.779" transform="translate(-2554.613 -958.437)" fill="none" stroke="#3dc8e8" stroke-miterlimit="10" stroke-width="5"/>
            <path id="Path_49" data-name="Path 49" d="M2541.032,1031.645a22.752,22.752,0,0,1,9.1-1.654" transform="translate(-2535.684 -1014.828)" fill="none" stroke="#3dc8e8" stroke-miterlimit="10" stroke-width="5"/>
            <path id="Path_50" data-name="Path 50" d="M2519.967,1085.153a19.449,19.449,0,0,1,9.169-2.6" transform="translate(-2516.966 -1061.538)" fill="none" stroke="#3dc8e8" stroke-miterlimit="10" stroke-width="5"/>
            <path id="Path_51" data-name="Path 51" d="M2559.774,924.063a24.178,24.178,0,0,0-.508-8.714" transform="translate(-2551.886 -912.965)" fill="none" stroke="#3dc8e8" stroke-miterlimit="10" stroke-width="5"/>
            <path id="Path_52" data-name="Path 52" d="M2511.4,980.664a21.355,21.355,0,0,0-3.8-7.794" transform="translate(-2505.977 -964.078)" fill="none" stroke="#3dc8e8" stroke-miterlimit="10" stroke-width="5"/>
            <path id="Path_53" data-name="Path 53" d="M2495.835,1052.916a8,8,0,0,0-.43-2.45,14.34,14.34,0,0,0-1.284-2.6q-.531-.9-1.09-1.785" transform="translate(-2493.031 -1029.132)" fill="none" stroke="#3dc8e8" stroke-miterlimit="10" stroke-width="5"/>
          </g>
        </g>
      </g>
      <path id="Path_55" data-name="Path 55" d="M2440.147,1186.952h13.777l-2.417,13.787h-8.943Z" transform="translate(-2431.318 -1139.756)" fill="#efb126"/>
      <rect id="Rectangle_13" data-name="Rectangle 13" width="17.15" height="3.87" transform="translate(24.293 47.196) rotate(180)" fill="#ffc73c"/>
      <path id="Path_56" data-name="Path 56" d="M2453.6,1188.781h-13.136l-.321-1.828h13.777Z" transform="translate(-2431.318 -1139.756)" fill="#231f20" opacity="0.1"/>
    </g>
    <path id="Path_57" data-name="Path 57" d="M1418.135,1315.622H1272.159a2.632,2.632,0,0,1-2.693-2.567h0a2.632,2.632,0,0,1,2.693-2.567h145.976a2.632,2.632,0,0,1,2.693,2.567h0A2.632,2.632,0,0,1,1418.135,1315.622Z" transform="translate(-3146 -8801.757)" fill="#dbcdfe"/>
    <g id="Group_21" data-name="Group 21" transform="translate(-1851.451 -7577.714)">
      <path id="Path_58" data-name="Path 58" d="M1504.265,534.6h-5.453a4.228,4.228,0,0,0-4.215,4.215h0a4.219,4.219,0,0,0,1.828,3.468v2.967l3.034-2.219h4.807a4.228,4.228,0,0,0,4.215-4.215h0A4.228,4.228,0,0,0,1504.265,534.6Z" transform="translate(-1494.596 -534.596)" fill="#f47d31"/>
      <circle id="Ellipse_1" data-name="Ellipse 1" cx="0.64" cy="0.64" r="0.64" transform="translate(3.248 3.576)" fill="#fff"/>
      <circle id="Ellipse_2" data-name="Ellipse 2" cx="0.64" cy="0.64" r="0.64" transform="translate(6.302 3.576)" fill="#fff"/>
      <circle id="Ellipse_3" data-name="Ellipse 3" cx="0.64" cy="0.64" r="0.64" transform="translate(9.357 3.576)" fill="#fff"/>
    </g>
    <path id="Path_59" data-name="Path 59" d="M2121.615,871.648c-.841-1.439-2.963-2.161-5.015.237-2.051-2.4-4.174-1.675-5.014-.237-2.072,3.545,5.014,7.717,5.014,7.717S2123.687,875.193,2121.615,871.648Z" transform="translate(-3893.958 -8410.63)" fill="#f47d31"/>
    <g id="Group_27" data-name="Group 27" transform="translate(-1842.101 -7554.288)">
      <g id="Group_23" data-name="Group 23" transform="translate(0 0)">
        <rect id="Rectangle_15" data-name="Rectangle 15" width="14.519" height="10.084" rx="5.042" fill="#f47d31"/>
      </g>
      <g id="Group_24" data-name="Group 24" transform="translate(4.714 9.837)">
        <path id="Path_61" data-name="Path 61" d="M1623.375,836.582l2.546-3.433h-5.091Z" transform="translate(-1620.829 -833.149)" fill="#f47d31"/>
      </g>
      <g id="Group_25" data-name="Group 25" transform="translate(9.605 3.367)">
        <path id="Path_62" data-name="Path 62" d="M1666.208,778.047h-.628v-1.72l.006-.283.01-.309q-.156.157-.217.205l-.341.274-.3-.378.958-.762h.516Z" transform="translate(-1664.734 -775.075)" fill="#fff"/>
      </g>
      <g id="Group_26" data-name="Group 26" transform="translate(2.77 3.267)">
        <path id="Path_63" data-name="Path 63" d="M1607.034,774.178h-2.061a1.6,1.6,0,0,0-1.593,1.593h0a1.594,1.594,0,0,0,.691,1.31V778.2l1.146-.838h1.816a1.6,1.6,0,0,0,1.593-1.593h0A1.6,1.6,0,0,0,1607.034,774.178Z" transform="translate(-1603.381 -774.178)" fill="#fff"/>
      </g>
    </g>
  </g>
</svg>
