<svg xmlns="http://www.w3.org/2000/svg" width="125.393" height="124.809" viewBox="0 0 125.393 124.809">
  <g id="Group_11542" data-name="Group 11542" transform="matrix(-0.309, 0.951, -0.951, -0.309, 125.393, 23.781)">
    <path id="Path_40365" data-name="Path 40365" d="M65.6,54.042a31.264,31.264,0,1,0-54.251-31.09A31.264,31.264,0,1,0,65.6,54.042ZM19.428,71.89A38.46,38.46,0,1,1,75.577,28.337,38.447,38.447,0,0,1,19.428,71.89Z" transform="translate(0.003 -0.017)" fill="#07006e"/>
    <path id="Path_40366" data-name="Path 40366" d="M591.841,622.437a31.166,31.166,0,1,1,8.243-1.112,31.028,31.028,0,0,1-8.243,1.112Zm.049-61.341a30.178,30.178,0,0,0-29.116,38.058l.006.038a29.93,29.93,0,0,0,8.832,14.372,30.061,30.061,0,0,1-3.739-8.389l-.009-.041a30.139,30.139,0,0,1,49.317-30.226h0A30.278,30.278,0,0,0,591.89,561.1Z" transform="translate(-553.373 -552.772)" fill="#f47d31"/>
    <path id="Path_40367" data-name="Path 40367" d="M650.841,692.158a29.928,29.928,0,0,1-8.832-14.372l-.006-.037A30.142,30.142,0,0,1,696.409,653.5a30.14,30.14,0,0,0-49.316,30.226l.009.041a30.061,30.061,0,0,0,3.739,8.389Z" transform="translate(-632.601 -631.367)" fill="#da6317"/>
    <path id="Path_40368" data-name="Path 40368" d="M235.559,194.778a33.063,33.063,0,0,0-63.782,17.45l-3.108.851-.02-.066a36.287,36.287,0,0,1,70.02-19.084l-3.111.856v-.006Z" transform="translate(-165.191 -165.033)" fill="#9eadff"/>
    <path id="Path_40369" data-name="Path 40369" d="M5025.723,3977.929q-3.833-2.112-7.676-4.241a4.828,4.828,0,0,1-2.3-2.927,33.825,33.825,0,0,0,1.857-2.908,35.185,35.185,0,0,0,1.623-3.2,4.838,4.838,0,0,1,3.678.479l7.719,4.26c2.436,1.384,2.4,3.809.98,6.211l0,.014C5030.213,3978.046,5028.13,3979.313,5025.723,3977.929Z" transform="translate(-4950.495 -3912.905)" fill="#30363d"/>
    <path id="Path_40370" data-name="Path 40370" d="M5677.843,4167.472l7.777-13.648-42.591-24.283-7.78,13.648Z" transform="translate(-5561.936 -4075.813)" fill="#07006e"/>
    <path id="Path_40371" data-name="Path 40371" d="M5725.662,4691.411l3.216-5.64-42.593-24.281-3.215,5.636Z" transform="translate(-5609.134 -4600.841)" fill="#9eadff"/>
    <path id="Path_40372" data-name="Path 40372" d="M5638.523,4145.057l7.783-13.649-3.276-1.868-7.78,13.648Z" transform="translate(-5561.936 -4075.813)" fill="#122488"/>
    <path id="Path_40373" data-name="Path 40373" d="M5750.92,4657.7l3.438-6.033-2.252-1.282-3.436,6.029Z" transform="translate(-5673.88 -4589.886)" fill="#9eadff"/>
  </g>
</svg>
