<svg xmlns="http://www.w3.org/2000/svg" width="167.086" height="127.258" viewBox="0 0 167.086 127.258">
  <g id="Group_18696" data-name="Group 18696" transform="translate(-464.155 -523.408)">
    <path id="Path_40364" data-name="Path 40364" d="M590.3,401.608a39.939,39.939,0,0,0-79.86-1.2l-.03,0v3.847l-10.9,17.2,10.9,2.759h0l-1.579,8.592h0l17.134,2.384-17.134,4.6h0l1.579,3.615v6.25a8.254,8.254,0,0,0,10.143,8.034l12.845-3.537v14.384l47.611-1.446V427.218l-.005,0A39.781,39.781,0,0,0,590.3,401.608Z" transform="translate(40.938 182.125)" fill="#f47d31"/>
    <g id="Group_11540" data-name="Group 11540" transform="translate(464.155 523.408)">
      <path id="Path_40363" data-name="Path 40363" d="M441.688,382.624a36.4,36.4,0,0,1,72.788-1.09l.028,0v3.506l9.933,15.674-9.933,2.515h0l1.44,7.832h0l-15.617,2.172,15.617,4.193h0l-1.44,3.3v5.7a7.523,7.523,0,0,1-9.244,7.323l-11.707-3.225v13.113l-43.394-1.319V405.966h0A36.25,36.25,0,0,1,441.688,382.624Z" transform="translate(-441.688 -346.217)" fill="#07006e"/>
    </g>
  </g>
</svg>
