<svg xmlns="http://www.w3.org/2000/svg" width="104.236" height="159.78" viewBox="0 0 104.236 159.78">
  <g id="OBJECTS" transform="translate(-138.092 -53.757)">
    <g id="Group_11492" data-name="Group 11492" transform="translate(138.092 53.757)">
      <g id="Group_11460" data-name="Group 11460" transform="translate(0 0)">
        <ellipse id="Ellipse_751" data-name="Ellipse 751" cx="40.403" cy="8.126" rx="40.403" ry="8.126" transform="translate(7.22 32.654)" fill="#ffa368"/>
        <g id="Group_11444" data-name="Group 11444" transform="translate(21.227)">
          <path id="Path_40267" data-name="Path 40267" d="M209.561,120.8a5.25,5.25,0,0,0-1-5.068l9.132,1.3-1.3,9.139a5.259,5.259,0,1,1-.984,6.91l-1.3,9.139-20.617-2.934a4.617,4.617,0,0,1-3.92-5.222L192.5,113.45l9.182,1.307a5.258,5.258,0,1,0,7.877,6.046Z" transform="translate(-189.521 -88.812)" fill="#e8e8e8"/>
          <path id="Path_40268" data-name="Path 40268" d="M256.548,119.815a5.248,5.248,0,0,0-5.067,1l1.3-9.132,9.139,1.3a5.259,5.259,0,1,1,6.91.983l9.139,1.3-2.934,20.617a4.617,4.617,0,0,1-5.221,3.92L249.2,136.873l1.307-9.182a5.258,5.258,0,1,0,6.046-7.877Z" transform="translate(-224.565 -83.456)" fill="#9eadff"/>
          <path id="Path_40269" data-name="Path 40269" d="M218.181,73.8a5.249,5.249,0,0,0,5.067-1l-1.3,9.131-9.139-1.3a5.259,5.259,0,1,1-6.91-.983l-9.139-1.3L199.7,57.724a4.617,4.617,0,0,1,5.221-3.92l20.617,2.934-1.307,9.182a5.258,5.258,0,1,0-6.046,7.877Z" transform="translate(-193.773 -53.757)" fill="#07006e"/>
        </g>
        <path id="Path_40270" data-name="Path 40270" d="M274.839,162.275l1.317,5.006,16.871-1.739-1.485-7.324Z" transform="translate(-218.397 -115.101)" fill="#d58136"/>
        <g id="Group_11459" data-name="Group 11459" transform="translate(0 39.175)">
          <g id="Group_11458" data-name="Group 11458">
            <path id="Path_40278" data-name="Path 40278" d="M215.274,215.924l7.215,53.349H162.362s2.151-13.451,3.664-24.873c.63-4.793,1.154-9.227,1.355-12.166,0-.043.009-.087.009-.131-12.244-.875-16.617-3.061-16.617-3.061V201.057l-12.681-3.5s5.9-18.585,5.685-22.958c0-4.154,1.967-24.087,1.967-24.087,5.67,11.025,83.268,10.138,79.592-1.844C243.786,177.941,220.168,210.677,215.274,215.924Z" transform="translate(-138.092 -148.669)" fill="#f47d31"/>
            <path id="Path_40279" data-name="Path 40279" d="M301.014,216c4.707.246,7.071-2.584,7.559,2.938a33.65,33.65,0,0,1-.48,9.323c-.966,5.008-3.7,7.551-8.169,9.849" transform="translate(-233.128 -187.911)" fill="none" stroke="#ffc49f" stroke-miterlimit="10" stroke-width="2"/>
            <path id="Path_40280" data-name="Path 40280" d="M184.179,207.61s10.057,4.373,14.431-4.591" transform="translate(-165.157 -180.586)" fill="none" stroke="#ffc49f" stroke-miterlimit="10" stroke-width="2"/>
            <path id="Path_40281" data-name="Path 40281" d="M168.816,304.585s12.244,6.341,20.772-5.685" transform="translate(-156.135 -236.892)" fill="none" stroke="#ffc49f" stroke-miterlimit="10" stroke-width="2"/>
            <path id="Path_40282" data-name="Path 40282" d="M241.156,320.894C233.2,338.709,205.77,345.54,205.77,345.54c.63-4.793,1.154-9.227,1.355-12.166A52.151,52.151,0,0,0,241.156,320.894Z" transform="translate(-177.836 -249.808)" fill="#f0d054" style="mix-blend-mode: multiply;isolation: isolate"/>
            <path id="Path_40283" data-name="Path 40283" d="M209.076,315.661s25.66.343,35.708-14.548a7.875,7.875,0,0,0,1.17-2.869l1.458-7.289" transform="translate(-179.777 -232.226)" fill="none" stroke="#ffc49f" stroke-miterlimit="10" stroke-width="2"/>
          </g>
        </g>
      </g>
    </g>
    <g id="Group_11493" data-name="Group 11493" transform="translate(188.605 84.164)">
      <path id="Path_40303" data-name="Path 40303" d="M276.934,151.867c-8.963.661-20.509,8.642-14.337,24.292.059,1.376.985,2.257,1.824,1.893s-.218-2.864-.218-2.864c.138-12.166,2.685-14.554,7.409-15.041l11.068-1.266c2.781.1,7.97,1.45,9.795,10.972l2.813.2C294.722,163.089,291.638,150.782,276.934,151.867Z" transform="translate(-260.698 -141.74)" fill="#5e749c" opacity="0.2" style="mix-blend-mode: multiply;isolation: isolate"/>
      <path id="Path_40304" data-name="Path 40304" d="M276.551,148.461c-8.963.662-20.509,8.643-14.337,24.292l1.607-.972c.138-12.166,2.685-14.554,7.408-15.041l11.068-1.267c2.781.1,8.16,1.95,9.985,11.472l2.622-.3C294.339,159.683,291.256,147.377,276.551,148.461Z" transform="translate(-260.473 -139.739)" fill="#d58136"/>
      <path id="Path_40305" data-name="Path 40305" d="M293.654,149.691l-1,3.063a1.76,1.76,0,0,0,1.949,1.408c1.606-.215,1.738-.983,1.738-.983l-.166-3.369Z" transform="translate(-279.372 -140.501)" fill="#fcaa83"/>
      <path id="Path_40306" data-name="Path 40306" d="M298.725,136.37c-1.211,2.841-1.787,3.748-3.718,4.371-2.5.808-5.564-.6-4.708-5,.7-3.591,2.4-3.241,4.031-3.292S300.033,133.3,298.725,136.37Z" transform="translate(-277.903 -130.375)" fill="#ffba99"/>
      <path id="Path_40307" data-name="Path 40307" d="M291.392,131.987a1.09,1.09,0,0,0-1.2.435,1.355,1.355,0,0,0-.194,1.326,1.179,1.179,0,0,0-.965,1.355,9.161,9.161,0,0,1-.617-2.989,3.948,3.948,0,0,1,.358-2.955,3.305,3.305,0,0,1,.9-.866,5.1,5.1,0,0,1,4.545-.576,2.784,2.784,0,0,0,2.089.129c1.9-.691,3.185.5,2.152,1.866a1.567,1.567,0,0,1,1.034.558.3.3,0,0,1,.041.292.338.338,0,0,1-.166.131,2.138,2.138,0,0,1-1.017.2c.144.1.872.059,1.138.456.707,1.055-1.66.748-2.023.675.409.03,1.555.751,1.283,1.365-.054.121-1.381,1.108-3.068-.458a2.74,2.74,0,0,0-1.4-.767,2.048,2.048,0,0,0-1.194.325c-.273.139-.951.664-1.19.423C291.637,132.646,291.883,132.166,291.392,131.987Z" transform="translate(-276.812 -127.426)" fill="#1b2841"/>
      <path id="Path_40308" data-name="Path 40308" d="M337.695,192.914c-.243,1.406-.628,1.586-.123,1.749s.806-.644.806-.644l2.264.192s-.661-1.382-1.029-1.516A6.983,6.983,0,0,0,337.695,192.914Z" transform="translate(-305.604 -165.737)" fill="#fcaa83"/>
      <path id="Path_40309" data-name="Path 40309" d="M266.3,205.057c.37.686.45.681.95,1.5.956,1.564-.556,4.376-2,1.653a8.013,8.013,0,0,1-.562-2.181Z" transform="translate(-262.949 -173.015)" fill="#fcaa83"/>
    </g>
    <path id="Path_40310" data-name="Path 40310" d="M310.57,194.22a4.7,4.7,0,0,0-.638-4.583l8.1,1.628-1.63,8.107a4.711,4.711,0,1,1-1.232,6.13l-1.63,8.107-17.613-3.541a4.825,4.825,0,0,1-3.78-5.681l3.541-17.613,8.145,1.637a4.71,4.71,0,1,0,6.736,5.809Z" transform="translate(-90.413 -78.114)" fill="#e8e8e8"/>
    <g id="Group_11494" data-name="Group 11494" transform="translate(208.617 131.766)">
      <path id="Path_40311" data-name="Path 40311" d="M355.9,271.764l-1,2.012,2.445,1,.261-2.316Z" transform="translate(-335.936 -259.791)" fill="#fcaa83"/>
      <path id="Path_40312" data-name="Path 40312" d="M356.13,255.9c-5.546,2.414-3.274,8.266.1,7.579,1.643-.334,2.475-5.625,2.475-5.625Z" transform="translate(-334.691 -250.472)" fill="#ffba99"/>
      <path id="Path_40313" data-name="Path 40313" d="M361.657,252.225a2.9,2.9,0,0,0-.656-.942.839.839,0,0,0-1.059-.055c-.373.347-.154,1,.223,1.338-.325.04-.712-.185-.951.038-.182.169-.118.47-.014.7a3.1,3.1,0,0,0,1.136,1.3c-.281.16-.607.469-.439.745.047.076.126.129.171.206.107.179,0,.407-.1.586q-.262.433-.565.84a.5.5,0,0,1,.795.138.846.846,0,0,1-.2.893.886.886,0,0,1-.448.286c-.152.035-.824,2.113-.3,2.52a3.3,3.3,0,0,0,3.171-.5,1.409,1.409,0,0,0,1.247.516.768.768,0,0,0,.565-1.06,1.3,1.3,0,0,0,1.565-1.878c.272-.082.327-.45.257-.725a1.676,1.676,0,0,0-1.148-1.18.568.568,0,0,0,.517-.558,1.169,1.169,0,0,0-.31-.763,2.6,2.6,0,0,0-1.906-.911C362.429,253.656,362,252.865,361.657,252.225Z" transform="translate(-338.375 -247.634)" fill="#243f5e"/>
      <path id="Path_40314" data-name="Path 40314" d="M347.534,397.713a27.443,27.443,0,0,0-3.68,2.044s6.385.287,6.884-.014-1.022-2.034-1.022-2.034Z" transform="translate(-329.45 -333.751)" fill="#1b2841"/>
      <path id="Path_40315" data-name="Path 40315" d="M377.5,392.8a27.381,27.381,0,0,0-3.178,2.762s6.732-1,6.732-1.439-1.421-1.779-1.421-1.779Z" transform="translate(-347.341 -330.602)" fill="#1b2841"/>
      <path id="Path_40316" data-name="Path 40316" d="M359.167,322.183c-.12.66-4.563,18.2,8.149,28.716l3.683-.845a26.117,26.117,0,0,1-6.306-11.253c-1.91-6.84-.393-7.511.752-11.279a13.237,13.237,0,0,0,.325-7.2Z" transform="translate(-337.945 -288.308)" fill="#0a1658"/>
      <path id="Path_40317" data-name="Path 40317" d="M342,324.143c-2.015,4.816-5.475,21.23,2.066,30.472l3.765-.008s-2.966-3.251-3.3-10.794,1.586-10.854,2.938-13.343a43.845,43.845,0,0,0,2.6-6.718Z" transform="translate(-326.851 -290.321)" fill="#0a1658"/>
      <path id="Path_40318" data-name="Path 40318" d="M338.355,252.357c-1,3.527-1.329,10.044,3.682,12.669l3.354-.818s-6.046-3.17-4.751-11.181Z" transform="translate(-325.866 -248.394)" fill="#e8e8e8"/>
      <path id="Path_40319" data-name="Path 40319" d="M316.764,247.526l2.6-.321s-.313,10.932,12.313,11.853c9.637.7,10.395,18.789,10.395,18.789-3.108,2.092-8.322,2.726-15,2.246,0,0,.428-12.9-.634-16.435C326.437,263.658,315.947,260.358,316.764,247.526Z" transform="translate(-313.515 -245.368)" fill="#fff"/>
      <path id="Path_40320" data-name="Path 40320" d="M309.023,242.929c-.44.511,1.4,1.158,3.183,1.984l2.285-.282a8.936,8.936,0,0,0,0-.932c-.028-.476-.267-.747-.538-.339a1.769,1.769,0,0,1-1.97.174C311.436,243.162,309.464,242.418,309.023,242.929Z" transform="translate(-308.957 -242.756)" fill="#ecb7a1"/>
      <path id="Path_40321" data-name="Path 40321" d="M338.3,250.254c-.837-.823-.615-.773-.615-.773l2.553.577s.562-1.246,1.037-1.281-.358.859-.168,1.19-.523.957-.523.957Z" transform="translate(-325.813 -246.291)" fill="#ecb7a1"/>
    </g>
  </g>
</svg>
